<mxfile host="app.diagrams.net" modified="2024-03-08T07:43:56.240Z" agent="Mozilla/5.0 (Macintosh; Intel Mac OS X 10_15_7) AppleWebKit/537.36 (KHTML, like Gecko) Chrome/122.0.0.0 Safari/537.36" etag="L0wePhawFZTt-DXG_YsU" version="24.0.2" type="github">
  <diagram name="第 1 页" id="XviTvijeLKkUur2Iza7P">
    <mxGraphModel dx="2099" dy="1832" grid="1" gridSize="10" guides="1" tooltips="1" connect="1" arrows="1" fold="1" page="1" pageScale="1" pageWidth="827" pageHeight="1169" math="0" shadow="0">
      <root>
        <mxCell id="0" />
        <mxCell id="1" parent="0" />
        <mxCell id="zDgk_tNfl1DSH7jhGKhS-2" style="edgeStyle=orthogonalEdgeStyle;rounded=0;orthogonalLoop=1;jettySize=auto;html=1;entryX=0;entryY=0.5;entryDx=0;entryDy=0;" parent="1" source="zDgk_tNfl1DSH7jhGKhS-4" target="zDgk_tNfl1DSH7jhGKhS-7" edge="1">
          <mxGeometry relative="1" as="geometry" />
        </mxCell>
        <mxCell id="zDgk_tNfl1DSH7jhGKhS-4" value="进入视频列表页" style="rounded=1;whiteSpace=wrap;html=1;fillColor=#008a00;fontColor=#ffffff;strokeColor=#005700;" parent="1" vertex="1">
          <mxGeometry x="50" y="-130" width="120" height="40" as="geometry" />
        </mxCell>
        <mxCell id="zDgk_tNfl1DSH7jhGKhS-34" value="" style="edgeStyle=orthogonalEdgeStyle;rounded=0;orthogonalLoop=1;jettySize=auto;html=1;" parent="1" source="zDgk_tNfl1DSH7jhGKhS-7" target="zDgk_tNfl1DSH7jhGKhS-12" edge="1">
          <mxGeometry relative="1" as="geometry" />
        </mxCell>
        <mxCell id="zDgk_tNfl1DSH7jhGKhS-7" value="feed视频列表请求" style="whiteSpace=wrap;html=1;fillColor=#f0a30a;fontColor=#000000;strokeColor=#BD7000;" parent="1" vertex="1">
          <mxGeometry x="250" y="-140" width="120" height="60" as="geometry" />
        </mxCell>
        <mxCell id="zDgk_tNfl1DSH7jhGKhS-36" value="" style="edgeStyle=orthogonalEdgeStyle;rounded=0;orthogonalLoop=1;jettySize=auto;html=1;" parent="1" source="zDgk_tNfl1DSH7jhGKhS-12" target="zDgk_tNfl1DSH7jhGKhS-35" edge="1">
          <mxGeometry relative="1" as="geometry" />
        </mxCell>
        <mxCell id="zDgk_tNfl1DSH7jhGKhS-37" value="是" style="edgeLabel;html=1;align=center;verticalAlign=middle;resizable=0;points=[];" parent="zDgk_tNfl1DSH7jhGKhS-36" vertex="1" connectable="0">
          <mxGeometry x="-0.068" y="-1" relative="1" as="geometry">
            <mxPoint as="offset" />
          </mxGeometry>
        </mxCell>
        <mxCell id="zDgk_tNfl1DSH7jhGKhS-12" value="是否有数据返回" style="rhombus;whiteSpace=wrap;html=1;rounded=0;fillColor=#d80073;fontColor=#ffffff;strokeColor=#A50040;" parent="1" vertex="1">
          <mxGeometry x="270" width="80" height="80" as="geometry" />
        </mxCell>
        <mxCell id="zDgk_tNfl1DSH7jhGKhS-41" style="edgeStyle=orthogonalEdgeStyle;rounded=0;orthogonalLoop=1;jettySize=auto;html=1;" parent="1" source="zDgk_tNfl1DSH7jhGKhS-17" target="zDgk_tNfl1DSH7jhGKhS-19" edge="1">
          <mxGeometry relative="1" as="geometry" />
        </mxCell>
        <mxCell id="zDgk_tNfl1DSH7jhGKhS-17" value="墨迹服务器返回广告投放" style="whiteSpace=wrap;html=1;fillColor=#f0a30a;fontColor=#000000;strokeColor=#BD7000;" parent="1" vertex="1">
          <mxGeometry x="420" y="-140" width="120" height="60" as="geometry" />
        </mxCell>
        <mxCell id="zDgk_tNfl1DSH7jhGKhS-42" value="" style="edgeStyle=orthogonalEdgeStyle;rounded=0;orthogonalLoop=1;jettySize=auto;html=1;" parent="1" source="zDgk_tNfl1DSH7jhGKhS-19" target="zDgk_tNfl1DSH7jhGKhS-21" edge="1">
          <mxGeometry relative="1" as="geometry" />
        </mxCell>
        <mxCell id="zDgk_tNfl1DSH7jhGKhS-19" value="根据插入位置对广告进行分组并行发起SDK请求" style="whiteSpace=wrap;html=1;fillColor=#f0a30a;fontColor=#000000;strokeColor=#BD7000;" parent="1" vertex="1">
          <mxGeometry x="670" y="-140" width="120" height="60" as="geometry" />
        </mxCell>
        <mxCell id="zDgk_tNfl1DSH7jhGKhS-43" value="" style="edgeStyle=orthogonalEdgeStyle;rounded=0;orthogonalLoop=1;jettySize=auto;html=1;" parent="1" source="zDgk_tNfl1DSH7jhGKhS-21" target="zDgk_tNfl1DSH7jhGKhS-23" edge="1">
          <mxGeometry relative="1" as="geometry" />
        </mxCell>
        <mxCell id="zDgk_tNfl1DSH7jhGKhS-44" value="该组所有广告返回" style="edgeLabel;html=1;align=center;verticalAlign=middle;resizable=0;points=[];" parent="zDgk_tNfl1DSH7jhGKhS-43" vertex="1" connectable="0">
          <mxGeometry x="-0.0208" y="3" relative="1" as="geometry">
            <mxPoint as="offset" />
          </mxGeometry>
        </mxCell>
        <mxCell id="zDgk_tNfl1DSH7jhGKhS-21" value="过滤不可用的素材" style="whiteSpace=wrap;html=1;fillColor=#f0a30a;fontColor=#000000;strokeColor=#BD7000;" parent="1" vertex="1">
          <mxGeometry x="670" y="10" width="120" height="60" as="geometry" />
        </mxCell>
        <mxCell id="zDgk_tNfl1DSH7jhGKhS-22" value="" style="edgeStyle=orthogonalEdgeStyle;rounded=0;orthogonalLoop=1;jettySize=auto;html=1;" parent="1" source="zDgk_tNfl1DSH7jhGKhS-23" target="zDgk_tNfl1DSH7jhGKhS-28" edge="1">
          <mxGeometry relative="1" as="geometry" />
        </mxCell>
        <mxCell id="zDgk_tNfl1DSH7jhGKhS-23" value="竞价获取最优广告" style="whiteSpace=wrap;html=1;fillColor=#f0a30a;fontColor=#000000;strokeColor=#BD7000;" parent="1" vertex="1">
          <mxGeometry x="670" y="140" width="120" height="60" as="geometry" />
        </mxCell>
        <mxCell id="zDgk_tNfl1DSH7jhGKhS-24" value="" style="edgeStyle=orthogonalEdgeStyle;rounded=0;orthogonalLoop=1;jettySize=auto;html=1;" parent="1" source="zDgk_tNfl1DSH7jhGKhS-28" target="zDgk_tNfl1DSH7jhGKhS-30" edge="1">
          <mxGeometry relative="1" as="geometry" />
        </mxCell>
        <mxCell id="zDgk_tNfl1DSH7jhGKhS-25" value="否" style="edgeLabel;html=1;align=center;verticalAlign=middle;resizable=0;points=[];" parent="zDgk_tNfl1DSH7jhGKhS-24" vertex="1" connectable="0">
          <mxGeometry y="-3" relative="1" as="geometry">
            <mxPoint x="-1" as="offset" />
          </mxGeometry>
        </mxCell>
        <mxCell id="zDgk_tNfl1DSH7jhGKhS-28" value="是否已经插入锅广告" style="rhombus;whiteSpace=wrap;html=1;rounded=0;fillColor=#d80073;fontColor=#ffffff;strokeColor=#A50040;" parent="1" vertex="1">
          <mxGeometry x="470" y="130" width="93" height="80" as="geometry" />
        </mxCell>
        <mxCell id="zDgk_tNfl1DSH7jhGKhS-29" value="" style="edgeStyle=orthogonalEdgeStyle;rounded=0;orthogonalLoop=1;jettySize=auto;html=1;entryX=1;entryY=0.5;entryDx=0;entryDy=0;" parent="1" source="zDgk_tNfl1DSH7jhGKhS-30" target="-iAQdE9D-gK92adV4hQ8-4" edge="1">
          <mxGeometry relative="1" as="geometry">
            <mxPoint x="160" y="170" as="targetPoint" />
          </mxGeometry>
        </mxCell>
        <mxCell id="-iAQdE9D-gK92adV4hQ8-5" value="&lt;span style=&quot;font-size: 12px; text-wrap: wrap; background-color: rgb(251, 251, 251);&quot;&gt;渲染不同的布局&lt;/span&gt;" style="edgeLabel;html=1;align=center;verticalAlign=middle;resizable=0;points=[];rotation=0;textDirection=vertical-lr;" vertex="1" connectable="0" parent="zDgk_tNfl1DSH7jhGKhS-29">
          <mxGeometry x="-0.1556" relative="1" as="geometry">
            <mxPoint x="-13" as="offset" />
          </mxGeometry>
        </mxCell>
        <mxCell id="zDgk_tNfl1DSH7jhGKhS-30" value="在主版数据中插入广告" style="whiteSpace=wrap;html=1;fillColor=#f0a30a;fontColor=#000000;strokeColor=#BD7000;" parent="1" vertex="1">
          <mxGeometry x="250" y="140" width="120" height="60" as="geometry" />
        </mxCell>
        <mxCell id="zDgk_tNfl1DSH7jhGKhS-33" value="" style="shape=image;verticalLabelPosition=bottom;labelBackgroundColor=default;verticalAlign=top;aspect=fixed;imageAspect=0;image=data:image/png,iVBORw0KGgoAAAANSUhEUgAAA94AAAC+CAYAAADDcdfsAAAAAXNSR0IArs4c6QAAAIRlWElmTU0AKgAAAAgABQESAAMAAAABAAEAAAEaAAUAAAABAAAASgEbAAUAAAABAAAAUgEoAAMAAAABAAIAAIdpAAQAAAABAAAAWgAAAAAAAACQAAAAAQAAAJAAAAABAAOgAQADAAAAAQABAACgAgAEAAAAAQAAA96gAwAEAAAAAQAAAL4AAAAApRI6eAAAAAlwSFlzAAAWJQAAFiUBSVIk8AAAQABJREFUeAHs3Qm8fElVH/BG/8oiRMzggonDAEYWRaKIggRlEURcCCGoUVGiJhhJRI0CCkZcogZUFHEFXABFJQgRWRWciEpCXIadYR32HQQGs4e87x3Onzv1P6duv9vd7/V7/1ufz3u3u06dpX51aq9bvfpQEv77f//vH/of/+N/JJQPfej//J//86EPfvCDKU0k2v/7f/+vpF922WUp7X//7//9ob/9279NaSJ7OvHhr8KLXvSilMTOnly0//t//2/KC58KIwwvfvGLUz6RPYxg/7/+1/9KeacwetOb3pTyiexh9D//5//8EL1ZmMII3/vf//6MdcCnwgiuU9j3/OiZz3xmWuZTGPV09jCSwRe+8IVpPqcw2sSPXvrSl6Y6RU75kXLNwhRGb33rW8s63MOI36JnYQojtr73ve/NWAc/qvxzUz969atfnerUzlV5wTDlR1UdxnvJJZd4pKEnF41dWVDPKoykf/nLX56xDXFz/WgKo7e//e1l+wnbCqOeHzG4hxHffve7353mdZN2js6qL6Dsla98Zapznf4yZTyI7GGEZ64fkVv5UQ8jOi+99FKPNPQw4ptVXzCF0bve9a7S3h5GU+1cz4+U9Tve8Y40nz2Mptq5HkaUVfV0k3auhxGdm/gRjLPQw0j6V73qVRnbENfDiA9VfjSF0Xve856yzeGfbM7CJn7EH/SnWdDOVW32pn70spe9LFM5tGE9v0ejuw3PetazPvS+972vxEj6anyE1tPJPys/muoLXvOa1xCfBjqrdm4TP4JD5YM9P2KLvFahhxGeN7/5zSlrD6N1/KjCiLKXvOQlqc6pulb5EWE9jNA38SNYZKGHkfTVvBRNmVUY9dq5CvvVQfgo/9pwlatcpY06+71Hi0S9ND1a8M957kruHFvW4TkOeyudVbx89Gjr0NfBokozR/cUT6Vrk/jj0Llre7edpyl56L00Fa2K3wSfbfDuyq5KbhW/jbz0ZBz0Sz3ykZfpLnGYI3sOTxfQPSdW+a3iZadH2/Psbt28TbCoeKv4bRhfya7it6Fzrowpmyp6Fb+OHXjn8M/hWcee05ZmCqcpeobHHJ5Mzj7ErZOXddK0eZnD08rYxffKrip+HRumxjjryGjTnDmYzbdxZxuKjCaxTMylHawcpLwBzFy5BysP5+RDxEd/9EevAHewQrU6WIE4J81UXvBloWdv0Nh0sDJ0DvuUThgdrACmfCIrjCps8dBZYRT2VnJ79h6sJK3ohXMbNpHb0/lRH/VRZ32w0jsnL3TCXZ7aEHqO2o/4bs+PDlYPW1OH7/LC9+bgAIMeX4XRJuVNpnxmejeRi7fCiB/NxYjczFbgo1UYHZcfafuOy4+i/MaO2sMo0vfwrWjKU/3N6JvIxdvzI/iiZ5003sye8JUereoL+K4wtz2a0xfIxyZ+xN5eXitalGfUHXIisKnCCE2o5PbKRT6rdnATuXirMYX8HZcf9dqGHn5z/EiZyGfPdyuMNsGereqNcm0DuZUfSYvew6GiaQ9Omh+17Ry/jHat6i+jPZrrR1V/OVXe7DkOP4IH3W1gb4XRJn6E9zj8SD7n9mutHwVWPYyOy4/U/V4+57ZzVbtx5mpXu1rgMTwlpMTzYz7mY65E80WDqSO8+tWvfrYyRiI8jG9lBh2oKnFG56wyn8nFr3JlfHSisTXrmOmUBi/bx4FTyWumM/Jy1atedeAf86H1MArnwdvqDLm9vMjHmTNnxiqHz1MY4avy0sMI7uxkUzSwY+V4M7nSyI/8tvkRHxPYj/3Yjz1H7jrYtzLDJvouvPDC1cd93MdF1NnnFEZTfgT3yo8oYVNbpuIrjKK8YRB+IX0EjSksMuylx9/zo55/4p/jR3gy7NkinxVG/Aj+la9UGMEC5uGDgU08exit40cZRmTDx19mL1vozWhRpnMwok+Y40fwm+NH7N3Ej/BWfUGFkTyGH+EfB9/lpWrnNvEjvNqdrGx26UfyRGfbfm7qRxVGx+VH9M5tj+b6kUkNbNt2ecqP5vYFfFW5hd6x7/rc6y83bY96fjRn3DWFUfhRVqbyqp5mdSnkVuOuHkZ46SUXzuOAZgyZtdloMe7KxhRkVRhFXsht27KQy6Y5/WWFEZ38IdrBcT59ntvOBUZVXyAf0mTt0Rz/JOs2t7nNUP+m2qO5fjRnTMGuKT+qMJrbFyg3vOTK6ziwJ/yz9THp5vYFoWMXftQbU4QfGQO19XSOH8nHFEZ0Cpkf4a3ml2jyMseP6OPXWT5D7rb96ExklPI2ZDSACwzyl4UeTfpMbhRsjzfjC/34evRM77p5yeRG3jNa2JTpDFqVz4jP5E5hFLxhW+iKp/hM7pje8k5hFDoPK3cqL2wK2WHf+KliZjrXkZvxhewpjKRr+acwCp6Wb6yzl9fgj/TjJ5l4q5DpnMIobKnkis/kRvrgH9s0hVHwZHJDTqSJ755TeZGmh1HI9ByHKXtD7pin/dzLS48/bGrlsQmtJ7fijfxVvFMYZXxTGIUtGa+8VXkJW4O/xSF4I92YHvnIdEofGLa8U3kJnZncoGX2klvpDLsrmSG3R5emomf2hE60jE/8lL1TOjO5oTejTWEUtma85AY9dMRz3bYh0rfPSm6kQ/c3DvIiZLRIN0fumLfVuS6twi/4K3oVj2+TvOCvZFdyI++e8Zmccaho4umrdJKR0Tbxo/CHTG7YGc9xHoIvo0W6Xl6Cz3Mc1s1Ly3fNa15zmNiQleVlrKOiV/F46cvoYYdnfB7ris8Zb09u0DK5Uxjhoe+wOtct08hT+wy9Wfw4P2P6lE70Su5YTpvXKYzw4iE7C3N0hpzWloiPZ0YPOzzjc6T3jLiMN+gZDV9gGDJCbg/79B3vYFyeCwILAgsCCwILAgsCCwILAgsCCwILAgsCCwILApshsEy8N8Nv4T4mBNrVpWMyY1G7ILAgsCCwILAgsCCwILAgsCCwILAgMInAMvGehGhJsI8IXHbZZenlFvto62LTgsCCwILAgsCCwILAgsBJRODP//zPh3ebT6Lti80LAvuGQDrx7u0m9miRuV6aHi345zx3JXeOLQvP7hFwiUW8Q7F7badLwzp1ZZ00h0FlU3mb8h/G1m2kPWp7j1rfNjA6aTIWjOeXWA+7Hm2+xoVzQeDKCByXnx2X3ivnfrNvl19++Ykcb50G7DcpuV3lf1dyN8nrrnh3Mc844ya4NoSijCYt0OfQvJzuptGKl+yK1tOJz02D/toQN6G67TIuBBin6clFw5eFHkbxEj575LcN5Jo4ZoFcPBlfpK8wwtObkLpF018W6K3k9jCCj3xmvD2M2NCT28NImQa9yk9mz5RO9Aqj4/AjeYThJn5U4SCvFQ0GFa2HEZpQ8fbKWx6Pw4+0Cb06MycvMJjyo16Z9nQGTnSMQ6+uHacfwZb+LMxt53p+ROa++VHP3h4NZhVG0R7N8SNy5/qR+tLTOae/ZE8PhyjPyLP041BhFGl69amiyWfVDvbqGp29vKBVGMkf2VV7NCUXXxUqjALTXplWGNFVtXNo8pLxysdx+BHc3XoMizawlU2ZvZG2ovXKBW/lR2gVRmg9uWhH5Ud8hD4BdhkO64x5M75B6MG/nh9Jk/GySZnBwbMNPYzgLmRyxeOtaOqKEDKGLx/+J67CKNJVcns68fb8CH2OXDrlJ/JEToRoj3r49nRW7VEPo039qGrnIk+Vvfh6+awwCh+o5FZlegahDYSJz2jSogMolAa/9DJQ8UV8PIMvZHpmcoOe8YmjU6joQcvoc/PSwyj0eMbnwcAP21hhJG0vL4F3hVHkM3TFc125ra3BX2EU+vBlvGFvRsNbyZW+wih04s30hs4Ko+AjZxxCp7jM3ojLdOKZm5fgDfm+R4i4TKe4HkaRz5ARMj2nMJIm4wudFX1KboVRyCM/04se+fG5DZXcsLeSGfHxHMtdJy8Zn7heHQ4ez/jc6s3ixfXKm4wKo5DnGZ9D55TckNnyBX+FPXroa3lDZ6QJWfGci33IC70hb/yM/Izj4nOVl7C3zUfwRXw8Iz6elVz0yp7QKU0mN+I847O0EabkZjzr8Ia+lt/3nn+GPS3fWGfVZk/pJCOTS6dQyQ2bhkTNv5AXz4Zclpt05GY6yephFLrimek8rNzQSVYmN+I84/NYb4WRtL12LrDPZEacZ3wOnb73MOrJJaPCHi30tTqDL9J4jkPozLCXDj2TOZaR0deRm+kkq4dR6Irn2I6w9zByQx9enzO5EVfRK4ykX8ePKnsrm0Ju2CVdGyqbpEPLdIaMqXxmetcp74xvHZ3SVPZW+aRrXT/K7KowmpIb9mQyI84zPkf+PYN3HOeztHP9KGRlOkNuZkvwVTahVxidaX+LTmKzd4oymsxZyfC7Zlnw25dolaFWUTK5VnOsKvTkZnxs8NtuVjL9VSH7XT2g4O3pxMeh2xCrOZVN0lc29TCCPYwye6cwwlflpYdRrPRkeZnCCF3IeHsYxepyZW8PI/quf/3rr65xjWv4eKUwhRG5ma2E9DAKJVm5TGFEZ8+PqrpGJ9pcP+K3Gb7qsDLPaHTSNwcj9Rf+ldwoUzraIJ94M7279KO5GG3qR70yzTCAF5341PM29DCS9jj8KNqjrP1U16p2bh0/qjDiQ5X/btLO9eowfHt+pGx6daLKSw8jOoU5fhTtXOZHPYzom/Kjqp3bZEwR5ZnZ28Nok75A/xR65Xscehht0hfQAd/MVzbpL3sYRb428SO8behhJK360tNZ+VGvnZvCiEzYeraBf1Z1eBM/4g+VH2nn9MVZee+bH33RF33R4JsVRoFnr0x77VzFN9UXsCcrT/ZM9ZfqWmbTlB9Fe57x9vxoatzVG1PIj/Yv0zmFUU9uDyM6YZThO4URufwafxt6GEXayh96eem1c1MYVWMR9sztL3t1+NwZZeR8R0/GLGFBYFMEssZgU5nnC/86dXCdNIfBa9vyDqP7ONKeb/k9DowXnQsCCwILAusicFxt8nHpXReXddLZ5MgmUevwLmmOD4HT4HvHh97uNB/5xHt3WVkkLwgsCCwILAgsCCwILAgsCCwILAgsCCwILAjsHwLLxHv/ymSxaA0EltXXNUBakiwILAgsCCwILAgsCCwILAgsCCwI7AUCy8R7L4phMeKwCLz2ta89e5nCYXmX9AsCCwILAgsCCwILAgsCCwLTCDzvec9Lb76e5lxSLAgsCLQInHsrxkEKFxZUO4po/qqAr+LFU9Hm8oXMnk1zbe3ldVN75+DAnoovcOjltcJIfPUuyFQ+ezZN2VrZE3np8bssIaP37Am5czCqeEJmZkvw9GxCq7AP/upJZ6VXfIVvz57Q1ZPbo1U68VR8dPZsQqswQqt0kjulV5osTPH18oLWsynTF3E9ub28olUYhezq2csruZVNPRpdPRym8oJehcoe6Xs29exBm5Lbs6mytZdPPLvQOSW3l9cercpjxPfy2iuXHl/kpcKpJ3cqL5XMdXRWdW1K5zp5DTzHT3LxVqGnt4dRJS/ipzCqbBJfYRSyq2fP3rn20DUlt5eXKb1VXnrlMpc2lZfKluCr8ole2eSCKbQeb08v3ipUOqWf0tmTy9bKXvGVf/b4wqZK71ReKr6Q61mFirdnb88eenq8lR3r8PX00lnlhey5tF5eerRePsMe/Flga49W5eUqL37xi8+57SwcsmJCn0NjuNvwMkN3qdNtgtmNqOyZm5cpezfRya45+FbYrpPPuTp7OPRo69hUYSD+He94x+o617lOitMmZVrpZO8mZVrJncJoE51zy3TKjyq5U3mZKpddya2wp28qrxXv3LzQuUmZ9uwhu6JvorMnt4fDFLaV3E38iMzKpk3kVjLpE6byWpVLT+6UvZuUac8e+anom+SzJ3cKh8qeHkY9Glt6Onv0TeRO6TyOMj0OncflR5UP7rJMq7zuUuc2y1TdM9664IILhnahqovb1KmchCmMKmyDt7J1Si76HN5N5VY65afK6y51HkeZbqITThmGUxhV2JI31xcq3pvd7GZXIfSccPBTEB862FE8Jz4iDq6Dj4/nPHs0id/whjecwyPiIOMfOrimP6WJ7Mnt0fC+6EUv8khDj7dHg08Po5e85CWpPpE9uTA4cLyUdwqjN7/5zSmfSHLxZ+Hg5zJmY89XLr/88kzsgE8Pox4OPRplz3jGM9L8TGHUk9vDiM4XvvCFHmnoye3RpvzopS99aapPZE+uclGuVejxvu1tb6vYun7Eb+fWYba+//3vT/XCSH6q0MtLj0bea17zmkpsF9+e3Ck/uuSSS7aucwqjl7/85bN0buJH73znO0udMKrauU38SP1/73vfm+rlY7vyo1e+8pWpTpE9X+nRehiRuws/msLo0ksvpToNvbzAfW5f8J73vCfVJ7KH0SZ9Adnvete7PM4JUxj1cOjRKHrFK15xjr6I6PH2aD2MyJ7rR+T2xhS9uvbqV786snXOs5eXqf6yx/u+972vbHPkRblmYVM/evvb356JHWyhtwq9vPRo5L3sZS+rxM5qj57+9KcP47wKI8rmjo96fjTVFxy8cjgrn1P9ZQ/fD3zgA2Vbtkl/2dMpk295y1vSvE5h1JPbo1E2dx7TkzuF0dz5Gj+aO6Z4/etfn2IrspeXOX2BCXm6f35gfPn+bI9GIPqBrT6m4aARS+PXkZsyHkSSeQBARS7j2UlvFdDm2tvDoIcRfZVN4iuaPEzprHjFV/ncFUa9fMoLm3r5ueENb5iubOGr8hlyPbMwxZvxiNsVRpW+iO9h1MuLulKVd+Snwr4nt0dbByP8WejJ3dSPevnsYVTZyn60Oe1R8GYYBK3S28OokhfxeHs49HT2MEKr6D17e7TAIWxvn3jn6FzHPyu5rQ3j75vmBf+c0OOTj4o+ZW/PFrwVRj25PRp9c+2dkoteBTrn5GVTP6rqYQ8DeZCXincKhwqDkFvRe3J7NPIqW0PnHOzXwYhdWejxTuWlkkmPfPbyUtHw9eSiVbxZ/iKul09pyM3K5g53uMNwUrVnU+jInj0+tIreo9GT2Rr6e7xoFX5TGPXoc3WyGW8vVHnt6VzHj6b0Zjb1MJCezDn24q34Qq5nFno49Ghk9XT28tqT28M+nXhnmVriFgT2CYEzZ9LrCfbJxMWWBYEFgQWBBYEFgQWBBYETjcBVr3rVdKPjRGdqMX5B4JgQWCbexwT8onZBYEFgQWBBYEFgQWBBYEFgQWBBYEFgQeD8QGCZeJ8f5Xzqcpld0HfqMrlkaEFgQWBBYEFgQWBBYEFgQWBBYEHgVCCQTryzW+Eitz3aOmnW4Q85h3nuSu5hbDhM2n2yd59sWRfDg8tZJt+JWVfWpulOGn7r2LtOmsPgto68XpqKVsUfxrZdpD1qu45a37qY7atd69o/Tnea8jLO1zY/VxhV8XT3aNu07bTLqnCs4neJx3HonMrPlE1T9Cn5FX2O3Dk8lf5txF988cUn8ne89w3HbZTFYWTsKv+7knuYvGVpd2FX7/3vzIZ14s787d/+7TnpwviMJjH6XJpLh+by9vgObrQ7Jx8i/IwY4A5upksvU5jKC74s9DAKGpu8fN+GKZ0wOrh1sWUbvvd4p7A9uE1w5a8NYW8P34pGHr3Zz7VtIhev347Mgt1uFx6wqdJb2dvDD63CKPQctR/x3Z4fVRjJC9+bgwPf6/FVGNEp9HgrGp3ymdE3kYu3wogfzcWI3MxW+UerMIqTGnP9qGrnehihqS/H4Ucf/OAH05+PZJMyn9PO4a2wV56wz+g9jKLcMr6g9fwo2iNp29Czd4pW9QXH4UfyJZ89360w2gT7KM9og8f4klthJN0UvlV5y2foHesLmZ4V75TOakyhTLX3MMwGe1Nye/ZUGG3qR1U7x9YeRlN+VGE0JbeHkfZPfrM2B1+FkXz05PZoyvGo/Ug9ge9cP2rrMHkwk5eqvww/6vUxPf+c60fs6bVHu/Ij+NLdBr5QYbSJH+FVBhmGdAoZTXzPP9GqMYVy36Q9av2ILUIPo135UeitMFL3e/Wlwmgu9meufvWrD2DEP4I4q+fHfuzHRvTZJ4djxDWucY1zOgc8MtbKDGZ0hZnRZdxfJhc/UDI+MtHYSnYb0P1d7WpXO8deTiWvmU488uJSiXCGkI0WBZFhhC7gpWMcQm4vL/LxMR/zMWO24bMKrfJl9krgwrGMRmcPIzKVK5tae3sY0Uk2fLL8aEyFDKN1/EiZBZaDoA//E8cuOtsyn8JoEz+iPvMj8eRW2Fd+hC8wqnxFXisauRlGePi1cpnrR1l5kiufZGaX261ThzOM4EBelKnv4wCjoHmOg+9TdTjDiAz54T+ZTT0/wle1c1MYoQu78KMKIzr5wlH70cHPDA51NGs/d+VHfJC/ZP67Sz+CceZH67Rzma3hR+pFVtc28SPYV/1lry8IP8p8F22qPZLmsH2BuhJ1rW3ryZOXCqN12qMMezqVG9kZvYfROu2RetjWCTrlxx+dbTu3qR9VYwr6hKxMxVcYBPa78qMKo+gv5/iRMZt8tn2ivGzSX1YYwU850lf5kX4mazcC+4zGXnWiwgjd31w/ghH+CD6HP075UdbHRF4yDMiGXzWmUNcqjPCyJ/NdtB5Gc/sCedGu8D95HQc65/pR2JthFDq0cxl9nXZu2360TjvX+pF8TGGELmR+1MMIredHUxjxo6y+hNyqnZvrR2cio0Num389mqQ9+mFp4/Tjz2OTqvhIswm94hVf0aYwmKJnckNfRot8zpEbvNuWu469mc5x3Phz2Bl5rGgGIpFmzDP+XPFW8cF7WHp0Sj17yDys3LBnE7lzdAZPPMd2hC0VLdK29HUwCtkhI3vOkYun5Wtlt/Tx9/HnMV8VH2k2ofd4ezS6e/SKJr6iVTLH6cefI//BV9GCPk7ffj4sr/Txl8kKPzys3JBV8UV8PCP9+FnRqvjg3YRe8YqvaOvo7fHOpdGb8YqLv7CtfVZ8kS6jo03FV/QpuVOyDyt3nH78OeyIZ0UTX9HW4Y002XOuXLIq3il7M75x3Pjz2OY5clv+8ff4XOnr0U2kqnFMtFP4K9m9vARPPDM7Wto4TUsz+Y3Q0iI+nhW9iseHltHHcePPoSuec2jBE8+QtSn25LQy27iM3qbxfRzwVHyRrqWvkxe8LV/Ii2dLX0cunpYv5Hn2aD36XL7QnfFHXDwjbTzFZzRxgUVGH/PHZ8/lN5nGaCyfTwwC/+Af/IN0J+jEZGAxdEFgQWBBYEFgQWBB4LxC4DWvec3qyU9+8upGN7rR6o53vOOJyPud7nSn9Ij+iTB+MXJBYM8QSC9X2zMbF3MWBM5BIDuqd06iJWJBYEFgQWBBYEFgQWBB4JgQiLHKIx7xiNVtb3vb1X3uc5/hVcUnPelJqy/8wi9cfeu3fuvKZHyfg9353o7ePtu+2LYgsG8ILDve+1Yiiz0LAgsCCwILAgsCCwILAgsCJx4B7xrf+MY3Xt3znvdc/dEf/dGV3g327umrXvWq1c1udrPVf/yP/3F117ve9cTnd8nAgsCCQB+BdOLdW9nq0UJVL02PFvxznruSO8eWdXj2yd59smUd7KSJVeR10+8y3UnDbx1710lzGEyn5KH30lS0Kv4wtu0i7VHbRV+8a7SL/MyVedQ4zLVzHb7TlJd18jsnTYVRFU9HjzbHhvOVp8Kxit8lTsehcyo/UzZN0afkZ3S/6vD1X//1qx/6oR9afc3XfM05Sewk3+QmN1lJ9yVf8iXDTvjd7373pU6cg9S8iF2U6TxLjodrV/nfldxNUdqFXbsYV51xE1wVKprMub2vNUi8v4rPZMkKX8YbNlS0Sq54IW67DDnxdFsdO91oGRdZBM0Tf6ZTvL+4vXzMM/6c5TUmhWwaX0oR+sjN+MSzNW7gG+sZf87sRa+wJVdwQ6S/KlRy8Vc0eaQ3y0/oqWiVXPFBCxnjpzK1SnzBBRecc6t5pKvsJTezR7xQYUSncNR+xB96fiSfbZAXfHwvy2ukrzCqynMKoym5+Hs65bNnb0Wr5IoPWtg2fipTbUJlk7QVjdzMHvHClB9lZYqvJxcNXy9UNmV+RJ4/gz/2+tyGaMuydoNMGGY0cmDL3pAxlo0Pf8Y7JTfsHcuLz3yX32dypWFLRqOzJ3dMk3bcl0z5EVzn+pH8+GsDncIcPwq+QUDxr/KjKNOqX5PPXsjkSt/DSHmR2/pR+GuFUdjRYo+PrHGZRtp4yp+8Zr4izSZ+xN6wPfSFzHXkhv95CmT5y7AVL12F0aZ+BJ8KI7a12Ie9U340Z9wVsjOdaOqK/Lb1aQojvEIlN8NenDy4i+a5z33u6rM+67OuEFL8l/45z3nO6qu+6quG8rLzLS7TKT7kZ+LkUZlnvNJPycU3DuT96Z/+6eqWt7zlUGcyP4u6Obc92sSPsjHZFEaRvywvaBVGaPIojPuAIeLD/+aOu+js2cNvKzrVvfLO+AKjyM84Dz6HH2X4olcYhdzWj/BEqDA6Lj9iT5bPyEuFUeQnwxetwuig7zl305sRAuDboEKjZzRpOQcahW0QB9iMlxP7y2ghN7M1aORGoY31hi2eLX2TvPQwiryzNz6PbephhIYnw2EKowrbKYzkBRaZzimM8LIrK5seRlNyexjJZ/hKq3cKI3JbnigbNLJbP0EPbPDSMQ6b5KWHET/wR+dR+lH4X6WzwqiH/RRGeMnNyqaH0ZTcKT8al+24THt5ka4nt+dH4Vv8qcU38pJhEDor7HsYRb5Crp9uec973rN6+tOfvvrrv/7rycXF4M+ebG7zEel0ZH6Go6JHusM+ezrRDOKynxua0jMlVz78we82t7nNMEiGKT4h2oixnpPoR/ITvjLOi8/yn/kuWq9O9PyTPvQMP3L5PFpG79W1Fnvl9oY3vGH1B3/wB6tLL730nAkYXRHYtEs/Cj3jJ2w/8IEPrK55zWuOo89+ZpM08LDofOc733l4R5idPezRotzOCvvwh157JAneyhd62CtP9mZlRm7Y49mGXl624UdZfnoYtX6U2TuWCVPleI973GOtSXfIg9fv//7vr778y7988D384rLQwygwZ1PL73uvrmVyyROPN8qttWlXfjSFPXvkU7o2ZHmJNJv6kfyOyzzk0llhNJUXvJnMkB15je/x7MmN8q7k0ikvUX4h0zP8yLOlh9xIM+bzuYd9DyN5FNgbn4eID/+bklvlpYcR0VFmbT7RehhFO5fh28PojM6oDYQxpKIxJKORoxNAy0BDr+SSCZwpuWS0IQojy3ykzWiAmcoLvqww2CpU9qJVTtDDKBrFTO4URvRlfGzpYQSHCvspjMLxMr09jNCmsCez8iN2obflOoVRYA+TNvQwirQamraxmcKIzuPwo8ofpjCSvwr7HkbyOdePYFiVDZlR3lEO8dzUjyqM+LVVzsyv6WZrNbnrYRR2Z36E5n3Ank5+1Pofvh5G6OqRvLL5v/23/zYMCh/84AevfvAHf7DMB74l5Ai4KOmiiy5aPeMZz1jd/OY3H7DNyo0fWYDIaCRP+VHln2HVHD/in5UfqWdVHaaTH1U65aVq5+BQ9f1obKowog8t83t8FUZo47w89rGPXT3oQQ9aPfKRj1zd+973LvuWwHafn295y1tW3/u93zscUeaD0XZm/SUcAsMqT70yrcol5CrzNuzKj5SnkNmExqaMhicwyOh8cF0/ImscAvuIU9/tdP/xH//x5E538HhG2T3taU9bfeVXfuXQLjt2noVeXQtZWblMYRR5CVta3RVGkW7bfsSecR0OPfFkZ09nRdvEj+DKhw7rR3xsakyRyYy8hv/G93hOYTR3TEE+fLftR726FnniZ/7aIK+9cVfln1MY4cvySb82BQ3+bei1c2hVe3Rui9lKXr4vCOwhAtFw7qFpi0kLAufsNOwLJL/yK78yXOLzute9Lu1I9sXOfbfjAQ94wOpe97rX6uu+7utWP/ZjP7a67nWvu+8mn9f2mXC/853vXL3xjW88FTjc8IY3XP3e7/3e6glPeMLqDne4w+p3f/d3V9e4xjVORd5OciZMcv7xP/7Hh550j/NswP7Upz512Pk2zrHzfdzBBGIJJw8BvrSE/UNgmXjvX5mcFxZZYapWrgCAVq26ontnKluhEtfjm9KZrWrRJ/RWI69IcTr+y2eFIfwqjPBlq5RQIW8K+6pzx1d1IFN+dDpKZDu5eNOb3rR61rOetXr2s5+9HYHnuZRP/dRPXT3lKU9Z3eAGN1hdfPHF5zka+5t9E9S3v/3tq0c/+tH7a+RMy/7ZP/tnq0/7tE9b3e1udxvew63a5pniF7ZDIOCd1utd73obTbqpi743dr4/7uM+bnWXu9zlEJZsPyn9U++5bl/rInFB4HQisEy8T2e57mWunvjEJw4ruXHsYy+NXNMoE76rXe1qw26Dna+THFyc8hu/8RvDsUXHgE5yiAn+jW50o+FY6UnOyzZtv/rVr7562MMeNvxZxIjB3TZ1nI+yrn3ta6+e/OQnD0f2PZewXwjw88c97nFDGe2XZduz5h/9o3+0+vzP//zVm9/85tWFF164PcGLpLUQMBbYxk53q2y883355Zev/uk//adtkiP7Xi2oH5kBi6IFgVOEwDLxPkWFuc9ZMTk1KPCencndSR/46xQtIPiZEDeQ+g3Okxge+tCHDu+pumjLzvJJL5cogyc96Umrz/3cz1395//8nyPqvH4qV7uzD3/4w09NGe9LgX7xF3/xSj0yOK4uxtoXW883O0yIzocyseP927/926v73//+51sRH3t+3WjsnW6nXqZuLz+MsdEXx873ta51rdWXfumXHkbEknZBYEFgDxE4Ux3vNLHIaLFbktEif+NdM43H+PjT+HOk96ziI03vmC9ajz87kkwu26bkVit9lcywt0enMxrVSB9PfK1OmMM03muusEevaORXdPKr8g67Krns8pfRw1e+6Zu+afUZn/EZqx/4gR8YxPXKKvSdhKd8/PiP//iwW+yypQc+8IEpDsp6XH7jvMFIyPALH5EGfxbwRboxHY+/TG74kZ2gF77whcPRuDHvafh8z3vecziC6bdTTcKzeq6eTWGU4Rf49GiV3PB9ZRDlEPLiWckNPyK7DRGX8crnJZdcsrrFLW5xTtvSylm+z0Pgxje+8ep973vfcApmLEEZK7esXCJdj4Y/o4cfKfde2xA62iee8JkxLeIynfKBXukM/6z8Gl8mV3wPo8BAuiwEvaXx++c973mD37e00/b9+te//upnfuZnhol3hnEPI1hUZYqWyRMvVHLJ81fxouH114aeH+ETMrlo6/iRNG3A6y+TGza2NP7l97e/+qu/euuT7rF97PLOtwX+97///St9Ww8jbQOerI6L72FEr3y2GMV4tsIIFkLoHb40/1r8xuTKjyrsg5c+aSJdxHvKg3hp2hBxmU1oPYzg6i/jpQd/RgsbM1rY16Phz+ibyJXPzE/YE31MRp/CCD9bWz8SL1QYHZcfwTD+rrDwyv8zDKToYS+PQlZmZ+zaVWEODdDBB0QXmuj8GI723ve+d+V43lEFNrgB9K/+6q/SCrgLO+TzbW9726AzCmauHoWnU3WUDIZC4NvKpKuiSYs/ZLS8vle84zJt+fBwrIr3sssuG3CPSXfLfxq+f8M3fMNQPve9732HCV5UuHHesso3pmf4wZ0stKzc0Htyew2Jieh/+k//afWbv/mbYzNO1edb3epWK7uRbvFWf9py0TZM1ZmsXIDUqxPoVV2LciQ3axvmyqVTyOyVTz9vc5Tt7hXWnD//XWzlNuMM/6pcxE+Vd1WHw4+8d3lUfsRedajSid5rj9ArfHq06F+yfOKrMNLG/c3f/M3KaxanPVz1qlcd8iqfGcYVRtoGoSrTKf+s2rlB6MG/zBa06NeqMt2VH/XkVhhVefFO9y52ukNfPJWB4FTaV3zFVwyX6N3xjncs65p8BL5tnxcyq3Khq8XIBOyP/uiPVl/wBV8w3KuTldn55Ed8Hn5RLoFpPGGeYRT0HvYVDS+ZPXpFm1uHt+1HkX/PCqPAVF6ijxvzTeWFzXOwZ482sKovc9u5yt4zWadkACFozNsgUxqc6gZNR7vQXvayl61++Id/eJDhyGcASp7fkD3KIB/vfve7j1LlcGz3Xe9611Z0vvjFL1791E/91Mq7XN/xHd+R7t5RZFUyK080x6Gqi7HCyb2znIUo04ymweWwmV5y7ah+4zd+Y8Z6auJ0TN/6rd+6+sVf/MX0qB/8YBud0zjjvbomnXpTXUpGLtzHdStkq6P0ZbzqsMUoA9OsjoeM0/B0w+zP//zPr77oi74ozY6yy3xXQ1v5NUG9OqGuwTZ2CTLFFe49uT0/ioFzVYf5QuYnmW1L3OERgC3sW19at7/MNPIjPsSXqjDHj3p9wTp+1NNZtUe9dm4djMiNHZgxFutgdL74ffQvrQ/qC2B3lH40NaZga8+P5vSXU37EB8nNcOhhlPUF0rvY7rA/GTb23cN+NinwG/R2vi0off3Xf30pAr5ZXzCFUTWmwEc/P8rGFGFIr0yrOUOvv+RHFgJanw59u/Aj+WRTZS+b5DPLa2/clflR5MOz1/ejV+P7KYx6cntjCjqjX/N5HKYwqvyIjB5GoaPysV5een7Eh+BU+RG/zuoLe+hU1ln/0+svexil73hjqDortHWCyZb3K93IuITtIPDN3/zNww7lvQ9+g3ROqMquiqejR5uiayhe9apXDb9zO8fek8Rjcek//If/cCJM1lk9//nPX332Z3/2ibB3EyP/7t/9u6tXvOIVm4iYxTtVb2YJPWCq5Fbxc/UsfNtB4HwrF/nNxg5VPJTPN4y241nrS9klvpXsKn59q7efcsqmit7GG+C7SX7b73RP5TjqVex8f8qnfMrKzvcSagTasqtTfoQyh+cj3Pv1aZ28rJOmzdUcnlbGLr5XdlXx69gQ9W6dtOumSSfe6zJn6awS3fnOdx4um1km3RlC8+P8Bu/1D46du93ypFwYw+F34bjzUdwNp0UGK5onJbA1W8E7KfavayffO0nlsm6+lnQLAgsCCwILAkeLgN26TX+ne1OLjansfH/Zl33ZcJLTO+a7Du3x813rW+QvCJxmBK54wWeLOfR7ma997WuHn1naothF1AECJnff9m3fNjS6CyD7hcAmK2r7lZPFmgWBBYEFgQWBBYEFgTECJt12un/yJ39ydbOb3WxMOtLPsZHxjGc8Y7jY1XH3XQfH26vjv7vWvchfEDhtCGx94u3Wxetd73qnDae9yY/fJ7a4cT4HO5i/+7u/O0Dg8r6Xv/zlw98rX/nK4YKjwMZ78YKjxv4ce3/pS1863Az6ute9bniPJ9Jeeumlq//6X/9rfB2ebil+05vedDbO5LpNc5a4fFgQOGEIeG+P3//1X//16i//8i9XL3rRi4Y7GVxE6d0l4Q//8A+vlCvpLKyOgwszX/3qV6/e8IY3DO9DqWfqome82yu9geujH/3oMeuVPuNxJwQ50oY95AsveclLrpTekc83vvGNw8/hsVlQR+3OZH9XYv7wl1//9V8fdLU0bYxLQYWT+lOBbZ7O9+/t4qgju1lQ9r/zO78zkHz+/d///SzZ6rd+67fOxv/e7/3e2c8+uJfFPTf6G3/qWhb4+1/8xV+c/VO/3vGOd5xNyubQ7/UgdU/9WMLuEDC+0s/Hn8s5fb7HPe6xeu5zn7u6wQ1uMIwLjA38dvpb3/rW4bu2yCWWgnewsz+3oEdwB5D21bunxiOXHVxE+/rXv/7sJXnSPfOZzxxkas/wagv505/+6Z8OPmXn+2EPe9jqkY98ZOljoW95LggsCOwHAls/am41rupk9iPLJ9sK2MaK50nMiVXa17zmNat//a//9aHMN8H+5V/+5dWDH/zgYVDtN0u/5Eu+ZPVjP/Zjw835Lk3QKRoMuX3zQQ960PDO9ed8zucMt3fr0P7Lf/kvqy//8i9feVde+hve8Iarxz/+8cPt8y7f08n983/+z4ejyfgNurw2YUXZ7diw18n+vb/391bkPuEJTzhUHpbECwL7hIDJ7b/8l/9yZTHv0z/904ff+fbeoNdY/AqBG3tNDH71V3919YAHPGC4F0DdVY/c4fGpn/qpwy27doAMQNWx7/me7xkuGPzCL/zCYTLx2Mc+9uzukJ87+r7v+77hEkJ1i/5f+IVfOHs66ju/8zuHumti4bLChzzkIcN3l558//d//1C/v/u7v3v17Gc/e/VJn/RJw/0ht7/97Ycb62OxV903cWkvSjFodfmhW4HZZJDrBBFZJtj41W93NXzVV33V0EY95jGPGWw3sDXotqiMZ3mFap+8eH1b9Jt//+///bOXXLpgUltucms3z+KRYKLLL/wUIZ80CdcHfOZnfubQJ3jV68///M+HY77/9t/+24HHZO0617nO8MsBf/Znfzb4q0WnT/7kTx4WoC644ILBb/iYPkW9UwfucIc7rH72Z392+EyQyRzfDbkWrywy80mTe+mdevu5n/u5IW5QvvzbKgIu41QGcXmWtkNbZCHQ73RrD4wV+JPFee2e+1IsVhpbuIPn1re+9TmvclkodOeIibyg3eRTJt38jA8q/7vc5S6rH/3RHx3SGJ/QedFFF62ue93rDj7KL120e8tb3nKw0QLSTW9602FD5kd+5EcGvuXfgsCCwP4icEbn0wYdgpC9A6qTQjcAyYIJjM5lCbtBIBr7rNx0EFk8S6yYulTLXxuUp3KtyhRvj6a8Y6V3LJsuNo2DAXvsJI3jpz7T8eQnP3kYuJt8+2kkx58MiB/+8IevfuInfmLoLGOnzs+5CSYRJtM6Szw6sNvc5jbDoEkaE3p515EaMEl3v/vdb7jRUp4tFBiQ/dIv/dKwO2iF2cCrvSVbuZhI8P/xLh8b4KcuSdOGXl2THp2dWZ3qyUXDn9Vh5WLAcL4EGPLP1kfho6yyOgNvf5Xf26XIbseFKeyruhY+YAGH37VhSu4cP2KLetHqY0tMJk2c+QRfM5kNO02k+by8mmhb6DL5tZvj59qEv/N3/s7q3/ybf7NyBwXM/tW/+lfDwprJuwmHcK973WvYqTOB+KEf+qHVox71qMEeA8gIygm/ASj9/twZAhPBLzqQx04DYxMW6YWo99e61rWGeizP+MgwgLZbHpfsqeMm1W4rVY/J8AcfeVSHY/BsAY5/PPCBDxx8xVHTmBQNij/8D292Ekm8fO2bH1X+yVY29+ytfLfXHpErZO3RFEYmLP7Y3IZeXaNLnY8jsnxWH2JiLQ9823fl+03f9E1DufOvn/7pn1497WlPG3xUm65cP+/zPm/1a7/2a8MEi9/xS/5tksauf/Ev/sXKYpO+RtAnkf0P/+E/HPzOQhEf/cRP/MRhQSry4RdeTMQCH/3RzW9+8yAPi0QmWhaU+bAFY/5rEm4CHwtM/BwW6vPll19+lt+HHkb4hKpMp9qjuX4Ei0rnrvxIW288UvkRLPg9P4mfXlT+fnaTj5oAC9/7vd87/Lk82E+JWhTEN95M4GMWdcY3Y/PF2972toMM7Y3TRibYJs7+tMHGJt/1Xd81lJn21CKnhcL73//+gyxjnxvf+MYru+XKmj+xjW/wMbvxX/mVXznwZ/3aVF2rsJe/GNdkdRh2ZFdlOtePom2u2iM2VTqrvCiAqG9ZXqYw4rv4Ml46YZHRpvLSw4jN6nVWppvI7WGknpCd4TuFUU9uD6NdtUdTGOlfsnzCvZeXXn/Zw+iMgUYbNDYAiBW/MZ0izj5uUMZ0g5msYRunWT7PR0BhfvzHf/wwQGylaLiz8pSOYxk8Zw2YhoRjRic+lksf3qq8+YoGw4C3DXjHu0MuA9FhGJRY4fXbymQ7yunCkhe84AXDDhc5joAaDP37f//vh11uO1Kf8AmfMDRoBh52ztDsmLHdUVODJnb6mQ0DFT7s1k8DpLvd7W6r+9znPsOAhV0GT/Aiw6TA6rPB+HOe85zB78UbZHuXy6SeDNjpLNUBv39tVyQCmfCLiUbEe6oTaFm9iM4sq2t4HS2zC5kFcg3EorEap1Eu9MWgc0zzmQ+dL5NvnSD/zHwUhlmdUcbqBXyzgK+qE3yar1QTczuydi+y0JOLxk+yTp0fhQ9mcmMyO6bJo51sHYsJAN+3Y+K7AaqnBSk67cx8y7d8y+rCCy8cJhhOl9iNs9PDR004+JOTIOy75z3vOfilwaDw4z/+40NbYAApzS1ucYthYjL2z2c961lDWhMiPm9ybmBrgCtvdGpP+K6dIfizzemXm9zkJsMkRzr6/VmUkw9twO1ud7tBtn/qhbanCuq4XygwkTJYdmzYd+2cQEdb53y3u9n60jr95VH7Ef+Ee+ZHvb5A3g3+er5btXObjCkshJgIZfZO1TV1PtpYPn7xxRcPC0UWi5761KcO9ZRPi6fDBMYxXr9b7ESTU1bK1gLM3e9+9+FUiHT6BhOxaNMvueSSYcHKySj+SqeFXH2MyZGTVvooebFTKeBV38ZtP7lkCPj1QybmysUCsPokT/qzsQ/ySW2OfPkbhymM5rZH5M4ZU7BNWzbHj6Isx5hFXo0D+FlVn7RTFuKzdnncX8JXeSof7d94cZAuJ3IshpgAG4c4RaF8TKqdjFAOj3vc41Z3utOdzk608Y0XREy0vTag/XSiwnjHKQYy+JzJ/Ld/+7cPJytsVuiH5Es7ahwjaAcFfqCdMz6yOKkt5KNtWyTtFEbKJRtTGOtYaFW/x202mREsGvXKtCqXnh9pc/VDVT+s3Ho6+UnWbmziRxY8yM18cOxHgUs8NxlTkGHSnZVpDyPtAnwr7HtjCjq1Vxm+c/2IzB5G6Jv4UTXu6mFEJ3qWTzT4zekve9jn29a0LWFBYMsI2D12K7uOxcqsAYrj3o5fmZBb7bUrddHBrrQdBoML74RagX7Sk560clRVeOhDHzrsSjg2qqIZUOlQdUAqiUmxDsgAXofmqJ7K/Bu/8RtnV639xrz3ojQ8Jv06Wfp1sgY8KppjtXb3HD/VibLDhIEOti1hQeAkI2AiawBo0GjgZkBpp0+n6p1Ggzz1ywTYoN+EGU16nx1BN7k14DN4jN0/O9r3ve99hyOY+MhW5wWLb+qQ4+3qIFlOkNhVlNYE13cLaiY+JsgWB8Srk3YjTXjoNFlin7pN9zgYPFvQIz90o7M/G4iNeS1AqPsmZtoUr7TY5dJGyIu8Gdwu4WQhoM9xWuGf/JN/cnbyKwcmWU5yeN3CrraJr37KgqsJt/6Dn+uj+I/TTybh+gs+5o4E94x4V1tfwecMuixW8dXLDl5rcAz9T/7kT4bJl8mavsQpERMKExr+7ZiySYZJPx4LAOqIBR39ocVqi9Em8sd5udfJKvX1rdWWPOTgSLmJgXGJSbcy9plv2J2248xHtH3aAOMT7Yk2y3dtpkV6wQbB+H4Ig3u//S04aWNCrZ1xVN2k3Pv9gsUWrzJY+LML57i5toi/aI+MhbS3xlPRluH9wR/8wSHO6Quv6lgYWMKCwILA/iGwtxNvHZdGJp5j6LK4MV3npRHthSkZFe9cvkre+RYPP4NX7zV96Zd+6dBx2MWyqm9VzjFXgxsTaUf1PuMzPmNY2TUhNuCx+2SlWEfnPTkDIAMeK7w6TB2RNNK6jEbHxxcMmuwW0B/BSr9V8Kc85SnDrpgVTJ2Z3W/BQDs6Nu+6+tkOq5YmKP7O52B3M1bcjwKHpd5tH2W7LXzfYNAEwMDeBJjP2wVUvt43NBEwAbBwZQXcxMJiGbq6ikc6i1gmGgagdkZMXi46WETz2URZu2xA+cQnPnGYyKjjjmM6Guk4pwU1O0a3+/DutF0fO4X0kG03yGDSINNnA2HtBR1tsDhGpkk5eyMY/MYufMS1TztNJt8m/+N+xC6JHftl0t0idnK+8yOTKBPqaFP4kYmwYNJjQdfCkouvYofJok+cZuIDfNArFfoFE2cTd/1DvH5h7GJBOI4v2oXWZzhN4e4EwatSFojJYos7CJz0sOgl7dd+7dcOC03qmMmZ/jJ2bgYBy7+tIqBvN7n1LreFdQuIJsYWYGKXjkJpTGyVi3IWLE4qV5PtCBbrtFNZ0MY6YUePBUQXwZIbgT94n9+Fk8Yw/Is/WDi698E75HyF/ghOERrzWPixc25Tw2KNhYMlLAgsCOwXAv3Z6RHaanDnvZhHPOIRg1adm0bMbocB2Tho0EzITLzaYHDnWLIjXhoix7sMEjWmVirthBiQWTG0g2r1UCdnEqaTtaLsPUd0q5BWm3WGZGr4XJrhSLRJnfdvNKAaRx2iQafG0EUXdkh1zCaTGmc62GGSKY3V93FD2+bjJH3XSRwmwMDAHn6wtdIfxzoNVGBmV8BFSZ46PbvQBtNW+pWrsnC7p+A9OuXkqKqy40v/7t/9u+FdckdFDYbsWtiBiGNmykBnZ5Bt980kW/A0kUCPAbqdc4sFBuPiDahMFs63oC4ZoPJ1Ey27pRYrDFjsTJogWVDx/qH31LwX29ZdAxlxBgp2B5QpP1Bf+ES8IxnYag8MXkz8lJd6s4TtIODWZXjasfNZ+Wrn7EprF7V1gsUp9dIRWQtT3j00oHNMVn0xgTahVqaCiYv20+TFpFtQrtpKR9DVJ4NKR+cMKH0X1EP1XP22w+h1kTiiGxNgtjipYodQHbTwZjFAe+DIubbWRDuO+/JJ7bIbhwWT55hADRHFP+21dinet2W73Xb+q61awslEQHsVfbKFJmMAfYXjwtoui0UR1AvtUhuMS/iBxV5BPXCyyvFifY3+UB8SC0b80i4638MTGwPSmXj5sxDgtIlxj8vTHDmPwPftvjqZRQYfZ5tFq+ijIu3yrBHIjgaPUysPbYP2iE/A22tr2jW4O/0mWLyxEGKcYVwQIXa6fScr2qygexo/kM33PPmIds9i/0MOdtu1d/EqghNJ9z6YZJOlj9VPCvzEmCiCBRltkrGUP2MgMrSJjohvY6GQzy5hQWBBYDsI7M3E23E+Az8DKkdr4mdiTKB1OibOEQzcdXBWHWPChGYQbyBpl8PAznEe7yXqpMiJRtL7vSZ/GjsTO/FWLK18m5jZCfL+ogbWJF/QOH7d133doMN3kwS6dYIGZdIaqGpYHSsTrEqK1+CzS0Ntcq9BnuoEBgEn5J/BtUGHQXUMtCvTAysDFZgYJNtJM3i38KJcBKvBFjC842k3zoAocA3ZsLYC7MImHZPyd9zKZE2cTlSZKks+oGPUkZoUmhxa1LHDYfAVk3hlatBOpwmIMjPps2Nukq4DMknREZ9vwTE7HbyBAFxjp0YZWu03iDBQdSLBAFI6k2XlZBJuou3YnsmMMneKwfFiA16+oE4bUJjYqZN8RVlY2FL+6qLJkMHJEs5FgO+6CM2uR+zUnZvqIzF23CxkaaOUhcF/LHxaNBQMDtUBg05lqQ5aeKLDBEZQd9S/2DU0EdZ+W8xUdhZJtQvaT5NlC458Qpp419rkw0BT2ZpcayMtuKBLa8eRX/CViw52uE2U9BXaZX7i1IugXhooW2CNwD5+ZvKjb9CurBPsRBlgC3R4/1e+l3AyEdAeqSP8124m37Y76LOj4voEdSCCE1fR/0ecp3ZQm2diw78vOzgW7nUGfYxjvsYSdrK9B8z3xalD+iQTZTuo2kdx/FG/5xUrfYwFrDiOTJfxhTR8nR+r39pGnx05X8J6COhXlLUJbxW0MU7ZeNfT4p92TLto3KANiqBMnPhSbuMJ8PgdbhsBylefyO8EbZqFSxswfFA7ZTyhX/TeMD/y2gM7TKDJ0KbSZ7Hb4qfvdLLHGNICpVcn4r1vevitdlOcMYzxT2w4oM8J+opxXufIWHgWBBYErkAgnXir6FXo0SqedeI1KjocDY5BnlVHE2NPOw3jwAYDS+ntrEQwWSLHsWUDLQMlDZr3cex24rP6rNPSqJnsa2gN1qwe26kxCZPWRFLjpeEyUDTwGgfpydWRW/0mQyNq8meiJm5G+dgAAEAASURBVOhITSYMOO3MmIgLFhE0ykcdqrKr4tnXowVdpwAPZeIUgsFKtqukA4KV4IioAb8Buw4JDf6e/kIvHzDJiwl90G53cBzVUUC7WRZXvA9nQKSDsDJ874OVYv5hx1sHZzecfRZa+IWdB52wFWErxib+6FaH+Y90ytaurskiP+IXJpUG+TExGTJznvwz+YVxFUymnSqJ43XKbZzegFHdsLBlEmTAayChPsLfAAHdhM57wPA30TJRMlm3WGMgexJC+O+2ba3kilc3nEQwyDIY026pJ1Uw0dUOwdmfS8iUoWBiYYFT3Tb59EsEdloM/LWzyskimUGpts07iAaMFx1Mih1f9z6rSYa2W5tg0m4wq+ztJpucGMhpfyPYbTfw9LTjZzJkQuJES7QL6p6FL7LEGYCyXeAjLkp0lJgt40Ae39FGs3cqkGFgG4t98LWQa4HoMKEqr8PIOElpq/xW8fLWo20z7/oF7ZPFQYvEAj+0eKusTZYFt4Xrzy3Mhm3jG6tNsLRdFnH5efyspLGD0xgmZfoYwWd69Sn6DP6qTeOfFnIdQdfv+G6DwTFzdcC7wzYWtH14ndJTry3u2zhQB9edeEceBoO2/K+SXcVvWf3a4owfHPN3/NpCSJT1WID+ycKjBUGvxhgDGq9EG2VMY9Feu2c33BhSexJB+xBB2emvtJkRtFcm4k5ValPdRaOd0Q57xcYutfGjsYp2XJyFUbaYRHsa8/AhC5TGT9rs8aQ7dDk5ZCHJe+T853w9pTPHD+fwBO779lwnL+ukafM1h6eVsYvvlV1V/Do2qLfbDlc5qLxblWpnWcOm0ThMiAsrdGYm33Y3YvXYwM1ETaMl6BQ1nN7l1XGaEEXQoMVEycDfcWWr0QaBVrgNpOyoGCiaEEtjEmDwT368Y6zT1Wji1zBqsA34DBzp1cFatVQoGmcDVXb4TgfbdboaWXI0gBpIEwq7PhrQOcGRaQNXnXYb7DAd9dGzWHAweXbKwKKCjsHiCWxNnL37ZmfqNAe7v3bbrYLDZBtBY8G37CZboNhWUFbxioWdl3WDI5AmPFlgn7pjASSCCRFfEAws7V4baFrhV28NWtUbQb1R79Uzg06nXi4+2HF0FJlPWURRZ9S7wwSLX/xPHTZQGQf2aS/GxzrH9F18ptNk0rvKgc029Shbk2dtpsVCeCprWHpVwmLhEraPgAUIx+mrm1G3rXHXflTZq75YgNuF71Y6Lc45wdAuflfpI95E1eRGe6w+nObgtQ078NrUtp3r5fu4/Mjk1gLbUfqRE5U2Ukxu9Tcm1k4hhF/pZ8Qdto/p4XvcNK9F6kstCm1rXJLliR9Z2DDOO8oyNd/Qfx+lTgs02pZ2cTfDZZtxTr6su9i2Db3qhRM9FofUl6MI4UfGR9sc807ZbsPWAuhR5PNgY+kqZzhQG2IVzyCuDRwcIBlfm/Yw3w1aTHxVJIVtgE6PyQedY0Acu3I00Y6OiZ1Ju6DDsdOJx82zViTtfCtEPz9Djk7c5N4E2oqgxsIOXci38m112QRZo8wOK5xBjzxZFTdpYHe802iyrqM3AW+xM9mPY9QhY85T3rz76FhbG+wgxc5wS9vVd5j60wixTfC00+WmYcftIn5XNuyDXP6h0fDX1g27hvwhw6FX16T3Rx65beB/aJlcOvHEoGLMm8ka0+d8psegz8Tb4Hwc6DNxFuSXj6pndk29K8xWi0kWqQS7Beqd+mQ3KY4nSwPnLL8DY/JPWpNv7QI944Bm92ob9XIst/eZTgty2rq2TenxHYam3bQjZoBpB82xbCdBnEo5ieGwZX5ceVTH27qvbez1l+pwNYDr1eGo13jJb8OUXPxZO0AWvNv+i3y+66/Syd457dwURmyFa+R5nNd1MBqnP62flaWF96yd6+X5KNqjTL/Ji1NOu2oDM53i6ONvnsaBJhUWJG1Y6F+8Qniagk2gqCPqkHzrg9t2KvJcjSnUa+NL/pLVw2hLqrZhk/ZIeVX2sgdNmjbId9XO9cZdUxiRmbX19JNbYTTVzvUwIhvGGQ7a7B5GPbk9jOQz8IXJOExhVPkRGT3sw4/kMz6P9U7lBU/mn1MYVfmku4dRLy8wwpv17wf+c+7kOpwno8kAekYbAzTnsxU5g0PHuEwuHbPyzpNjkxEcw7EiqZPhbAb5jv86AmhA7+iw1XGTcRm3M+4iNBNiO+FWvh1ftwtuJ9quN1kKizw2xCUadmwdFRcUzDi4PMWxRpNzO512tE3WvXPjL0I4gd0+RyYNhiMu0hzmKU/ecx0ffQt+l2rYNcxCz2GnGgSYmChlgS+Q7Xiwo/ns42hWjxxjNXESd1SBP9iZ1anagWfHUYXwkbZuwEeZZw2J+iS0PGObyc3o5IoPvWOeXh0ep1v3szLkJ1PBZJr/W/QS8Dm2HxNv+YWDhTD11fE5jZOB2DgfXgVQV+wkOsJnwcxuu7I9TKDfoOrXD479ZeGyg/fqLjo4Hp2FXp3p1Qn5qcqFHsdQvSKRhZ7cnj1wlVd61Tuv4EQnBDf1c+4pm8zObcR5JcVxdq8YWLBhv0UCr34I2uXbHRyVd9JIsMjpPU0D9n0LUUfbejrVX0YdzvLDj5RhK3OcNvSO43yekqs9yvohdTz8qJXpO309nVU712uPpjAiEwaZvetglOVjkzj4wAkOFu6dzvM6k3wIYaeFfQNIrylZeM/67E3sGPOyR9+ftXMwqsqFjF20R+yBRzZRoNNx++sfnJzIQq+d40dCVSd6vNp640N9jcVW/YpXZ9Qxk0pjBSfXDhuMI7XndvAj8BH3BTixFSH8g6+wwbgx4sJnyNIGGtNq57LL/ULeOk++px8VYKZcon/K+KPd4NvjYNztNQd9doW99L22oeLr1eGoaxUvfcrPXxvkBa6B7ZgeuGdypzAiD1/GO9XO0ZvxsS2wH9s5/lz1BT2M0ISezgqj0J3hN4VR5KX1IzJhVOUldB61H7Enyyd7ov3M6HDwl+EL+6qunTvrjpwf8VMD4f0aFdvEOI6Pxw2PzPHuoIGaXWwBWAaYLrzx0y92xsRFcLzUDrrdaYNvP0GlY3Ic2CTVYE8DbPJssuAdK+9hqRyOchsExzuqJpCcQZzgaLrJvCP13gPWuLHN6mlMgK02msSzyxEmDa0OZ3yBS9h6mKeCzkI0JhWNw2cOIp7MrJPkPD25eNEdifYuESydNoC5UNma2Tg3zsDdhFvZw96iiMUXHbuOzHtQWQMwV9/5yMfPDQimgjIwgBkveIwvuuJPFtPUKws0jk5FA8VX1COLWHRpD/zZlXZcTjzexz72sVNmXIlOfhUq3xZf0cjq0dQJIatP4nu8PRq5VSeJJp/qtwsJvZ7g3VWTVTjHe6j0H3fQKStHbainI6AGvtpoF0+ZeOsPvJLgWL5XBbymYwIebaf7ObSrS1gQOGoE9HXuFTE2Ue+MR4xZtF/GL+qdhUMnd7yqZtLNv/m6YDJ2UbHYt4u8RHs0HhuN9fTanCka2YcdU9DdkxsyM3uDL9MJf7zZDhOdXtNz+sl72vH+vPgIJs82ebRBhwk2XNwb4QSmI6vGGtpiY0FHvPVb+jWLxtpl7Z+2zMKj/JhgW7A2GXd60nF4p6K09V4NEs92vnXY4G4O/cGmYRk/bYrgwr8g8BEE9mbibWfLyrEVAgMqjZXjmL77bBdHh2aFedzoGrg7mm5SHQMxDa9dHivOVji9MyqdFTvvlmoQXXiiM7QL7bISE0a6vA9p0Ocyijj6Ci4NqsbVsXVBI2on3a3YduhN1DWg+BzrdAmQ1UqTBoNeO/KOxzsi7mIODfI6l/wMyvb8n2Ot8NaZjH+6ojfh2WaWDHx0MMrdIMe7MAb1BunK2c730nFshrj3huMkSE8SnN2qauAZwe72OKgvfN+AwOkNC2BeH7FYY7JqEU1dskvuFli/lUuuxSv3KiwhR8BAFUbayew25pzr6GO1u15L0KZqJ50G0ka6RdhPM8Xxf+9LG3BaOEMzaHUngXpt4r2EBYHjQIB/OqnjNbcq3Pvg1RZ10SVYFuj5b3ahV8W/xG8fAeM+bU91es9400k5Y7Pe7eetZRYMjQUt+uurTJiNfS6++OLhlUb6TKSNP+OitlaGBQM3qBvfugRSH7rpjreFCBf6sm0JCwILAvuDwN5MvDV2MTmyS50FK81ZMPGzsxnBMR27bHEs1eqmP0GDGBMIEzU70BEfP4EUdgyED/9zy6QjWXbIyZDGanYc44m0jsfbwREsFrSy/LZt+w5s8J7UJwz8tulxBSvE3ss3+Xck2QKOXff73e9+wwpytnJ+XLaeVL1xj8KU/X41wABmHEymIli1N+lWh0ywBa9zOOIXO+OxC+51EOnHOxh+imUJOQIGWhYz2jYnT318sd7fd9GlgapXi253cJzcYhm7nThyskk+HI93tNxipQVUN/xKb0KuzV/CgsBxIaD9qoIdTWMFu5naQwvSTso5EaaO2jiIXw+oZCzx20XAhNtJx95YQLm5m8ZYz6JvvC41ZYm+Ufukn1PuLrR0YS99Fv0F/qLsq8A/LOY4DSGdzSSL0OEnFrIPc+mbibx+1SJ32x9XNvTibUotYUFgQWA7COzNxHubg0VHvKsw1pN9HseNZYiPS5giTa8RxxvpxnKWz7tBwPv2jnxZYLHrftHBUT6XuzkJsYTNEZjy9dCQdfJRbyKNp7phAiYYiMake4g4+DemR9xJeh5X3T8uvYcpGwNLg1IDVq8JWWDx+oCBp5/BccpB8OsRdgsd/bRr49i8HfJl0n0YtJe020bAceXeLyGYMPFjk5V2gq5+Vq+gbNvORd5HELCA6zScXeSpYJfYrrNd6nWC1w4cB7eJ47SRV2VMvMdl7/W38SmwVq4+Urtn8t8Gfe9hfUbbqr2Mn81rZR72u5MbFi+WsCCwILA5AmeqlSyNRkYTr/PIaJubs0hYBwEr6Rn+BrRZfMjEN+4MIh7f3PK2suov05tdRhA6t/10O7bXBuycWnhxpMs7+y7PO6oAR6HFQn2BUTYpivJoeciJ9OQquzZEPYx0Yzq5lT8cZbmMbTquzxXGBjQVRlVZRh4C+/jePqu6Ftijh44xb08uWsVX5ZFs+Qz6WNdxfXbE3CsDdrUtlLnkyAkVu03u2jBoFeDjXX91w+KM4/Peq61OPh1XfuiFLzvbeix+qkxbnnE+Kv+MhbDKH3o6ydceZf4nLvIytiM+o/V0Vu0c/kruFEb0wSizl9wKo6hr0mwz+Okurz1UAfYmUF5V894w+wUnd9w7Y3d0FwGOQuZPYUOrd1M/Ijf0jmXvyo9CV5bHdf1obGd8xht+dP2Du2Hc2+MVl+zUYvCMn6Fb3BOf+MSBFLb64nUrJ7l6wSsMxjHutIjyshMur16HXDe4zNSp0cc85jHn+ELYmeFHfrQbnm0YY9TSwo9gGLaP04Tccdz4c8+PpKvsZRNeettAZ0WLssnkTmGkjZPfyPNYbw+jsDHTScY6GGW8m8jtYaT9lB/5Dbwir1MYRV4829DDKDCd60f45mCEL8tn2I4WOEecpzj5yXT2MDpDYBXm0ip5S/x2EAgnaaWJrxowadH9VWFOeUfDlvFGJar0bSuebu/Ve0fYYMdk2063I36Oeuk8d22LBkZF85dhAadeyHhCJlrFX8XTVdmSNYY9204LrcU4fAKGsMpCyzNO06NVdS300FmVXU9uxRN2ZbzRgYbuSHtcT8fFvdvvN2YFu0sGm37i0W6iAD+vjQhxp4fXWew0ej/8KBfUBiPW+KdsMvyxVvFTtMqPYlI5148quZHNzN5oj3o65/hnTycaW8mt/LfKy67aOf7nHe5eYJPXYlya5bOgvTGhm8KoJ7dHC3yyskPL4s9HP6r8IjCCk5M4D3nIQ4ZLfh0fj76iwt8lkN71Vtb8w6Q32i08NgHidcdKBr12tsc+474hx8XXDb9+cHmw/LG9V2cyXwgdPf8MjCJtPAMfciv+ns6qDof8jDfaI7SoY5E+npUtQc/kTtHC1oq3wmhKLnolE21XciuM6BPQK3x79lZyyazychx+FPb08hllLm0WejhktDPZsb24uTu7hIIBjpx4/24Jx4OAxjkrNw19dfOl97DxjTuDsN5qDafLeFUQvFV5a/xUlsyeqLihZ1dPPwnivX0rym4WjWPL3iM1qGd/dtx5m/bIq0EMPFos/L48bKNRGevt1TXpyBu/4zzmJZcuadqgjtJX8bbpT/P3wKctF3mGUeb36oNdq4wHH+yrOtGra3iFqlx6ctG0yTFYvkLSFf/Zqm3O8iKFfAYOY77j+KwjUk8d/fT+trs1TLqf+tSnDr/dDnM/+2iS7TZzE3C74l/zNV9z9tchXFTlxvt9CbCFfesv/Egdr3ylV978SHvdO2Y6x4/IxTfXj3o65T/zs147NzWmgBFsM3vXwWibPqKeOXHhIqyp4K4XpzRiN0QeHEfO8JmStQ49+pfWB/UFsNuFH80ZU8hLr2+K8o78jPO+iR/hVQYZDhlGt73tbYfXYSzoW7yvgh1ml+f6uTL3l6jzH/jAB4bxyNd+7dcOP4np6LfJeC/wC5P8sc/wb+3kOuEBD3jAMNbRLtp0kNc2rFPXqjq8zpii1zZUbaA89vxIf9H6dOSLj2TzFPRd+ZH6TGemt4fRJmMK+dEXZDiwp4dRr49Bq8YUdPLJLJ9T8wJyT5IfaR+zfMKgh1Fv3NXDKH3HG0PVOaAt4XQhcNLL1C3xggG6TvDmN7/52QLS8S1hQeCoETjqOnXU+jbB0wBCPTWxNhh2NDPef/RzOo6h2y30c2I6Pe9+q9uRxg5Qe1P+JvYsvNtDgB9mY4cqnuaT5LsmFuv8NJ+FXjfyf/qnf/qVwHVSoxrgXSnhFr8cB77HoXMKsimbMroLdO1AuzTXnRPZ4o8Jb7RNYYN2LeSZAMdP4AY9e5JhIdIrc+MQFwCP49rPLmFjWyxGZnWw5TnMdzv2frEnm8wfRs5Rp40yOGq9+6JvV/nfldxNcduFXduuS/KYTrw3ybyM78LQTWw6TbxW+HbhXKcBIx1X2wGehnwteVgQOG0IXHjhhUOWDOTawVzcXG+CEpOUtl6v85vypw2zJT/7gcCnfMqnTBpicamddGNysmMJJwsBE04XQLo0Ldv5btsmuYt2K3JqR3wqWNRpJ914rn/wznkvmPjbaT3Me+A9eRktO32QpVviFgQWBKYR+KjpJIdLYRC1/Nbu4TA7TGq3Y8Zt0IfhW9IuCCwILAgsCCwILAgsCCwIrI+AY7x+IszPhX3mZ35m+Q7z+hK3l9KvQZgU73LSvT1rF0kLAgsCENj6xNtvrGqo9vHm2dNQ5H7n8Q4f/m3I05CfJQ8LAgsCCwILAgsCCwILAvuMwK1vfeuVy8vsfO9DsNPtV1y8krPrEPcU7FrPIn9B4HxA4Ex7bLk9Jt7Sx6C0NLwm3b/zO78z3FL7vOc9r7xUZixn+TyNAKwf97jHDbf5Xu961+seN8/KJTS0tIiPZ49e0cS3tNaPQv5pfkaex1iM48bxcAhaYNKjV7Q2vpVb0enOaGHLaXoGzm1+I15eW9r4+/iztMHXxo9pPs+h4xNa3tCZ0QaG0b8e7yjZ8nHLCMC9xX6soqVFmbbxeILm8xw6PqHlDbniW9oVHB/539KDtyd3ipbRP6LxXHuDltnbswffmB5yzofnuNwCgwy/FqMx3xinLD7kSpfRe/w93qBl9gYtZLd6x9/HnyO955Tcii9k2Pl2x4Sd7xe+8IXpZbWRdpdPY0G22ulubYZTxMUzbBl/H39GD3zbeLTx73hn9OCVtqUHrY2XdkzL6NJEaOnBiz6HFjzxDD3jZ0UT39J69rQ2VrxtfGtLj97qGPNmtCl7p+ghv7Up+Np46YOW2TNFD945csmOkPFHXDwjbej0vaW1cS19/H38Gd8ZNwq2gTIJXWyTBfQezW9cupnRzuy97nWvlQsqskspMtm7iIv87EJ2JXObOt/4xjcOl2Zo9K1ufvCDH7ySA4cNFj165eIGviywVejxVjQy6c38yHtun/zJn7zykxinPbg8xTt9sGhxhm/cxtri0MM+fAivGzHbgO7driyg4WFPG9TFm9zkJqs//MM/bEmn7jvf8/NVQuujjujBqPJtGPZorbwAD58dgmyXIN6VU25umG3DlM45fkQnXW3j3+pevs9HALbKNPOJqTLNeFiCT/3dhR+1bVTknE6h8vu4Fbny3V57NHdMwVYYZWOIHkZxw/L54vdRJq0/wajqC9Zpj1p5Y1/ZlR/NaefYJa+V77KVD2V9Yg+jVu6tbnWr1S/90i8NO9/Pec5zAo4jez7wgQ8cbk3/yZ/8yTSv8sjnlVvm+z2M0Hp1eFd+VPWX7BGqMmVPry/dhR+Rqa5FfRsX/GH8aMznM96qrqHz24w+hRF6hR9ahdFx+hGblG0behihVX5ETg8Hunr1pcKITKGHb0Y7k13xH0raCyIo4GwcPeMLA3R4bpP299M//dPDCmE4qcxlV+JrIKTJOldyAdOj6UACBOkjiDP4jp+Yivh4zpUb+YmOK+TF8/LLLx90Zg3flE42j+W6mMPlHje84Q0H56h+GstEtyoXuCsXadrAWdlUlQveSi478Wd0fmTRxersLW95y1btqfr++Mc/flgcgW+LsYrn7oNxmUbme3VNGr6Q1UM0cuf8ZIOy/qzP+qzhN5N7vkjHSQ+XXHLJ6m53u9uQjcxHtSlZPFwM1DIaYbCvaL26Fni2F4pFfE8uGl/I2kG2apOyOkw238vax9C7PDdDALawb32CH6njbXxo65U3P9KWZD9/FPxz/IjcTfyop3NOO8dve2OK6H8yv18Ho/PF76N/aX0NtrDbhR9VY4p12qOj9iM2qaMZDj2MYvFrjKufGoudb31MJjPq6DafxhnqyyMf+chhUh1l3uoQn/UFU3VNe4QvqzMwIjcWtFqdvvfKdIzfmFcdrvzI2BL+FS+/7uncRXvEHu1nNi7rYbTJmAJefCzDYQqjXh/TG1PQGf2az+MQCzuZPdJt6kcZtiG30rmJH+lns/oSOuf0lz2Mzp2FHWjCkFU8RmQTSfHjMOb3+8r+IrgczC5oFsZ8LV2DUTUyPT5yXvnKVw6/59zK9L0nt0fLZI3jXvWqV63s/GdhrlwVfhdhnTKdq9fvaL/85S9f/fEf//Hq9re//Vwxe833/Oc/f/jJo3VuLt2HjChvjbUTKY961KNW3/Zt37YPZm3dhne/+93Db6i+4AUv2LrsKYG7rFOZ7il9BjY6piXsBgH1qeozd6PxZEnlnxU+U767SU4Npvym8mkPMRnI8rlLfDN9+xo3hcMUvc2X33L3M153uctdVkex8+2dbot4P/MzPzNMbKoJZ2vn+fz9sGV62rDaVf53JXdT/HdhV9VvbWLr1i9XmzLGilAWdBwVTfopWm9SGruKrV6FNCXXJDkLZFZype/R6KwcBM0g7rQEiyVPe9rThlcP/uIv/uKcY9gnOZ9W0B3XdtnKT/zET5yorPC/7/iO71g96UlPWv3CL/zC0JGfqAx0jNUWxNH/X/u1X1tVJ0Q6Ik4dyasFfiN2CbtBwGWi1Ur8bjQuUqcQsMN0i1vcYmUR/LSHt7zlLUNeT3s+9y1/Xv9z9NsJsl2O237zN39zOJVo0n0c4RnPeMapGrsdB4aLzgWBQCDd8Q7i8lwQ2BYCLtrzfvr3fd/3rT7+4z9+Fb/VawLYrihlcWM70E3oPbOA5gjSYTrCdXXGQsw73/nO4V37O97xjqs3vOEN5XGnzL59irNw8JjHPGZ4LcSij4v72vIIe6cwmkqnXGLntdIRMg77DNvcf2AQ6vdQTTS93x20w8o8Ten9BOHNb37z1dve9rbVOr9DfJryvuu8vO51r1v9zd/8zdCu7VrXIn99BNR7v/f+5je/eX2mE5rS70t/4zd+4wm1/mSb7eSYne8v+7IvS3/ne9PcmdjbyHn4wx++qajZ/NlrHrOFLYwLAuc5AsvE+zx3gKPKviN/P/zDPzyoc1mcCYCJcXVcyrFYtGyCZgL3Z3/2Z6vP//zPT993feYznzm8v/wt3/It52SP3OpdDhPP7B1tQnQ8r3jFK1Y3utGNhtcTPumTPmkY1KEZ4J3kY7xw8ucuBDvF73rXu1YXXHBBin0PIzvNdpmq93Ne9rKXrX77t397WIBpF0V8Jzu7i8HJAiF7t8xCCHr4kd1tZRTBu0btO/dBO5+e7pz4/u///pWfI3zEIx5xPmV953n9hm/4htWDHvSgnetZFBweAe2De0bc/ny/+93v8AJOAId289nPfvbq/ve//wmw9vSZaFLsZMUP/MAPDDvff/VXf5X2VXNybqdb/3ack+45di88CwILAjUCy8S7xmah7AiBT/u0T1v502FVk7QejVnuCtDZmYS3wTv9jn1+7ud+bksaJncxSWuJdJrcZZN9aU2+HSk7rcGuKMze8Y53rCwsZAFGLvnIcDfp9pdNkMlyC+vFF1887AxeeOGFVxKPzyQ5m3ib0FvcqC6wmfKVKyk6j7989md/9uDb97nPfYbLGs9jKLaW9W//9m8fJnSnuV3YGljHJOh7vud7Vne/+90H3/d6zWkK+sG73vWuqyc84Qllu3ua8rvPefniL/7iszvf23jn2+lAiyr7MOluF8r3uRwW2xYE9h2BM1mFMtA1+agG1+gZn8wGLZu8iDOAznjxBW8GWo9GXshueeOIDH66x8H3ntygZTiEzowWebfabkLRhpAb6cZ0cuM48zjeZ3zB29J8x5dhi4ZPaDEQh8bOwEpchHUwqmwKWzKM2GrClNHoRoNPhhEeu5psbvGVnt74i3zE0+pxlk90NHZlO6R40OjzHId1MGJPllfY4c9okffQO9bpc+Ae6cZ0+tic0eQBPcsnGWiwyHh7GOEjO+N7z3veM7xPjv+xj33s8MrBGMfQ6dkGPJnfSkdGz496GMEcf6ZzCqOQ29rqO1oVwvfm+lHY3MqnE0ZZXpQHGp12/lzS43dZvS/o2Hm1oNHqWL5f0X7yR6d27HQ73vvVX/3Vq0svvTTFHuZTvkJeVmeiTDPco73I/Ej6nk4+Qt+4/oUOtMqPpAk/ynhDZ9gWMj3R6MxoUxihs6vSyaYs0Bl/T3nKU4a7OJy6cTrh2te+9on1ezjwmSc/+cmrhz3sYas/+ZM/GSbdR+1HsBUy/NGUW7R3bfnM9aNo3zI/ggu9kabVGX7UxvuOp+ovw4cquWOdFje1r37n2853tbGQ2TCOs9P93ve+d/jZskxv6MxwkA/4StOWzRRGIbdtjyzueI0LvaWxO+wgH85tCLltvO9oQmurOHnvlduUH7GLTW2gE2/YPaavgxG+jDfwyTCKfFTjrh5G7Av+sa0+9zCSx55ctAqjTf1Ie3RYjCJ9z4967VyLTXyXzx4OUeaVDyrPzI9gjyeroyEzo51xBHEcKIiEIXRMDyWEtkbiNQjOKh4Z6DLf6kQjD5+/Vi46sHs62RqFJn2EcB6NBv42TMllL7vHYQojdHmQzxYLtAojtHBWdrdhCiMYyGeLX+hU4TOM2BiyW142VBih0dnmUTydaAIMW7m+o/fKNJNLnjywKctr0Cq6+ExuYA/3DKMoD2W6Cz/KMGITXbvwI/oy7OEbfuTzOExhVPmRd/q/+Zu/eSgzMhzJu+997zv4SPgF3mwCLf0u/QgGmR+JrzBi01QdrvwofGsXfgTLnh/JJ5wf/OAHr1772teufuu3fmvlUrD3ve9942I+1Gc64ZGFuTSy4CtkA9eeXDxTdGmy0OMLmry6n+KmN73pgN9FF1004Ff5Eb457Rw92ir+Em3P2OZN/YhNIWMsN/wnnmMam+Qz8100ZYbP53HwPeqwJ0zGoYeRdOTy3dZecnsYsZW/+6PjiU984urFL37x6hd/8RdXl1122SBzbEf7GU+bl0jTo8XAGhZt6PHRhScrb3KC10KZBTP3izz3uc8dFhC86iSfbZjCKDDNypSsXn+pXOaMKdjE1kwn2jp+lPknfKq6Ji/kCi2+UxhFXxB+NAgZ/Wsxctu5e1NMVufsfNvpVp4/8iM/MtwdIV/j0MNIOvnDA9+Wt4dRyJ3rR6Gz5V9HLpvDF8d5JSvqcZsXctGP2o+cQqA32rSwlz3RHnm2IfzIM8sL/2yxG8ugT17b0MNIWrb0dGZtNr5d+lFgRc84hA/IZ4vFOn6Ev63f5PcwIhcGWX0JnbAP28JeNPHK8rDt0ZlP+IRPCDlnnxyL0GzQIwMcpLrBtff7bRQY5GU6GS4T1fu35FY6NVI6o+jwzmbkwx/kxeC/DQDDW8ml07HkFnByohHPMEJ/05vetHJ0Nws9jGDPcbJdqHUwspKfhR5GUTGzI9hTGLFXuWVHhHsYaQjw9rDnC8ouC3ZQq7zi85fRN/Ejdhy1H7kobK4f8dvs2PeUHyk32GXY9/yIH5Dd1mG7gU9/+tMHW/g2GY58+n33CHxQ2WRlxh5+mPnnpn7kffZMp3aOTW1ewt4pP9IWZXU4+DM/QuvJRdPeZB1LDyNy3akw9iMXrfnbZdCRXfOa15ylwo4P/OwmHzZoVzJfOaycw6T3ekblR8qm185VNPVkF35ErnYh86NeXwAP+ez5btVfKpO5Ywp1HLaZvT2MsnbuNre5zcrfOsFkf84vIjjR42TJX/7lX66j5kppXv/61w8XXF4pco0v6oq2qmqzd+VH9Gbjrik/0u7O8SN1ScjGXVN9AT7tUdYu88+5/WXWZt/qVrcaFjhvdrObrfyaS2Yve9pgMZQ8/pPJjfRoVV2TRl6y9mgKI3IrP+phRCffG/cx4iL08qIOV35UjSlCrnFgz496/SUZWblMYaQdwpfx9jDaZEzBVjhlc6ceRlPjd+VSYUTncfgRvXP9qGrnehjRZ16a1Re0uf1lD/tzX5ClaQkLAnuOQDYI23OTz0vzdGLf+Z3fubIL8FM/9VOrW97ylsNRz8c//vHDrut5CcqeZVrnq5PIgoGEQXQWDCR0SlUgV/lnAZ/OsAoG2DHIbtOQWwWTrYouH/KTBfmv+KTv5SWTt8TtPwK98ua3Fb3nR/zLO7kvfelLVy95yUvOAWHKj6r61LPnHCVLxF4gcPvb335459slsBbQp4JTYBZrTLqr9nhKxkJfEFgQ2H8Elon3/pfRYmGCgIGNQfYS9hsBkzM/I+fn5Fzc5mTEj/7oj64+8IEPrKxWL2FBYEFgQeC0IOC93ksuuWRYNPL+9RLObwQ+53M+Z/XzP//zqxvc4AbDqa9sQq0fvNOd7jScrrA4vY/BibVqAXYf7V1sWhDYZwSWifc+l85iW4mAIzBL2H8EHCHzm9ptcOTv8z7v89ro5fuCwILAgsCJReAe97jHYLtjt46c+4WNJZzfCNz4xjdeve51r1s961nPGn6Jxc86+jnURz/60au73OUuq7vd7W4rN+8/9KEP3VugstcJ9tbYxbAFgT1H4Mh/Tix7B2nPMVrMWxA47xBY6ulmRb7gtxl+C/eCwElD4Fd/9VeHuxQuuOCCYcfbqxLuKLADvoTjR+C42mSnvq573esOR8jtbjsB5hclLEq768QlbEtYENgFAsfl87vIy2mSeaZ9j05BxXEYR0vi8zjT0mQ08UEbp4/PdinjgoFWbnzP5OIPuZEuZIoXHDsmuw3xLrD3CbP3DXty0bL3EMWTVfHGbmxmE57ga20VL3/y4dnmNb5XGFXYkitU9sgL2ZXcsDf0j+2Gj7+j9CNlGva2ZR4rsxkW8uGvtVV+ehih78qP5CPy0uLLj8RV5Rblwr5xEI9PuVZlKn1Fg90cjML+TG7gG3Wwlc+H5LONj7yQncmVj8Ah9IsTxAftipgr/1emczAKua2todMzKzPx4UcVPeyt8oLP3zjgkb7CKOiZzsgLbNsQfHMwIivqIDnjEN/Rwx/G9Lj8iL0VxpUvkJnx0UlXhRH90mRyxfvL+gJ8U340JbfKI9kVRpv4Ebkw8jcO7OxhhA4/fOwaBzR/GUbBJ32Gr3hpKhp9aNGvSi/gESqM2CpUcns64UBvWzZ4Moy8u+3WdJdjuezpUY961Oq7vuu7htdqXvCCFwwXGeL1l2HETmW6iX/KZxvoE2BEdmAS6bbhR5kvZBiFTjax46j9CO4wYts4hD3iM18JzDIaXn+tn4zlj/3Iq1Z2tvHQF74dOsZ80vR0HpUfGVOxU6gw6vlRDyM0IfMF8YFLhQN74OA5DqGT3LA96Gjk+svkSidNRaMv7A6ZwUNmhVGkzeSGvZUfoatnGb2HUdjV05lhhC/aowzfdeTS2Qb56GEUbXzmDz2M0IQ5fQHenh+Rm2EUfHP86EwUGuFCfA9wrog993/r6C3vuRxXVFrxGW+kPywt7MU//hzyIs4zPgctnpnOSBvPSOsZcZ5TvJE2+ON7PCN+LNfnTG6k7dHIbWWPv48/h86I68mtaHjjL+zbVG7YE8+xXJ/Z4ne8o2EY04PHs7V5TBvz+By09nOkC7pnfA5aPFt9Y1kZz1hWxhtx43ShK+TFM+JbnSFjTI/PFS3TN5bbfg558azkBj3jD51tfiIeT09uRgtZ8RzrH8sb66jSjONDXjwzmrgenb0ZHd9h80JOyMp4yRTG6a6I+YiNwR/xkT6ePbkVLdMX8kLPlN6MjndKZ8s3tqXireSGrHiG7fGM+LGOoMUz0znmi3TxDJrv488tfds6Q1dmb9iS6Qy+eIadwRPPSi56RSMTLQZX0gpjXePPV1A/8r+SK0VFC3nxDGm+R9yY1w3Tf/AHfzAM/J7//OcPfdNtb3vb4Xjxu9/97oE90gd/yIxnxI91BC2eISO+e475xvFjms9TvCGnldHja3XE95CV8Y7TRLrQGd/jGfFjHp8ruT0amfEnXYTQ5XlYuWPekDd+tvRYAHnrW9863KLs1wVavx7zZ/a0MsfpfR7T43Ob5jByTbzufOc7DxNc8jLeiENvdcb3eI5tGceNP4/T+Bzyx/GR3jM+Bz2+xzPiPcfpM7mRtkcby4j0ocuzx5vRxrwhb/wMfZFuTIvPmdweLWTFM9LGM+LJjc9Bi2emM9LGM9J6RpznFG+kDf74Hs+IH8ttP4/T+FzpJDP+xjyhK54tLeIzuZE2o53JfnYlVlWy6/IJcXNn72d2KhpDTJYynVYUVPCMhs+KciXXTaB2SWLVTfo2ZD+rBDS8lVw6YRCrMGOZPYwiHZti9ybiPMmVz6zBha18ZHxTGOHLyoxO+bRyGTvC4iJYmVKuGfZTGJEhHxlvD6N1/KjCKOyu8ooOv8ymKT+qMAqdmR+h9eRu4kewnetH/DazV+evzDN85AUGFa3nR+ovH614yY661KYRz642Hs8u/YjezI+mMOqVdw8j+RGychHfk4uGL2vnenWY3OPyo6r9hFHVzrFXmFOH+R9/yfyoh9FUOwd7MrM2m609P2JPr4+paOtilPUVPT8iF88cP5LPXntUlfcmdTj8ILO3h9FUf9nDSP/k58QO60ds5EtwCl+5znWuw0WGQGeFkQR4svZonf7yOPyo6i97dU0+j8OPjK1gm9UXNDZl7fImfsQXsv70u7/7u4df97jpTW+a+tg67dGu/Khq5+BQYaRMhV7b0PPPyo+mxhQ9e3p1bZP2iG/DPqunPT/aZEwB28yPxE9h1Gvn0KoxBdlVe7SOf1Z+1MOITmGuH1VjiimM8GV1ny09jHrtXA+j9IYqDFXo0YKnl6ZHC/45z13JnWPLwnP8CBylPxylrm0gu46966TZhi3rytg3e6bsPmp7j1rfVP5PI33BeH6p9rDr0eZrPP84Fxz7ZX5c+GR6DfJjYaZv9ULdBIEM+03knTTeXeV/V3L3Ed9d1NN04r2PmV9sWhAYI5Dtfozpy+cFgQWBBYEFgQWBBYEFgQWBBYEFgQWBfUFgmXjvS0ksdhwKgeV3vA8F15J4QWBBYEFgQWBBYEFgQeDQCDztaU8bXk87NOPCsCCwIHAOAsvE+xxIloiTgIB3e5awILAgsCCwILAgsCCwILAgsDsEsvfid6dtkbwgcLoROOPSjnEYn2d3jr89yx/fM1rwZjQ6YrKU0Xtyw76Mb6yzzctYp88ZXfxh5dKJJ55hO1lC5NPnVufY3pZvLK/lIyvSe8Zn8REivqWNdWZyW/74Pn6G7HGczxHfyg2d4zRj3rAx+Me04M1o0sE3sGr1BvbBG3rwhdyWZ0yTPqOHXGkzuvjQ6XOEdXVmvD2dITfjCxobMlvxCBnvOD7SDYkP/oVc8XPkhmzPlj9saeNDZ/C2NsX34JcuQvCSGZ+D5gnf4As5QY/vQY94z5DV2jqm+ZzRe2WKR6h00ovWyg17eryD4IN/Fa/4sRzp43vY4zkO8T3oY5rPEV/plKaliQuM8Gd0aUK2z+MQ8S1fYCdtpGn5KtoYh1Yunik/Ct30jkPIzWQGDU9GD4zIy+jis3z25IadU7zorc4puXiEzKbAJaMFD32hYxB08C++42vtCb54ho7gjWelk7xKbo83bIo0Y7uCVsmNMs1sCjkZbSwXfRzGtJAxpodOcRld/JTOim+KF73l7dkbtEpu5D2zN3joq3Rm9gRfPEOH70LY1Mq8gvqR/2N6tBeoYWsrNziDHt89p3SO5Y/14g09PbktbewjZLQyxY3TtPSevUGjs+Ujdx17pWt5e3LHtDavUzqDntm7idzgbfNBn4Ce6UTrYYQuZPkksye3V6Y9neO8xOcrrPiI74Y9ISfoPZ0hK8MoaORk9JAfeuO7J96wo+UNuegZLfgyuT3aGTfMtSEMcWNoFtB7tEwmOfjc7JfxRgYzWvD2aG6t89eGuGWUTS1w68iN2w9buT2MIi945bcN6FMYuUEyC3grHCpsycFXYRT2VnJ7Ot3qx9YsP5vIxZvJlBeVU1mit+96x8osm7L89OSi4av8iG465/gRnLLQwwhN5T1qP6rKk/09jKbygh92UXa+RwjfzMq8Jxc/elbWQavqcPhRj7dHy2wNnfvmRzDv+VGFEWz5YA+HihZ+FOUHmwjiKozidlE+kWHcK29tYI+P/srenly0CiN+BCO2Rmcb+fSckpvlMfjkB05tiAEK3qNsj6LuVjorjGAw14+iPNu2fgojOoU55S1/4b+DkNG/nlw0f1FubbuPVmE0HqsctR+xic1tYG8Pv2i3Mz5xFe8mftST27OXrb18Rpm1efG9JxetqsPKsfWja1zjGkNc1KEKoymdrW+F3eFH5G7Dj8iLNqjCKNqjHr4VRvJJvvJpA5pQYTTlRxVGU3J72JMJ1yi/sc340Cp7e3LRKozoaP0o9OIT5uqsMNrUj6p2rofRcfkRv+7Vlwqjudif0Qi0IQDLrssPR8/4yHH1ekVDdyV+Ro+Kl9Gm5AKMrRwlC8DJfhYkKkhPJ75whrHsHkaRLsMPrYeRiicfMYEMWZ5TGFXY4u1hpMHjeNXPPfTsZSunzDDsYbSpH/kZjmtd61qylgaD98ymXl5gBHc4ViHzI2l7ctHm+hHf7fmRMovKP7aZH/HbmMSMacq6KjPp3v/+96fYofUw4kd8NMMdr8Bf2NWmiU63jcfT86N16nCFUdiT6ZzCqFfePYzoFLbtR8pTnarqMMx34UfKJsNPHi+//PKBlvnnOhjNqcO9NrKH0aZ+BN8M+03aORhpi7K+AL7CHD8it+ovexjRJ589nVVd69XhKYzYy8ey/r2HUc8X5KVXh9kUeqUdhymM+JJyi78xb68vkG4XftQbU4Rtvbahqt89P5oaU0z50Zz+csqPlBv/zOpTD6NN+gL4RjsYWHuygT9rG7N2Q5qef+7Sj7I6fNe73nWYFCq3bEzBXmGuH1XjrqkxxS78aKov0K7IZ5bXTcZdvfKGLYyyujiFUU/ulB9V/jmFEbmZH8lHDyN0IcNWfC8v2qPKj6b6Am11rx6yJ+t/en1BD6P0RVkMVejRgqeXpkcL/jnPXcmdY8s6PMdhb6WzipePHm0d+jpYVGl6unWGvdDj7fHNoR2lrjn2tTzr2LtOmlbuJt/p6+msaFX8JrZsg3dXdlVyq/ht5KUnI5tUj9P37OrRxjL25fMce+fw7Et+59hR5beKp6NHm2PDPvDMzdNcvh6Om8icwrKSXcVPydslfcqmil7Fr2Mr3oq/iie3R1tH75LmCgTm4DiHZ1/xXicv66Rp8zeHp5Wxi++VXVX8OjZMjXHWkdGmSSfebaLl+4LAgsCCwILAgsCCwILAgsCCwILAgsCCwILAgsA8BJaJ9zzcFq5jRiA79nHMJi3qFwQWBBYEFgQWBBYEFgQWBBYEFgQWBFIElol3CssSue8ILL/jve8ltNi3ILAgsCBwMhHY5GiiHHvfeAkLAhUC4R+b+lklf9vxy+94bxvRRd75jEB6i1TvTHuPFkD20vRowT/nuSu5c2xZh+c47K10VvHy0aOtQ18HiypNT7dLNXr0Hq3SNzf+KHXNtXHMt46966QZy9z0M309nRWtit/Unk35d2VXJVf8cQzipnRW9sK3R5uL/y5khi1zZM/hCX0n8Vnlt4qXxx5tEwzIdWlOFXqnpvBWF/zoe3rhEz/xE1e3vvWt0yRxoVZKPIjsXRjas7dHq3RtI74quyp+GzrnypiyqaJX8evYgTfj/4Iv+ILVta997fTCJnIznnX07SqNS6v2MUzhNEXP8jSHJ5OzD3Hr5GWdNG1e5vC0MnbxvbKril/Hhqkxzjoy2jRn3BLXhjAyo0mLPpfmdrmMd1OdcWtqmxcdEuDcpBerjOM0U3nBl4WevUFjU3YJ2JTOuIGv1fv/2fvPcNu2ok78nz7PfdGijRIECcK5YCCKBAUB4RKkCU0Dik0SvIAC0ihBaEGCt2kyiGDTSiOSJFygG1BQMl5AsbFRSYqSBBQEREDBF783f//rMy91nGecqjHXXnuvnc6s59l7rTVrjBo1vqNGqJFmyM3wE7bCFk/cCqM5uT193eon3azj343cXpoGPv7g0KYbHQS9Mpx6cvHcECluS5HOftsR2+3ZkZscM5IXtpdhIHwPBxj04lUYkYmyuMGjU9w+Owb+xj8y5bMXN+OJ3ssLXoURG9oUo7k0K4wOyo5gflB2FGU/LW/PKozi1txN6rDy7MWjwzbsCL7sLOuk52ylp0/VF4Tzt2l7tElfIB+7saNNsY/yjLrT2lFgxG6+9KUvDd/5nd85BhH+Xe9613Czm91sGmX44he/ODq4wn/ta187yZvenC6ff//3fz9867d+69jXwPlTn/rUcMUrXvGU22//8R//cbzleeowX/3qVx/8BbHJP/7jPx5ufOMbn+bMqwNuvXajLl0ud7nLRbTxk/xLXOISow4mAgIL+bz85S8/3jBPV/0e25va37TeBUanCF/9CDvqtQ09+9zEjuhA557t4mUUeerpVPHoKr8wb4ncCiNh8Su5PZ7ykJ5P5Sus7z/3cz83liWdlCk7a+X35OJVGLF7+G7aHrX9JXnSQ1V/uVs7qvqCSLfFZlTmG/ochB0pQ1i0RN8KI2Hxq7z0eOLCKIs7h1FPLl7PjuRzr+xIHpA0K4wOyo7U/V4+N23nKuzPal8NIqBEfIYTcyFcF/5XoTUUOgqFMiVxKN/KjDBAVYkzvoKQ+Uyu+IwjiydNPLqS3ZI0hRGX7lOiv7xmaUZedHa+T8nvHkZhPOK2aYbcXl7kI5upn8NIvCovPYzgTk86tWUq3+JmcvHkR37b/HjOTpABTit3HexbmaOw1T/p0Rm+LU6BfbweoE13zo7Eq+xI+nRqy9TzCqMobxiEbsIHRaecYS+8+D076tmn+C0+0p2zI3Ey7OkinxVGyoTsylakTSd/rXyYhw0KN6UeRuvYUYYR+aFLpi9dpJvxokzbPJA5h5E0kbg7tSPYb2JHdPK3qR2JW/UFFUbyGHYk/pT8lpeqnQuMpJlhXNU1abBB7U4Wb5t2JE/SbNub3drRHEb7bUfKZr/tyGBTPtt2ubUjfTIn+wUveMHwyU9+ctTzoQ996PCgBz1odGhvcpObDFe4whWG+9///sP5558/vOlNbxqe9KQnDZe61KWGr371q8MjHvGI4Ta3uc3wqEc9anjrW9863OEOdxh+4Rd+YfjBH/zB4ZKXvOTwIz/yI8PDHvaw4XOf+9zw3ve+d/iWb/mW4dd//deHG93oRsP3fu/3jiau/G9605uOzvJrXvOa8dWMMLvf/e43POtZzxrzwQ7vcY97DBe72MWGV73qVeNEwWUuc5nhggsuGB74wAdOq8rwK7/yK8M1rnGN4Y53vOMoV3t0rWtda5wAIEN7+2M/9mMnHe+IDBsTBx/4wAdGHh2yviDqWlamZKlrWV0K7KtxV29MIa50M9vFM4bM2my8GHdlYwp1rRqbRl7IbduykFthNNdfVhhJkz3A3eQKezK54+9973vfcPbZZ4/9i5Xvl73sZafhXLVzgVHVF8iHMPBt2yO/dzrmJS/GcnPt0aZ2tMmYQh7n7KjCaNO+QJmKS668TinsyGdrY8Jt2hdEGtGfxu/4nBt39ewIr8Io7Eib045VNrEj+s5hJE2U2ZG4lX+JJy+b2JH02HWWz5BbYbSpHZ0VGZV4SxkvKjKF/GXU4wmfyY2C7cXN4kX64vX4Wbrr5iWTG3nPeKFTlmbwqnzG80zuHEYRN3SLtOLT80zulN/GncMo0typ3Lm80Clkh37TTysKKkNFEbfNj/Bzuvb4Wfw5jCJOJbenq7ioiut5lscLY+Xx5rCf0wc/0yf0iPihw/QzwrTxI077vI0b8eP5XF6E62EU6bZy1y3T0CP77OUl9MrihU4tj054PblV3MhfFXcOoyzeHEahSxZX3tbJSy9u5GmKU+Qjiyd8YNjGncvLnL7kxd9UH3KrNCNcpmvwyOzxhav4mT5zcsWZ03cuzUqfKt4cRoFBJTf4Bk4f+chHhmc+85nDxS9+8eEtb3nL6LRymjnv0vnbv/3b0Sl+5zvfObz73e8eHvvYxw63vvWtxxXpj33sY2OYf/7nfx55Pg2sHvzgB4/OemDH8ebUWsX+1GoV/M53vvO40o7PQTEAtLr5kpe8ZHSwPXvFK14xPg9shf3oRz86POYxjxm+7du+bXTM6MiRF/7xj3/8cNe73nWcGPjRH/3R4Ra3uMXwfd/3fcNznvOc4Z/+6Z9Gh5vD9pnPfGa41a1uNTzhCU8g8hS67nWvO+rPCQiMTgnQ/KjwrZ6LPicX319FlexKbsjqya14IbNKk44Zb90+Jsuj8kZ2RPzBH/zB+P3JT37yaJvs83u+53vGZ/5N0454VV4i/DTOSUGrLxHP55TWzUsb73a3u91ov2RVaUY6Fb96Lp70Mn7o4TO+RzrTzyxuT27wMrlzGIkjvZ2muW6ZTvM1/R7pTp9FPuKzxWguTfxK7jSdNq9zGIkrTqtPyNwkzYjb6hLP4zPjhx4+43uE9xnPsrjBz3jiBYYhI+T2sK8PQEXs5XNB4BAiYBZ6oQWBBYEFgQWBBQEIWNn+4Ac/OLz4xS8eLnrRiw6///u/P7zxjW8cV5Gf9rSnjdt5rSxzdu5zn/sMnt397ncfn3OWOb2IY/uUpzxleO1rXzvGf/rTnz6uTHNgbe9+/vOfP1zzmtccrne96w2f/exnhyc+8Ynj4EufZBX9Sle60uiIX/WqVx1+8id/cpSZ/XvlK185/NVf/dW4uvPpT396dMzOPffcU4K+/e1vHzhqBnX0snWertKxGk8nK5gf+tCHhl/8xV8cV9E//vGPD7/5m785OuenCFt+HCgCdlk85CEPGe3OZAt7cdbbZIpdFQstCCwInBkI9G8JOTMwWHK5ILAgsCCwILAgsCBwhBGwlfsHfuAHBueiOauf+MQnRofVaqMt5c5F2/5tBdzqo5Vlq9JWjT2P85MuR7PibMs454hzztnmUD/jGc8YtztajfZmDY7xH/3RHw3vec97hjvd6U7jlnUQWhE520fiAABAAElEQVTKVkgCXqvpv/M7vzM6XLaOi8vx//7v//5xK/kNb3jDcdX8zW9+86iHeC5se+pTnzrm0ZbLK1/5yie3gJLHEbdl2Qo8J32hw4GAbbMvfOELx4mgz3/+88Pd7na30S6vcpWrjEcWHv3oR482dTi0XbRYEFgQ2DYCy4r3thFe5G8Fgfa831YSWYQuCCwILAgsCBwJBJzvc37Wmcd73ete4yo1R5kTbEWZw81R/pu/+Zvhnve853CDG9xg/G6VnBN9+9vffly5tl3dJWe2lFtFtjp56UtfetwubHs3mZxx29nF+/KXvzziI3xsN+TUO8NdkRV5q/G2xdNtSmSYREBW5TnoX/jCF8bz6c6en706G3yXu9xlPMMb6Qn7h3/4h+M5xT/7sz8rb1UXbqH9RcCOhHvf+97jLowHPOAB42SOOwF+9md/djyT+uxnP3sst/3VakltQWBB4KAQWBzvg0J+SXdXCBjwXPayl00vjNmV4CXygsCCwILAgsCRRIAj+v73v3+8uZyTbZX7x3/8x0cnWob++q//ejxXbWXZtm23SbscTTwOunN5LlGz0ow40+4SifN6nj384Q/3MYbhtDs3jjjQ4Qj/y7/8y+iYj4zOP863y9ymt6JbaQ/HO84PvuENbxics7VF3mo8B5z++kBpXvva1x7+8i//cvjzP//z4Zxzzhmuc53rdFJdWAeBgK3mJnLClkwUKX/l5ljCYSbv8VYvsov2DrPei24LAocRgdTxtpoYHUirNF5vtdH2qiouWdX2K88rXi9e8Ho6CZMRPXtpklnxPe/ls8frxcWr0qRP72zzXJoVRtVzmK2DUaVTlQ9y8Xrp4m+aH3GrtKvn6+gkTEbrYFSlC4PoiDPZvWdkVhjhVfh6XpWZ9Mjsya3y0kuT3J6+dKrk9jDaTZqRV58tkVvpI+wcr8K+Taf93ZNLZiW3h1GbRvtbmlV5k9vj9fTFq/i9vNCvF7eSKR65Fd/zKi+eV/Hm9MGvaJ18bhq3iuf5pnnpxeulh9fDHq/Cfh2MKr3aNP/u7/5u3Eb+27/92+Mt0uesnNDHPe5x40VlHB/bfjnOLizj7J44cWK42tWuNt6C7sI0280540EuYWtf8RU8K5lWML/ru75rdEicvbbajjhU6zi/2n6OuxvSEYymOL30pS8dnzsLTmdOuq3pbmZ3OZuwVuid+baKHuS38+dwi7/g7eSzwp0MPPhnVD2PsNM8xrP4bMs0nvvcVJ+IW8Wfy0uvv6xkSlM+g28CR1l7ptw53o4EZFhN45HTUg+jNuz0dy+fwuFnZeMuAWlmuk7lV98Dg4zf06nHIyvTNdLo6YtXjbvm0sT3l1Evbi8eWZXMSKfKay8v69jRJmXay2fkpadvxRO3x+thtGl5r5NmhRF9Kn09r/Q9S+PdUhhkJbB3fqnHk44tWM4ntSRNf5WiPbl4dM309Qw/yycd5uRW+sxhpKGOW1LbvM6lWeVlDiM3sHptRUY9jObkzukrfmaYcxjNya2wh4+OwOpFG4Ye3tNqa15W5nNpVth7Lj+ZTHjPyW31jDKaw8hA7iDsqDojKJ8VRvLir8qr1SO3/VoZMmidknhkOwPX0hxGm2IvHwbLWZnO5WUuzQojz9E2ypTckO/7lLS7m6TZw34OI7Yb23CnuvjesyMDUnVYXrKy6WFPJ3zxW+rlJXSqbLeXJj2Pkx3BqcJBvd1rO5rDnh2FPbRlGnZEX5emeR2Y7ducVGemz1k53kibYyWcE01/Nmb1mLNt5TgcC7eUWwEPEsc7l8mP94MHz0Vrtq/bfu4yM86uy7PQP/zDP5zyLu+I035y2oV1RhvB3u3lQRx4TvfLX/7y8fI4euvj2Jv3e3t+9mrruQmDcPrF9d3lb/CRJ3KztiGebVKmgX3ICJ19Su+w2ZExmXLM9N1NXsSt6gsslIVX1n33d3/3aHueIXGM1xxZIEMZTHXrye3xyDAWzNpO6fbiZjzy2J06xPamOpIXpLz32470a5vkk66oykuGQ+TzoOxImRo/tTRX13p5wYNBhoNn8roJvr0018H+sNlRhdE6eUnbhlXE02jVqP/rqoM97bkHq4L411Ujn/I8XG2xKnkYq8qb8ldGtbFc+qwat1Suh6vtYCWvlxe8lQGlcXsYibC6ZTSN52EPo9WkxL+uGpM0rjz29F3N9qfxPOxhJD3pVtRLEw6rQUMaFc9fRnN21EuTvNWNtWWZrwYj/7oafGXJdrHvYUTY6p2oqUwPe2VKrvxmpJ5VGAm/2lKfRRuf9TDajR2tBqPdNNXVjObsaHUJ0b+utktmUUebX71LN+X1MFI/ezjgVXVYYqsbgNM05+par7xhX2EksdVgPk3Tw57c3djRalWsTLOHEdvctC9YOUsl9nMYrd7F/K+ri69SnXsYKbfV5VppvG3a0WpwkqY518718jKH0W7sqOovexjJ4GqyM82nh9uyo9V28bKt77VzpaIzjLa9iN9tnfY7ePBs+cHrJZf19dP6to6Mnny8OYy2YUdzfcFqYF2q3WvndjOm+MpXvlKOrXoY7aYvkMnVZPKY19Y+AoBqbNBrG3oYkbvavh7iT/lkT+JWVPFWW83HcV5mryFrN+OjCps5O/rkJz8ZyZ/22cOo187NYbRalCjHbNu0o9UOltPy6AHspFvRbuzowx/+cCp2DiPYV21Xb0whsU3tCAaVHc1htJqcTPPp4V7bkYmTdL/EKq1xtrKdWfG7x4vwwlTU41Vx1nm+idy5vKzDX0e3LMym+may1n1WpVk9J/egMJhL13u8s1X2dXTu4dXDooo3F6fH7/Gq9OK5uL34Fa96HnJ9rhNmGj6+7yZeFdfzTXi7yUfkZ5PPnr6byIs4Pbk9XsSvPitshd+UF3Gr+HP6VvGqPMTzuXg9/hyvx4/0209xNolHzm7itnrs5Pc29O3lpceb07un62qwdfKm8kzOakCaPR5Xf1bO0MldE7EaZNUPrZyBcdee38HTFwX/bW9723Db2972JG+aiDRXA9KTj6y0T8l5X1uSg0I+fVYDwHh82ie5FRbV89OEbPCgkl09XyeJbcWdk1vxq+fr5iXih32I5yK/973vfaMdZStiEadKY47fi9eLi5fx2TNbzXhVWnv1vJfmHK/iV8/pjNfjz+VrN3HnZGf8nr5zuvTiZmnFs7l4vXR7vJC/yWdPpx5vnbR6Om/CSx3vdRRZwiwIHCQCBiILLQgsCCwILAgsCGQIVNsDI2w4tfF7+rmbuBys6TnxVu70d/s9c8KE6em6Dr9NZ/l9sAiwj9627YPVbkl9QWBBYJsILI73NtFdZC8ILAgsCCwILAgsCCwILAgsCCwILAgsCJzxCCyO9xlvAkcTgGpl4GjmZtF6QWBBYEFgQWBBYEFgQWBBYEFgQeA4I3BWb8tuxnM+ybYnn+3e9tgONT3DNAUvnKVKrrCZ3JCRxYs06ZLx4xwwfqVXlmbIzXj0ibxnaUY+hWv5U7n4U8ILPdt4woX+PZ0yXqRZYeR5pOszo0xu6ISX6RuyerxMbuiLl5EydRbOLbPTc1PCBvbSztIVJns+TTPj78aOyM7ySZceRqFTpnPwMoyCV2EQaVY6ed6Ti5dhNCe3l99IM5MrHsp4vTQDB/Hi+4WSLvyvTMWXdsgJfuQ/40WYTJ9Ih7yMH3ZERsb3PEuTXH+hl3AZZTLFi/y1/NDX8/gecuN3lZfQJdOXDPEy3pzcwEjcVt/Qrfe8ihcYZDr1eKFvFo8+c3YkfhY35GZ5CV6FfWAk/Sx+9Tzk0iejORyC36Y5lRthMvltPGHoIn6GUfCzeJFmhVHksZJLdiY30hQv40f+MrlTnVr5wcviCRtlmvGlWWE0lUvOlIJXYRRpipPltXo+J1d6/rK8iIuXyQ65WTzhq3hTXi+uPMYYQRwU+pCdYRBpVnLJyOJ5Lm4rF+ZkBb8nN+PR11/GI5N8aWb8Xl6m2I/KfeMfefEeb6/jy/K6WzuiayZ3HX0jr1OdpxhNn0+/i7fTNMWna6Zv4FfJFSfiR77GB5N/mT7BruSGLPLje8SJz4w3h1GUKZmhe8iLdCq5wslLYBLx4rf4WV6ndTPjh9yQF59zcnv6koHvr81nyG2fR7o9uT3eWavb/ULGyU+JiVTxBFzdTHcy/PSLuFk8YYAKzIwfGdxErrirmydTo4tGSJoZeOL20nRBSwDY5tPvLC9hPHiZ8fQwwqNnJhcPVfoGtpW+FUZzcvGrNF00Q25P34rXk4uXxZN/ZcrhlnaLb1xWQyf8FoueXDzyxG0pGiE67Zcd0SfqYZtP+s3lJeK2eREPVWUadtTG87uHUU9u8GCX2TfMt2VH7CAj9TR0yexEnAoj+anss4dR2BG5m9gRjFpd6Rn4ZjrhhS1UdlRhNI0rnSlFmhVGUZ4Rro1b1bW4XCriT+P5Tl6WT7yQmfFDj0pf/B6v6gumfUxbNuukmeka+Yz8+D2lsCNxqzLtyZ2zowwHeZmzowqjadxpPnyfw4iu7DP61Wl8cSuM5uTiVxipm+Rm/J5cOuKLH3q3+lYYLXZ0IVLwqzAK7Ktywc9sl2Qy2VHV7npeyRW/kivNLJ44qLWji1zkIuOz0KMnt8erMJqzox5GWV7Iiza5wijqJhw2aY82qcN0DX0CywsRv/A//lw7l5WbeP4q7OGO37b1Uo3nlVxhKrniZvHEQa0dXfh0vv3s5QWvwmhqRy2+4s3J3WRMcRB2NMW2zSdeDyM81CvTjHeWRqClKHyzWy1RjKAsnrBu3qx4+BymjK/wGXTGm5O7ukZ+bBgYSkbA+Xf/7t+dxlJxxO2lKV4Yw1RAD6MIl+GH18MItvIRDmTI8jmHEWy/+Zu/eRrl5PceRnBXqau4PX3pqoJlGPYw2q0diS/Nqsx1FFl+enmBEdzbVfSTIK6+ZHaE35OLt6kdsd2eHcljVP6pnuyI3UaHOeUp66rMhPNO2aw88XoYsSM2WsUVX3nRqw0jrvrYPhenZ0fr1OEKo9Ans5M5jHrl3cNImmiv7SgGlFlepAfzbdiRssnKTJpuWsbL7HMdjNhuJruHvXKr+pEeRru1I/hm2O+mnYORtijrC+CLemWaYScOubDN2s4eRuJuake9OjyHEX1hm+nbw2iuv+zZEZ3IzjCcw4gtKbf4g1tQry8QZht21BtThF57bUdzY4o5O9qkv5yzI+XGjrL61MNoN30BfL17mR15D/YVr3jFEfIYZ8D9U6v3rF/pSleKojj52bPPbdoRjNo2m00jdTAbU4TSm9pR4BFy4nNuTEGfXl+6iR3N9QXaFfnM8rqbcVevvOGhPcnaozmMenLn7IgdZPjOYURuZkfy0cMIH2XYet7Li/a6sqO5vgC2WT4jTfpk/U+vL+hhlJ7xjkom0ZZ6vAjbC9PjRfxNPrcldxNd1olzEPpWaVbP5aPHW4e/DhZVmF7aOtkev8er0tv0+X6mtamO03jr6LtOmKnM3X6XXi/Nilc9360+u42/Lb0qudXz3eZjLn47QJuGp1NPrx5vKmcn37chM9LfRPYmcSK9o/hZ5bd6Lo893lHEYDd52g0WVdzq+V5gW8munu9FmpvKmNOp4lfP19FD3IjveNxlLnOZ4U/+5E9GJ+rLX/7ycOtb33p49rOffZqoiHMa44AecFwOI83hNMfP8rRJnEzOYXi2Tl7WCdPmZZM4rYxt/K70qp6vo0NvjLNO/CzMhS+mzDjLswWBQ4yA93ibpVpoQWBBYEFgQWBBYEFgQeAwI3Cb29xmfM3c9a9//eE7vuM7hpe+9KXjKtpTnvKUw6z2qJv3eFupXGhBYEFg9wikK967F7tIWBDYLgK2fy20ILAgsCCwILAgsCCwIHAUEHjjG984qvmlL31p/PzBH/zB4TrXuc5RUH3RcUFgQWCPEFgc7z0CchFzsAh8/vOfHy644IJRCefHYjX8ne9858mtXger4ZL6gsCCQA+Bz3zmM8O73vWuMci0Dr/97W/vRVt4CwILAgsCRwIBZ7lvdatbnRyTnH/++UdC70XJBYEFgb1DIHW8e3vae7xQqxemx4v4m3xuS+4muqwT5zDpe5h0WQc7YQzMp+TVYj/1Uz81fO/3fu/wsY99bOBwe/arv/qr02Bb+X7U8FtH33XC7DWYvTQrXvV8r3Xbqbz91mu/01sXj53odYUrXGG4053uNDhGwgn/3d/93eGSl7zk8LKXvWzd5LYabid52aoih1h4hVH1XFZ6vEOc1UOnWoVj9XybGTiINOfyM6fTHH9OfsWfyjVuedCDHjQuDNz3vvcdLnvZy6bRpnHSAMvDtRA403HcVv63JXetQu0E2oZeuzkfXql6llviWgrlM56w+JvyXNKwadxevLg1tc2Lm+gA53yKC7lamstLda6lh1Hw6JRtiZ5LM27ga3X1uxd3Dls38PlrKfTt4VvxyJNuduPfbuSK65bCjHReH/nIR4aLXexiJ1e2pf+///f/Hn7oh35oeNzjHncy2k/+5E+eIqeHH16FUeRvv+2I7fbsqMJIXtheVW49HNyS2YtXYUQmquLi0Slun/U7SJrymcWdk9vLC16FETvaFKO5NCuMYsJoUzuq2rkeRngwPwg7crN55DnK2iedlLm/IHXsta997XDTm950+OVf/uXxsZ0rd7/73U+xix72yhP2+21H8M3SlImevnO8qi8ITPfTjuQl6q7PluSlqmt4aBOMojyjDZ6mS26FkXBz+Fb6yF+kO00vZPrM4krPHzukFxlTwqvGFMpUew/DbLC3aV7EqzDarR3JX5tH+ZUmyjDyfM6OKozm5AZG2g1/X/ziF4evf/3rkhw/3Vwcu+HGh9/4F3Iz3AXB34Qn7le+8pXxZnPfke3ll7vc5caL1UwwbiK3p496Ygeg28cz2b24boW+9KUvPd4OHX0NeXYd3fjGNx6fZ2UadtTrY7J48KDPpnaknvXawN3aEf0QDGCjLD/3uc+NNuR3S/KCMtw972Hf44nrMr4Mw22lGXakzmT56ekbPHZxiUtcYrjoRS86lhM5eNW4a1t2FNhn+OFpH3vtbtQFYacU2Fdy8TPeWa58n5KAjNVn9toADSYlXGvfFkYk0soM+fgKM+PLuL9MrvhAyeKRiVe9HgXfX2Y89JfXLE1xAOYa+TCGaT6iIDKMxEXi7gQj8eQlKnmkF5+M1UA101cYHUrGC7kVRmQqV/i2+vYwkibZ8MnKJjrkDKN17EiZBZbSCoo05RVWQTq0O97xjsPv/M7vjPk4++yzhzvf+c6n5Gk3diSdzI48J7fCvrIj8QKjylbkteKRm2EkDrtWLlnnsI4dZeVJrnySmQ1e5uqw/CqvzF7IY2tZujAK3k7sk74VRnTBp09Wbj2MQm6m6xxG+GgbdlRhJE2Y77cdGfDCSNpT6mH0Iz/yI8MtbnGL4R3veMdY5le5ylWGW97ylqfV4azMpMEG2UtWNtu0I3nKdFqnnct0DYzUi6yu4aNN7Egd3qQvkKayzNLEq+oa3qZjCnkkF0bTtt5zcuWlwmiuPRI3w55s5Vbxe/2luOohXek11TkwUg/bOiEevj86te3cbu2IHllfID2UlannFQbi4W3LjiqMor+cG1PYLfPwhz98xJOTC09/kV95m1Lg3eNvwpOGsmvLm07Pec5zRhU2kdvLC6H6r6ntjQl9418vrjJ9//vfP9z//vc/5bb1aIPm7CjrYyQ7Z0fVmEJdk5esbYUbfTLbxdNu9OwIDlld83zqF5D1gQ98YNyp8KnVq9+MK3vYyu82yjSzI2nRF20jzU3tKGxMG8yebnazm42XCYYDrj702qPMjqJMszYbj41VdjTXFyjPzBZCbtXObTqmOKsqrF5BjqXcKei5uFma02fT75HWnMzd8ntpVrxtpCmt+Jvmvf2+qU69eHP5yeKGrhkvdM5402fT7xEndKl4VWPzgAc8YPi93/u9cYLiLW95yyiuldH+nqYZ6bbPpr/b+KFLL644bbypzF7cHm9O7iZpRpz4zPSseBF2U/5O420L+6ke0++Rv16ZRJgq3jr8Xtweb06vKq7nFa+SOQ0//R75i3gVL/jT8L7f+973Hv7gD/5gHFC8+c1vHtmZjOqZ5xUv7CXjhx6b8CJOfIas6WfFq55H3N3wq7ieV7x10u3F3ZQn3SyuZ/EXurWfVbwIl/Hx5p5X/Dm5PT6ZO5U7DT/9HunEZ8XzvOKtEzfCZJ+byiWrijunbxbP4NmKpB0yJ06cGNsQDu5CO0fgt3/7t8cJ0J/5mZ8Z7nrXu54iIMN+GqDiV8/Fxcv402fT79P0In77LH5X8eJ5fEb46CP89v2XfumXhk9+8pPjRMRyEV6gtLNP/fntb3/78X4DE2JwbXFvJVb86nnE34QfceIzZMWn5xnPs7CXjD+NH999nroUMeUs3xcEDjECYeytiv/hP/yH8Vyo92Ne+cpXbtnL7wWBBYFDjsA97nGP4Vu+5VvGAXR1BvKQZ2FRb0FgQWCfEfinf/qn4drXvvbw6Ec/enjWs541bufeZxWOTXL3vOc9h7e+9a3Dq171quE973nPscnXTjPiIjwX4r3yla9cbp/fKXiT8Fa8XX5s3P6MZzxj3IkwYZ9xX5cXIZ9xRX48Mny1q10t3YKpYr/uda8bPvvZz6YzVMcj90suFgR2j8AXvvCF4YMf/OB4Zs0WrWzG1lY/z2Or4TRVW99s4cq2fQpnIPzv//2/P22bJZ4tWlaoqi17Vr3Ry1/+8lP0Ur/FtRUtI1vjbDGUbkt0FT/b4jYn19Ei8ejrDOQP/MAPjHdMtGksvxcEFgQOBoHnPve5w2/91m+NZ6gPRoPjlartwC95yUuGG9zgBuNWa33BmULybsfkzW9+88Gq/0K7R8A44jGPecxwzWtec8T1h3/4h3cv9IhKWBzvI1pwZ7raBtgZea5iO++90ILAgsDpCBhAOZJh+5fPq171qqc4t6fH2OxJ5vyuK2n6yp1140S4b//2b4+ve/YZedG+/OEf/uF4BtIN7E996lP3LI1F0ILAgsDmCHC6/+Iv/mJzAUvM0xD41m/91uGRj3zk8NjHPvbkhZenBTqGD5wb/43f+I3BZM5Ce4vAu9/97nHL+Xvf+96tjDv2VtvtSEsd72zlI5Lv8dYJs078kLOTz23J3YkOOwl7mPQ9TLrsBMMsbHXRThZ2r54dNfzW0XedMHuFHznS66VZ8arne6nbJrL2Wy/pWbWdo7/9278d3PR/n/vcZ1wdmgu/8E9H4A53uMM4EP2f//N/Dv/xP/7HcVX+9FBn5pPK7qvnUOrxzkwUN8t1hWP1fLNU1ou132l6o4l6me1mWU/jJVSFgP7iJje5yXhvTrW7qYp70M83sUNx/vEf/3F8La3dTQvtLQImxr3292tf+9p42/leSt+kvOfSX2dcNSej5Z/lJriKKp7MufWvVchzf1U82zds98vihg4Vr5LrOYrbLkNOfNoaSE9bBW2NbEn8LE3P/cXt5W28+J3lVT4RndqV2ZCbxcOja9zAF2m0n5m+wlTYkousdPW2C1Vyxa948ijdLD9joqt/Fa+S63nwQsb0E75wmurE4f6Hf/iH4QlPeMLJW80Nir1a7FKXutTJciA308dzVGEUW2L3247ks2dHMGhJXsRje1leI/wUv3jmsyrPOYxCRiY34kZ9aPWSpny2z0Omz4pHdpVm8KZy4rsy1SZkcSNMxSM30yfyOWdHWZlKsycXT7weVTrJ55e+9KXhVj/6o8M73/WusU705Cy8eQT+y3/5L+Mrdn78x398cBlRz1Z6vKrMaKBe+Gsp2qNN7Iis3dhRlibb9CefPcryKnzE1W61pC6RG/1q8MVBFUYRrsWeHH/6jKo/1E6pMxVf/IxHp2hXpN+GkSZ9Q/fQ0Wfo1cbBg8tUX7/p55Msfxm2ngtTYbRbO6Jrpi+dUYu9Z3Sie8+OdjLu4mxbPbvuda9L/EJbQOAyl7nMWM7sJbMztouyMvW8Z5/4u7GjbEwmPX87sSN6IHn58z//8+F617vehQ+W/3uOgEsPHUVrJ8oOyo609z072qS/BBobzNrAVVt++qJ3DI6jUZ6irhHHz3jCaeDxJNiSZ4DN4mqI/WW8kJvpGjxyo9Cm6YYuPlv+bvLSwyjyTt/4PtWph1F0yhkOcxhV2M5hJC+wyNKcw0hcemVl08NoTm4PI/n86Ec/OugMzMAy7J/7uZ8b/vqv/3pwudrrX//68dUAv//7vz+ce+65w+Uvf/nhaU972ngmk9xM1zmMAhtx5XdKu8lLDyO242+/7Uia8lvZLvzbugSPOfsUJmS2ZSAume1zcXoY7Qb7yEOUrbSC5vLSs0+8CqNpmoFFpBl5yTAQpie3h5G4OrhXv/rVwxOf9KTF6QbIHtG1rnWtcYD267/+6+NWzLZtOIp2xA4rG5xrG6p2o2efYfdZPVRM6gxexu/ViSn2ZFhh8arJ973vfae14a050Mlgq7pLoA0fv+FjAvhjH/vY2Ce19hDhsk9x6Wh77xwJe8UrXnG4zW1uM1zjGtcY7zVQZp63BCPPM/x67RE54la20MNeecMwS5Pc0KfSV7yMl9mRsHQ5aquxcDgq9C//8i8jxlFurd7bsqNpHW7T9Js+7DOrZ2xiJ3YU8sk0EbDYUyCy95/Khc20bUvU+V5bVpVprz1ax45Cpza3PbnRzrX5IKPXr53VzjiIQBgAKh5FMp64DBYvAPRsSpVcMoEzJ3cqK76LC7Qs8xEm4wFmLi/iRaMSsnxGRa/0FUa8LG4PI9jLSyZ3DiNpZfHo0sMIDhX2cxiF4WXp9jDCm8OezDk7Msgx0+2VDwa/U7ydXf2FX/iF4fzzzx+8H5hjHtjDpKUeRhFW2fib0hxG0jwIO6rsYc6Owv4y7HsYyWdlR4FXlE9rLzCsyoZM/DYOmbu1owojdm3gnaUpXbpWHXMPI3FRZkeeuxislyY7au1PvB5G+M4oOwPpXPdCe4vAk5/85OGGN7zheJty66ixIzPpvTLt2VFln5GDTeyIfVZ2pJ716rA2oUqz187Boer78ehUYSQ9vMzuxaswwou8fOYznxlue9vbjv3B05/+9LE9CQyP4icsP/zhDw/3ve99h7vc5S7DQx/60DEbvTa7wlfEXplW8eArHltqaVt2pDxRq1P0K60ey++9QYBd+avqWqSy13Y0N6agUy/NilfZUeRj+dw+AupwW48jVXaW1em5cVdln3N2JF7WjtFHO7dJf6kNFDfL4+ktZuR8+VwQOMQIqAh///d/P77z9zWvec1w/etfv9TWeyi/67u+a1whf9Ob3jRYpVpoQWCbCGh0DxOZdLrIRS6S3vZ9mPQ8qrpoU/75n/95+I7v+I6jmoVjq/df/uVfDne7292Gd7zjHcdqt4etsLZYe/XTL/7iLy4X/R1bC14ytiCwIHCcEFgc7+NUmmdQXr785S+Pt5fbcu4M9xzd6EY3Gl+J4TVAtgF6T/BCCwJnCgKf+9znhu/5nu85U7K7dj6ttprtzlYK1xayCnjJS15y3AWxkzhL2O0joFzPO++8cXt5tvKwfQ22n4L7BVyAZeLn277t27af4JLCGYnAYZtMPiMLYcn0sUBgcbyPRTGeWZn4/Oc/Pzzzmc8c/uqv/motpzvQ4aA748cBseX2+77v+4K1fC4InJEIeF+2YxrqlHdmqyPO8934xjce7njHO46YnLu6J+FFL3rR4DIxN5LGlkMOq8sLOfU+//t//+/D8573vHG7vC1WnNrb3/72w4+uLnRDn/70pwcXkVl5vOhFLzo+m/7zTvGHPexhw9ve9rbxIrhnP/vZo8wIY2vtC1/4wnHVng62cJtAc1M75+o7v/M7h3e+853j9mLbt6997WuPq/ziW+23jR994hOfGG+tFZfD8l//638drnzlK4/bj+X/7LPPHkzs/fIv//LwP/7H/xi3kb/nPe8Z41b/duu4V3KX57tD4Otf//poI8fV6Q501GN19MEPfnA8Wj4bBDiOSz1tQFnzpwmdaivumiKOdLDjYDvHIQ9H2ogmyi+O9wSM5evhR4CDcPWrX334yEc+siOnO3Lm/d7vf//7ByvfH//4x08OzIO/fC4InCkIcHTt/njrW986Osm2rjoz+oEPfGC44IILRhhcUOjduP/v//2/8WjHk1aXsxmAcWT/83/+z+Mq76/8yq8Mf/qnfzp84QtfGB3gt7zlLaPjanvvlFwG9Wu/9mvDz/zMz4z3LrSDYK/n+vmf//nxzgaOM/3e/va3jyvS3p3tFS9vfOMbx+3c+Jyqi13sYmNbwHlG4pBrYo2T78y18+0GHfJ0zjnnDPe6172G293udqPj7s0H2hKTeM79Xec61xkdb07/c57znPHeCHGdFUTukziT3z86gnBE/rFTdvP93//9R0TjzdW80pWuNDzrWc9aHO8EQjsB7Hj70Ic+lHD/7ZELWmEYdT042iBH1f7kT/5kcGzNjdf/9//+30E7ZwHAkTdjkhe84AXjXTLC/tiP/dg4Ceh90Mgk5FOe8pTxHojf+73fG290DvlueL7pTW8aP8dPct1LY7wypb/7u78b3rV6K4UJTffbmCT1TN6c9dfGIvppL7VzPdK+a7dN3PRIG+jvTCV9yk/8xE+MF5S+4Q1vGHeXwEKfoZ9jM/qmEydOjH3jH/3RH52ESpg73/nOQ9jCScY+fWG/dob+7M/+7PDTP/3Tg77NxHg1UefVfGzCWNtkOtJHmtjW36L/83/+z3DZy152+OEf/uHxt38WtbwmzN1KJskd8TFGWOh0BFLHmxG1g6KIimelo6K5bXuVXPHm5PbSbBvLKuz0OV3m0qz41fOQX+UTX9yKj1fJ7vHIrWRGmhVG1fOQWekTcit+9XwuXvDb/GgI7n73u4+dzDrby8nJSNzXve51w3d/93ePg3GNBZrDN5PlGT03zWsvXpVePBe3xWjKq2QrbwOBisjcRK70qjSltRt9q05/N2lW+Q9d5/JSxRevV6eqeJFuxSezkut5hVElT+eqg7QSbbBo4BgO9A1ucIMxmktJ2ILBw9/8zd8Mj3rUo4Y//uM/HieuvEFAXq9ylauMzroBoAvcrCh7VYjBh7hWjYPItQLebos1MDBw+V//63+Nl5FwcDlOLsWy+ixv9D13tfpu9dLkmRVvkwUGrW9+85vHgQUdDVo5XG6HNviUB/E56sjN0Vb5K+KEf/GLXzyJ561udatxkF2Fj+eZvfTKTLwszlRejx/hss9ePLyKXz3P0mif9eTCoWpT8Hrpilfxe2nST1mfCceKDOrlNaM5fLM48azCHR+P7Iyq5xG2sgX8XplW+mTyXLb6yU9+cnRQyX30ox99si3QdpgE1OZoH+jrHgwOBSy1F5xpY4TXvva142QdR5ejYSKHI29HDOdDW3HeaseNdolzoy3ipNudQ44xC+ec8/KpT31qePGLXzyey9cHS/v5z3/+2Ibh2z1kspDTYnJRmcqb3TvCa59NLnqji104wnG2b33rW4/HXeQTuXPCriUr1T6nJL72z44/rwaTrj/O2MUvfvHh4Q9/+GlOIh22aUdVufZsTJ6yco+89uLKi7KpaCpXGemvTLiwG/2LnVkmdPWBnGp8ZYGvD7Kjy/Ej9KpXvWq4+c1vPtpKlZ7nJo9NbFsQ4iCToe1yh8N/+k//aXxbjwmXlpTdYx7zmNF2W17oox9lgyZ59Mdsln709pxtI/k28W6sjR7ykIcMz3jGM8b+nL2rE+LKu/7UONpEkDGBvtaON7Yak0vqglf8steWqjKfYr9uHOHmytsYpqK5NCtdq+fSIbPinwXk/aavfOUr+53kaEz7nehBYBsVaL/zuu30DL7vdKc7jSt0e3GB0Q/90A+Ng3ed6O/+7u+e7Gzn8nEQZXoQaUbDO4fHunyNkEEHh4xjo0M4LHQQ+O5nmhp/26zbjsf2as+seBswKhO/vZ4vJmbucIc7jKvTnFgdrufkCWeA4NPgg5NtG7rBq1WYc1cOspn2n/qpnzqlmHXeVmasrJtZD+K8G1ygV77yleNrknw3eMVjP2bPzcAbcFrh0Q4YOFoZesADHiD4uMptUGRAbYXCqwQ5+lbZrf4YbPUGXGRY+bLd3SACyWM4Er4bTHDGp+S5SQyTA/tJ+2lHka+DSNNxgp0SR4gjE6s0O41/1MKrv+qk+rdTOogy3as0TdAZ97SD5/vd737j5B2nR1ukDnOiLnGJS5xsA4xF4aZN4/B+6UtfGl9FCj/tINJ22vFjYtFOHw4Sp0U78s3f/M2jw+GIizbJW1Rc9monDafX7hjtomM6vptYNDHpGA99OLucZqTdsVJO7mc/+9lx4lB7a3yiTdOWWaE2mcDp4cDLs7bH7pwHPvCB46o6WfTy+shb3OIWo01E+4Unz2TZqRTtvOdB07DxTDurbW/f2hD8+NyrMg1563zudZpsYdrecEwf9KAHjf2fyRwOpr4qsGd/Jlr0Z5xlkzLKC47CKGNYB5E3dURhq7zYF3riE584vv7WmzLYpt2Z7MlEkdcHso84OkO2+q7vCdIHXfrSlx5/mlTn+LJbEzTicYotNtGVLZj0NhmD6EsPmOpv/Tb5I6wJBLbP2aYvYj9xr4S2FpkoUHdMsrN5eTBhZDI9SB7UFxM9Ge11mWZptM/20y89K7vhWeMEcAaVESCrCgjw3pYKBm11pSUF0XtvZk8ufcwO0jkjBXzNa14zY40GUunby+ccRrZnmh3KqJcXGKiwWeM3hxHDNwObUQ8jlccfDDPq6QsHOmerChoFtFs70qnq0GC6F0535NHKt07NllQdp85Iw1TZkcap2rbYw6hnRzCaNqShW3yaRb3a1a4WP0/57KW5GzuaNtynJLj60bMjAwD5qezIAEYjzZFqif3pQDTwLc1h1MO3x5OOQYxtmhn14s5hz+Z14BnpVLJ2V9ie3J4+cxjpmFt9OLic7/vf//7jYNCgT6f8+Mc/ftwJQhdnt60eGwgabNoKbku4TjkGD4985CPHrY0nVtvsDP48N7jk+Jpkie2OBhgugjIBo+PXKcfbCLRdXsuF9A/RUQtPpyBbKA1Unc1Wb+gYK+vCGPTY0mmVR71WdwyKkPDsrOrsx0CrfyYiDMC971mcIPjR10C6JTx9TAx4pvxeufXKWx3ebzuCj3ocA7tpPnw3SIsdQi2vl8+5/rIX14Ao7hZo05zD6M/+7M9OOqIGkOysvdvDJMstb3nLUbSJQe1Q9KP0jh0e+gUrPfieByl7mCFhtHHxO8JMP9mU/t1kMjuL3+L4Tp42SRh9nzC2b+IZ3KtXLeEZx1ihbanXFwi7m/aoGnexI39VX6B90PZk1LOFyo6MC2AwJXXHmXcTg/p6x084TVYokfBWo4M4HCYg2/6fTciLnTXsyaf2T1kYk7CHm93sZuMxFTam7dJ2eH3dTW5yk1H8y172skE76fZ56fzGb/zG+J1TFHobU2s/kXaBTeonlJ/23XfhpWsRgh2rp+zNnwnIKXGS1FVtpnZxSmwMZePMabj4Tge2JZ0qzm7GR5UdqRO9MYXV5bNXd3Jk1LOjuf5SO2GyBV3hClcYV3G1A+xJ/+BIgv7QDgiy2Jj06OIIgnGl1eTXv/71wyMe8YixvbjgggvGMtcnmTw2kaE8X/rSl44r0cZ6iFwr32zR6rHdXe9+97vHT5Mz6qudGfpZE+JsKUg52xLO4X7sYx87mDjXdpio0WeqA+K750h/xRnXprETtiQvyNED9hokDRMC7BgeJuERO5I/BAM7KTjoJn2kJ5/636c+9aljvRgDrv6pY8bSJsFa2tRf6/UFc3ZkR4B8ZbQbO6ripp61RgYwmcMUDWqmoGfRebSNV4THz4jciif8HE/8TN8srXimwevJDZ2ikYp4PiNelWY0ptM48V1c/AwjPM+zxi30CTnt51yaFUY9ueti1OriN7kow0g+gz8Gav4FRiq4CQzbafbS6Y7krHzrKDVwKnyvY4k47ee6GGV21MOgTaf9HRhVdiT8pnbUs086Z2XqeS8/oW+bD7/Fw88Ijz6ZMyBOL82Im2EkLXIz6ukjfKUrnrjSy8obv0dzcsmuyrTCqErPwMDgjZOqPOnMGef4xpbLpz3taSe3qKl/nF6dpUGIzlp4WxM541aWrGaTZ7ZbR63zD7L6reNGBoPCGsQgg4Xo9K3SuOjtGte4xriCbHtcEB3JiAkaeEw7TM69wQinxmSDi9wMnIMM3DPnOPjxydk3+IpJGZiff/756dn1iEOXljzLnke4ufLehh1FnansCD+ra6Fz9Smf4mZ2jycvm7Yb5Fb69jASL4hezsyyCUcUghyxCMdbeE6UMOyOvdhuycbYjRVLxy2soCJ1jhOpLoirbtgRYYUpbDTS8Wny0cSjvsb7xA1M2ZhBPsfGBINBuz7JIN6EcCxUkGsAnjne0zTa74F9hl8btv09xS/jkV2VaS9u1e5Ko2dHIbNNM5P3m7/5m+MqIWdZm2IXlzbGGdf73Oc+o3NhUlH5c3qVhbLkBApnddN3zrQBtMkY5WfVkbNhglp5+W1XjRVoCwRWBO2y0CZywhBn5yUvecnosLApjhFZFqKivnhOR3m0Kmr3gvEIRz0mi5Q/59y4iEPFxkzMcM5MvGiDkQkbjsgrXvGKcRWd0xck7jptYISPT3opm/22I2lWlJV7hBWv0rcnU/ywM99N1phA1q/c4x73GFd7jUcdEWA7yg/WysZkr23inFl2w+E10aycONzqsMkaE8pkmORmR+zFyrb8/Oqv/urosJtANqnMVqWlzeIA2+pu+7eVZeVoZRzps9kQu2UTVt3POeeccdLcOFdck13C+GPTSNvjfLY2zUq+yXX5nRKHmp7+2CxHWh1x3l1bpv1zlEP+6E038k0Q0Z38lqoy6JXptFwyeVVfELbQxonfc2lWdkQff1l/SWaVx9TxDmWWzwWBg0JA464TMiOtU9mG0x15MxvuHJeBvsZHh7bQgsBxR8AKc1yAZvBggKAeWCnhlAfpzP7bf/tv48q1STDOuE7FbDqyU0TnY5XGYPerX/3qOHA0uDCQRQYkHItYebHqbDBsVcgKDkdFOuIatJj9J0v9J4PzYRBscGklgKOOdO7OmCFxOSUGGORznCNcdKzyFauZY6Tin/D01SYg7ZGBea/jL0Qtjw8JAnZlGUQboBowszcDIzsvHFVga8rbpIu+xwCSY8W+TTjFzglbPoMMtk0EPfe5z41H42fY2ykPVz/IMlBFJomczeS0OUKhLrI5zhPdrJbZomplSh0xWcUZNxHAttUPjtlCOQJ2Z3CWOK2cXu2E3RPaotgqyxmyismRV7fPXR2REUf5hXPPKT+x2s2jPXPOl0NtRVBZKSeTh1bAOeN+W4VVhlb9tDWcMmXFCWJ30mNznB/OV+z64UTZMo44XJwcThGn3dlez6RlUpLT4ziNCU4OPDnTi660gexEO2jsZMLIziaknY8JxfHB8q+LACfUZJuJY+Xo2JLJD/bkWIE+ya4HEyTCWvFlOy4u5XjrvxwtcHTJpJo+D3Fg2UAchVH++mETcmxJmSvbdmeIlWRh2ZW2yCe707aZZGaf7JfTq60zWaD/Ymd00k+bFDA5bQLdSrU2SL8qbcS2tYHRf3rG5vHVAY64tlMd8136JixNtJMpb75LGxae7XTCUJrHlRbH+7iW7BHPl0pvhs8AfJtOd8AUZ77NOmooo2MO/vK5IHAcEdBB6+ytiFiF4WDbzmZwYGXOVnOdua3mBnNWs3XaBqlRR2wl50STY9BhpRDfYNfA0KdBgAHDlGxlM+llZdyf+JwbM/acb6t9OnQDSKsAZv45OnSNVRf6W92xymRgaiBi0IAMOjlPzonTiXyDWAOEOSJXXqSHxDUpp51Y6GgioF03iWvLLju2qqiP4fCG42zbp1VKjootnxwU9ma3g1WdKbE7W4kNxoU3MDU5hDh4eJw4fRn7t1LFroJMNrlh36QSZ83qpMkB25QNVg2kDfZtjeZ8u1FbPUDnnXfeOGgPWcvn6QhwEl60esUax1n9V57qMaclSBvhD3luYnG6U0E7pq3hnJj8UFZsxpbduFfCb8SR4YScWDnp2h0OLodMmVplN6FpRZAeb3rTm8Zt69pSbZb2VjupvUPsRjvFWQqbwZMP7ZC2V7uoXTb54m0MnDjkPDIHK3YbmQCwtVhbzPbZtxXLnVLosdN4hzX8uvkxocFuOJrKxSesrQ47qhZ3k8inCRG7VdiN7eL6UBPcnGOTJibSTLiRYRKNbeqffHfkBYnvLhR13Pg3jnFywjny+kz9Ldt2UZodHfJyzmpix4SA8jc5YzKG3XH2TQjYtaNdMZ72na1HXTCBTTZHXbtjkoaDre0yJhbHpCH79zy24ZvsNnlo8sDkhJ1Cdmq4A4VNqg8mrKNdHDO4/BsWx3sxgkOHgMpuq4oGZT+c7gAgVr7NMBpstQOtCLd8LggcFwRsAzNjb5vklFzig8zoxwqQwYI6GQ63DhqZ+Tc4MLhoLx0zsOREV8SZDjLYsFW3lRH8WNmO39lnDCSCZxDCeYnz6AbQ8jFHnByO1JQMTgyoFjqaCBgUG/RaEeIYWeG2BdKgOsjkkDAGoZxnZW6w6lgExyrIANMRC4NpW0fZlzCcM44aO7HKZSXboJfT3ZKBNEfMWUcDZFtU1SMrXXSVLmfcZBGHyQVLzpZyuFA4aa3c5fe/IaD8OJ4m0KxIWu0zQaeMOZ/KhxMFS6tyxh7hJHA4tEdxTlubaCu53xxvZaGcxXWRGzl2Imhz7KzhlJg0sdJpddr2X9txTdRI2zZjdhZtyrQ8lX/73AQoJ92xOLZjEoau/si2Ymn3hXjsakrGMxwzTh4cOEU7Ic49ezxOpN4rR1g5ex8rz20eo32AOVLnOaYmnPVvtnSbrDY5pw+0S8aEi4kfEyUcT5fr+W1i22SeSV1tCMfd6rY+kiPNBtiHSROTdSZMbOdGdkpwbjnb0oxjW1alyTde1V+zAw4yxx/FRIHz3P60eSbyYoeECR+7afDUC32kyahYmTchYAJenk2+a6fCVn0aQ3DKOf3y6/iZSSZpeMuJ8CYgOOELXYjA8apJS6keeQScPzIQMdNnZni/yQyzVZFl5Xu/kT9e6UXHdNhzxanuUfDlx8BrOvgyKEUxIx8D1qm8ntM9Ded7yGuf7+Y3/SMPISdWy+N39hmTC1Oe1YmFji4CthwbyNrmyyY4w7FKOM2VFSeDWCtC913dvm8w7Wy4Z1aWOGt2ZXCIOUgmo2w1tq3Y4NX2S/XFirp7BqxgZzYnbQ51tBUPfehDRzWkYYBLttV4zpuJaKtcHHTfDaYj3lT35fupCJi44CCZFGkJftmEyDScMLBWJhwox9A4WdoquyY46toFZRTlweHmfCFOE2ef02syj/PMUeLMWIFWxp9arYy3ZBV1us0XXzur7I2PTAKxjTiiYxKUjnTyvCUOkRVQOjrCsFMi299xIvmxq8Dkr4kQkyImQ8LRbvNqNRjZZQB35NgCJxuujmBpI0ycKVNtjf7PCrDwFnQ4uS2FAx3PxTGp05LLT/05qsKJNQmDtDvOZSN2M12B94ydacuCbP+OiWjP7Lrx15KJJhML7NvEBL2qCRuTPSYTop3jpJvIkI48HzfbabHa6e+zYhZnGpERASrjCYff45k1yUg8jVgv7qY8naO/lhiCvNApK/y5vGg0MxIPZfoGz2yr/LaE38NIY5wNCMjp6Stepk/EqzAKfXtxKx6Z0o0KN83rTuSKb7bY6pSBykE43aH7dOXbbGic5cJnDzETHeF99soFb1M7YrOb2tGmdY3tKe8ovzafm9oROXSCX4uHNMnN7Cz0yHhkzmFf1TUd7KYYzaVZYRSd+qZ2xBYy6mEkTZhn7d9UljIw4cUZQG6pNTtv4KAOhAOrvlspcC6sR1YM1WsYG6zEeemIYyBr6zasDCTpJ7y6H068VQEDFg4NcgbSqmQMbD2zUhWz93635PZYTpftdwZFtrBbPZySgas/A6dNiO7sLLPROVuZxhHWRS0+AwP4ZXT2antixTNYwoOn8gr7ICfkhsypDOGjzPDlazrZYpA3DR8yxCFXeOmxJd+DpO/3NK/B84lf8aJdkEZL4klLmtP0hGvz6Zkwob/BqBVqjnMQXpzXtJ3SypEt6rZXcrqsNBl8crgQuw7i9NjWGXpaWbS6Sr/Y2THVUd8Sv62G2WHB9tlmlJk6JK1oNzj8MZaZlikdol9qcRQuyiR0jc+Qu2l7VLVzoVurS6QbfUDoHM99itv2D8HP5LJP+cso3qgQ8dow1fNpuChPK3goJghhpz60NG2bxOUwR7sS29g5Q4jucTRmKodz3ZKwVrtRuxMwdGrjTH9HPc7Sm4bLvisP9aCafISFo0o+qzINW2/lK4OKJ2yP7xw8G9skzZDN4bZjwXEnq82OEER5TXUN7MPpDl5MPMcFeNPjC8JsgnfIzj61CdqBuFQtCzN9xvmdOtphx9Mw2XeOtj8UxzGycJ5FHQl+ey49q2dZfxntUW/MW7Up0tDW+ssIv4qr/Yh2tY0r3ibjLnKqNM9qjUhglUyErJLpmCiRxRNXxqwWiJ+RAsriRseQ8UJuxQOYTjYaljZdumQrGCq7uJVcebENM4xhKjcKIsMowlW8Hkawh1F2S94cRvJf5aWHkc5Tw7UJRrBh6Fm6PYykJ68Rz0q3zsi2vYN0uqPsrHwbbGlsdTjsAMVnhPO5TTuq6qF05+xI2WSDzzk7sk1OuWR1uGdH7IDsKFM6tsS26dWGYYNwbJ+Lz47wMvts7ahNr4eRsFV7pJ2jU6aPeORWPBipv1kdFhdlduR5Ty6eNoXOLfUwEhbmWXlO5Qhjhc+2NU4Ax9iAzs2/BnrheJvZ5nBwUGyHC7kGi85oh83ZGmfLnMEpZz4cnkjTVjirL1YbbIXUyXP2bVULR9oWNtvzXEpky67t6LZyBtHD1mFOvUFt6GIwRJaVHrPv5Mf2Yq8O8eodDrg8f2q1OiEs+VYLOPbOSKoHVh7jLGekmX1Kl322NrFOf9nGyeRnz2IQn/E8Ux9hJQ8ZcfxMqijvHlnVsVVQW2hlryV13iSMLZhBbV+8mzFF9NGZ3Ud7ZMvu1OEJPaaf2hCrMGzClkwXYLFv9hxkVdAAGiZWmOXbQFc4W8utbLeTNhHXZ6wIqafO8U5Je8LekEnmmEzyGz5Wl9QxZSI+DDkCcA3HSn1A+skW45Dd2hOMhN3r9iiwb/WgX29MgU/XXhuIF/kRPqgaU2Q6RJzlc/cImPwx6QTnaGOnUj2LY0XqWUv66aw8hcMTP5NLlr8qbrQNVZqVXGkictkUe1MH3dugX/LKOHX/MFIcfTiMuu1Ep6y/jPg936lt3yIOW6jGXXNjU3adjS/JJrcad/XaOTYZ9hk6xuey1TyQWD73BQFb75z7sKqsMjB25684FVYYbM8zuNZgGjw7A+PcJiM26HDGxVZAA1qVjIPgYpxomFVKg3Bb8gywbBs3YDPLp3I5dxdkq6CzLZwCg1Nbu6RrO9i5q9tNyTeQcvMph8Tg3KDMQNMg1CBsoQWB44KAemK3iTNbnF9n1tQ1joBVQY6Hi3ls1XXOVD3LBjzwUP840rbbIY6OM7VWnRGHwuqz+ksGJ9Dgx9bPmETwyhTtgXbB2Upb7DjxHHrpx3tQOe7qbKaLVWxOmZVy7Y10tRHaFvKdRTNZIH8Gl1YGYIDkNW6gHh8cgn/ayete97rjNmeXOmmTgqzYyIcJBI4j58zkiW2IJkPk143dVkus6GjrTFwoX9/hr+11XtRlYUg8E5AnTpwYb6WNd85qw5WTc4DaVJMX8DdZodyjPQ7dtvnJbu16OO+888Z3z5oMykgYK9zuEJC/6Ge05/oTt/Q7y2r7qb7GRJJ+ir3rO+S9zZf+K1a6sjTjmf6FXSkDBG91JMgrqaTJHpUdO1TO6oU6ngKpTAAAOplJREFUZPIXmRAiw+RQrEaFjOXzcCOgbbNrgi25r8KRhaNCJn70B5XTIx9sM9r7/cqXFe/2Xo+dpq091E6qk3E5mYkx+d0GOVLCIUNswYSFdkQ7pE/0BgUTwHbkTCertT3aa/3d2avdTsbCJoVN4LEnk4YmmYNMjIsvX3bu6C/DufTMJJ9+04SKxa7oP7Wn0oHL0sYEmnv7uTjee4vnIm0GARXdDa4aAANhW0wNBjV88T5eK1jIQN9AzmA5VjM0Di5L0Ug542LQp4GMRoOzzSEgV0Nj62y8kshMpoaOw+yyCM6A83hWQayAOYOF71yWgY6zUpzxc1dOuDgGTrGiMZPNhb0gcOQQcDbRFnKDJzP+nFb1Sz3hzKhb6otJKFvQOXq21gZxxJxXc9ZNp8/ZiHrJqVGnOD3qrwtgTGiZ9HKfQgzoDAhsz/Xp0hn1nNPtNliTALbkhsPCUTZpZwVAGJe4qL9Iupxz+RDXKrddLNK02uGMnDZIOIMLAw9OrS11th5y+A1knIc7CJJvDrSBuoEQohOdtWv0NomJDK6E0Z46f6ods+0z2lH5NcGBrN5ayTXYgp9Bn/L2+hfla3DHEbfDwcqucjF5qfysngdWnHNtK1nK0EDVZKTJTDaynwNwWHFc2YY22+SMVeJ2u+N0a+Z0gDoC0/yL1955nJ23jODsJV6rF8+yT/Y+pXb7Z9yMHbeWCztdcYu8wDUmRabylu+HGwFto/po7BOk/dTOaQ+d3T3MpL3RPmpfY0dTq284k+1zv8WNNr7li2eRI9ruKV+bpn6Hwzjl+a6fqUia1Uql8kD4Jrq0mSbWoq2dllMlf9Pn0zr+hCc8YRx/TidhtK0mFEy6taTdMpGs333R6jI2YTnfZFqx10fqy4x1vfbMRKy2WbutLwwywchZh4O+3ORs7ALgkOvvreYutB0EFsd7O7guUgsEYgZPh4M43Sp8ON2ecXw5287GcIrPW61kaPgNoDXOtoxaBfNbPDx/wpuxRBpsKxxm7jjvGhln7qwo6AA1Rla9NDJ0seXV4JM+tlNaUYh3EZpR9Puc1QUpnHirIBoleiy0IHBcEFAP1AmdsIGgy1U4UlZOOV/OsHpuJc47bW0Hv+UtbzkOjKwOqmvqq0kqThlHzeBBfYqZd/XTYIcj7Ds5nGYOYKxCG0CoX1ab1Wt1lR4cThNqZJPhfDjnkJPkJtY4u+Z9oW4RNtAzSDTgsF3aIEP99swkgIGLtoejqV0xiONI0Ul7YUBoULIOyZ+JwHb7N/l4BpYZaaemPLoZBMKQo2g7vBVXjrN2DE4wCTI5AgftJQoeOXYXeM2aAWhsUcaHg11CJlWsAFs5UUYwk392IE26cypNZMLBAM9Kd6RDlpUUg1RloL01UUHPX1ut5n59Mig2eCY3BrajkG/8Iwd/isOUT/9q6/FUrslZvz+1Wn3XF9hKbtXIxMBhIPmEwUJnHgLGHNoekynqluM72r2gxTYCif37VBeVA+fUpOF+k8UmR7HooI9r7wtw+7gdmUEx+aYN1Seb4NbfcN454G6s1z+Y0EHafwtdJhZMKtjJZnJ6SjAw0a2/YIPIJ8e77cum8Zbvu0Ngcbx3h98SewcIGMgZBLkh0cqLGzo1CGbfYkXb5WrIVlezfla9rDjY7mj1WQNj8G3lzLac2LpnFpBjYDBvAK3BsnLl7LjZPisgZBroamwMRDnSVpHoIhzHXFyDcoN7MnSYnHzOtpU5kwJWy9YdkO8AniXogsCBIqAeqldmy23DNTCw3YyTxuG2SseJ9d2suvD+1ClOc5xD5Qj6O7HanswJ8x5TxNEzWaX+qdccdfE5fQYE6phBAIeTs6XuqddWb+mgjlrl9ZxjZVDB0ePEWxExMNHGkDndfsgR44BG3kwoaE/CCdQ2GAAJ41yuVV+6Iztc1P8IOz5M/smTPMNlSvThDJooiIFN8MUxyYAXZADEmdYuwcX59liFNkCzCs8RDjLhoZxiu2E89yntc1e7dUxQBsFQWHl1oZBVbxMDJjA53cikh50B2jjvDNbuuZnWBMUU15BpgtKt30iZmPC4/uq+jlhV8jza3WxVq4eRuGzIBCkcpgQ/aSgbf3ZskIU46pEP+dtLIk+5IX2UHSEGt9I2eaAMkckTuz6iXtCXDRpQVyt4Y8Tl37FCwAQeJ9sOPsQO/GkD4/de2+goePnXRUB7bMx4EKTvc2TKhLH2TfurbY+dQnTT97hJna2EM+xYFNIW2pWkbdE2muTWB9uCHmNpbVO0647DmCB13IFzzgmXNtL/OVY1JW2ZMbL2aqG9RyB1vBV0RT1exOmF6fEi/iaf25K7iS7rxDkIfas0q+fy0eOtw59iYXXF4NFKli2iVkucUTSIMXh55CMfOb5PWCNgts5ASofkYiXOs/PeOjFnYDjAVmA0JAZYnhvgIg2QwanGyFkZg1PbH8WzNVKexDeYN1AySLMV0ADTQM42TI2aRkejqBGio1UwMgyyyAuawyjCHZbPOX018nNh9jov0uulWfGq53ut307lbUuvSq7nym0vSH0yAeYVPBwaTlMMDK3A2hq5Tlqcdq9nQTp7dTj054Q7Z2xwYKWVA83Rk476ZvCg3tta50+95XRz4jneQRx0bUBGoWNsc+dkmrw7sXKqpysJBiQcbpMK2hTpWCHnQNkCPOd0S9tAyCDO5EFL8AxnrOVpb6aON752z5l02/Y51T61UbAL5zjkWPF3YzYHGWn7grSHdiqE0+s5J9kZZu2btlj62rgY8AljosNOBoM2kxR2NrAFOw6C6GKFm1OvnYxVZe2kcrZFfkp0EafCsocRZ95kSkbyxpkn29lJZW5CVzmawLF7gY3sJbEXE1P6DhO1cLECJQ/sxsSUyVt/wtIJxnaDWNky6DZxtF8Em21RJbt6vi09DrNckyxswPhB+Qd5xq7jfcnx/DB+0rOqu4dR39DpMNqhiW0XOpqAswPTSrc2zlhVu2K8ikwo6xMdH7rgggvGtjzy5fNFqx1bVqUdtTLh62iVxaWYoDRO5bhrh+yYIkcc7wF3iRzS1+hfkLG4MjYJbsLbROtRo6q8q+fr5E893Ws6i8NSUcWTiU15OuAqLj0qXi9N8XR6GTEkwBkQZAD25OIZmPQo01c8RKcYsE5l9NIUDkb+KsrSjHgVD7/CKNKp4vb0hQ9ds5WMVq4VaucIVXwDEh2OQZHBi9WBWC1yTk9jYKBiBk9DwhE3GNTQmPWzIqQ8DdJh3OJssGgwaEbQQOfEarBtO2RsKTJgtYJn5UsDqJExqDd7aIsiZ4A+8mYl3GBSWKvjnHSvKbEqbuCHehjhbWpH8tizI3ZdEUyqMhWn5UXHyhHo2Yo8R76ztFu50zB0ivo4fU4ejHpxK94c9hVG7GqnGIXOvTSFqTCKTlFe2W5LPbmb2pE0pZW1f2367joQzupxbBFXb9SLqOfTuiasvExl++4cOCc0HDrnsp2xRrCx7dKKq8kxg1GOuT9l7JIeTiwH270KcaZVOm27OLVD6eJHGHjRg+POBjhE2hwDDE6ZNsWAUluhPSJfOxbvIyVvmq8Wq+lv4QxWtBMZVbYr7JTHmfOOX22SrYPaKROUJh05ygbvU51gYwXbmT9lbIugPCgjK/BwttoWZ/FNetqSD3dtmclHA0ETG+TCzFZYeHkek6HaA5MWVmm04bbVx0VgsIz301qth8H/t4r//1vJ2wlNcZjG00dom6J9mvJ8p7eJXOVncsWkDSzYwRSrNt6mvznNMFdWHGp59pv+ceOwQa8yM5A+Z7WzysSI3QZs264PK057TdGeZDhO68U03d20R+T0+gn8TBfP6aq8QmfPgnbazrH3qPMh47B90k97ZoIx2k87Q0yaGUdUE0uHJR90Vpd8ZmW6Wzuq+svIf5Ym3l7aUaQVeYnfe/kJP/2dsSQ7D0xNmBrzaqdjjKq9s7vT2FQcffCUTC4ao1qoMta1cGRBKMbiFro+tdrt5c/kj+fSNIkbJLz23Blx/Q1HXFt6YjVeFnabpEzbcg3se2PeNs5Ux03tSLno87L+Ag6btnPiZvqepfNoKRqxKMApn6FTMosnHAWr2X1KADaLuxu5wGakUWhTfT2XLp3aRh7I4lb64oWxTmX63sNIekg+M51ghBfhxsDf+CdNcbJBxhxGFbZE9zBSnmRn5TKHUWCaxW0xgqVBsEbCSoyGxKDQbJ/KHyRNgxsOOYKFlZ5ppfBdHANThg1Lg9UgTruBocpkwGom0DZ1353T1umRawXIqpJVEtvWDdoMOOluYMDJtzpmssA5SoNSZEBle6XzQfDr2f1u7Ei+9suOlI88W72JcpVXOMWWLFj7ndl1z47IQeJFni588m//Yb6OHf1bjAsH3VU84Xp1jS5VnZmra3PlTS6cWopn8jnFOMLNya2wb+tayPMZmGftzTRcXNRicGgrMgeB7aoryt12NY7siVWnbMUUqU+veMUrxptWQ5ZnVlXVKXWGo2uA4LIXRI+YfVePrYybHFMXvVIwVog4hrZ5B5Fh8m1K2u5YbbXyKL3pChI9TORJ2zZ2E3nIyr10XWojTyYFOKkcIo4ePJWPAbEdMNPByjT96Xf1p7XfTezIhIeL1UxMcOAMygyinve8540r8Nop6bhMDGm/tFFwUG6+q8O2i8uvW3A5gXTxW5tlNwHsXEzJKTQAM4DjWPvtnKCBnLRMnlywWnGx9dFqiJVlbSuCqzIxQHTMh33CDH5T6+/Z5xxGZMqvz5bYJ3sywWqngjaITQmbhW/j7/Q32SZmTNrC0YSNi93UHeXk6JRyY0v6J3+2FPszUKYrGyNnrj7uVLeQ19ogjKr2yHPEFmDX0qbt0VxfQFd6KvuWdtpfqneRj1bWYfoN4xOrtjNwNv6Z7lA5TLq2uoRtHTU70gZkttFrjyKvLQZ78Zs+djNlZGJT26EtQe5S0S9qY/Ds3NK3ajvUG20zGzJxjNzVgaaOnnDGdEg90WY5G27SGTk2aTJXG+8523RHislE9rpNUv/btirKyvP4PtVhrj2q7HPd9gi2LWmPNrEjssTNcFyVxem7zRkl48t4MoCf8SgMGEpWxlvJJZPsntyKFx1LxaeXAmkLMoCp4kVe2njk0RVVcfGqvJIrXoYRHKSXyZ3DqIpHlx5GKmel6xxGdBI/07fFyAVlBizOlFg1NjjUEWk8xDeA1MAY6DvXTTaiW8wQjg++8Y8z7rIS6RgkWhlCttFYQTdQjRuPyeCYa8hsg7TV/JzVSoStgQamGre46dgqWwwwOR/0iy3qBsAaMisd8uBSNiv5KMPA84Oyo6pMe3ZkdtQZfLgoezIMJuEfVNmZ8JUtRFzyUIuVeJVc5Ut2G4cc8dh2xsPv1TX8CiNp+puTS0ZLvboWYeXVX0uhb/vc77Aj7WtLPYyEDdzbeNPfHFtON7IV3F9GnOMgK+T+pjR9Fs72lA9TgwpEL85lRo95zGNOeWxVsZXHSY/6py2YnmcWWZuDOJpTsq3cH4qVeLtY/G1CYUetvSgX9a19HmlU5d3mHV6x8h9x43Imzp36GmRCkKON7F6x0s/xo6OVDSvSkeeIM/20hdzEivbVKkxshbcyF21ChKencjFZoe0++xsTG21+YRAYRdz4nMOIvZOX2b26hrT/KAszMvbonzzYdm/g6niUe0S0mQaqdnXAAMGNLlavbPe0fdQEhR0HBsbsdq+JbqjFfp32qCqbyj6l05OrXa5kiovXawNhl7WPbAW1eczCjgEPyT/5NTllZwhskHpl595h152u9I/PFvuR8Y1/VZlvakdzY4p17ChrEyo7muZlP77TLbCdpgdjzue0XXcm21tHHK1y14bFHw6zsSsyVrVoNL0hXXtsMhWO/kyexhZyTrj2yWKTuMgimMUxE4cmzLdJ8ljZ0n7bkTqY2Yn8a+fwMr667C/LB7zFzXine93bRHqRfUYjYBXHFm7k0hl/GXHI261XBm5TwzfA4VgjzzVIHAdk0MgxDrIiF2SQaqCkUtiWaCXL9+k2UY61imhrWDSKVt9a0pHGOfKWd5R/a/Bt6YeL/MfA+yjnadH96CFgssddDTErbkXcyqxJsIzUV445BzEcsSzcUXkWjs203ZvqbtBuIjMj57ORdizODPrN6Y6BRDbgNyCNy8Ck26bNwYx2ljxONzJZKs1oM8aHx/Sf/gH2doBY/TY4PrGaQDaZYbBqoGUngR0HdlfZJmpLsS2csUvhmEKzZKtAQD1iK+0Kt6McJvYPO3HIwlk97LoeJf3sumptwoRn3NkxzYtdm9pZK6jak6DYms6W7ESatutTB7ZtezjhL37xi0PM+GncZ4LXZ4x9Twmw/NgTBE5fctkTsYuQBYFTEbBt3JnP2KJ6KvfUX63TjWswM20INC7T85TTweCp0k7/RY74sX3U76ksjqbB/jS906VceHOu899BBrRmdqd/nmXPp2Gq7xFXh1eF2c3zVi/5gIsZVNtO47ZLl3wgg+q59FqZ0/B4Cx1/BEx62b7tbLjJtTgyYoXWdluTVS69ipUfu1usmCI2YgXcWVjHRLQXdpmY2Xdm2eqtS9m8cguZkIs/A1uDknvd616nbFEfAx7Bf/IVGGXqOzNckXpXEbnqckbaml49NdlYEYe0klvFOYrPOVEmGUwAWSmCtaNRF6y241txMpC2Gg5neDl379z+Qmc2Aq2DBQ1jnblxxmFAjY5HQc/DgNVOdHAkst2KbAxmFbolz9qwbRhxK8rG1W1YZXxUbLLV/Sj9Xla8j1JpHWFdrShPz57sdVaqQSqHvdcY7UYPAzAzkMjWQVt8OAttB2Ug204cRLr0RvgZOe/D+cgGtHNy6dGuWEnDYN4AO1YS49nVVys071yd97EFVz7kTZnZOmz7kfP0Vm3IzDAlk55VXjhXbu5c6HgjYOadk+xsNAfE2TSOh90utuOyEVvZ7ERxa7bvblFna7ZJe484R9ufV6ywczP5VrvjxnHb4DmejokgNm17tXNutmU7R8u+j8PK9/G2lqOVO7bL2XacySV13i9vQGxS2YVzbFjbaVJXe6cNtaVTO88pN4m57CA6WmW+aLsgsCCwILCXCOSj/b1MYZG1ILBCwNaVuDRirwFxAZNtfu0rbDieVsLf8Y53pI7ibvUwwIot6AZcj3vc41KRwhlstQ65wJwKg7lqJtP2fGdXM4oBXsazCsM5zpxgTgp+rPhHfM/usHJonOl2NtbZIFuhEDl2BXh1EIemcrwNMKuBZU/f0OG4fGZlfVzyNpcPFyfaYmsrrvdju3wKmUl32RlbYke21LEJ9sT2TPBwatzPYPXUcRL3Njif7H4G7Yetzm5+5bBz6q06crSdeeOUu5vBjexe+1fVmzn9F/6CQIWAeu1ct0+2a5Wb3VrNdAGlyceY7HSe16SptlKb6xjEeeedl/YDVXrL8wWBw4DAmdyfHQb8Fx2OFwJnGfhnxBnIeJ6rhBmPnOBlFdWzSq6OCc3JHQMl/2K1rWVFJ4gfaUSYdfLCkcjyIi7K9I3w0pNuS/jiRbgpn9wsjjChf5Zm8CsefoURuVW5zGEEH39ZulOMrAg7a+jSmbjAiU57QdKx2mxAFGe7Deal6QbebdGf/umfjgP8sJEMA2kHtll5R1lncYVXNpUdkcthqeRGubb5j+dtmpx/tz1zvF0cZ5ukGziF40hd/epXH9PzO3O8Q9dWbmAQOLT6+A1DWFRxhal48p/xxAlehlEMiLO48oIynuch1/eMqrrWa4/I6cnFIzd0m6YLW5TpK5/Bn8bZ1ndnrdVFFxlytqsJKbexOqohjNVD+eKsI5M3ztFyqN2Obru51XBErhtd0eUvf/nxtWfew+3OBlvcrUBycNqJpTHClv6Fbbf4ez5Xpm2cqYowyfhR/yp76KVJvvqW2ZFnkZepHvEdr5dmtIURfvpZyZ3DSHowyPQlv8Io6tpUh734DlvEvkzwTGmaZtgyvvJiq9skOKLMXmCY0W7tiNxIdyp/W3YUaU3zaCKvso2pTsv3zREw6c5WqroWdoSf2dpce9SzI1pPy3uaC/Ygblb+0qx4mR2F3Kjf8Xv53A4CyrQt193aUWWfYR9tepEzfH1X2EU8j89N+kuyKrs/i8CKNuVlFU8aUXE3lduLB7gAd5ofmfcnbsYXtie3ykukkcUN48Gr4lfPyQ19I432M0tTGPkjV/yMKowibCUXv+JJj9yKH3GFc66T8+bMW2zRjrT34tNg3KU2V7rSlYZPfOIT4zuAqzLfbXrOrTpv6nVjUZl7GPTKOzBqdVJpwxaq+NVzsiJuKzd+t/pyaNzY6yyu24o5MG44p8e0jA/SjkL39rPNy5RfYRT1FL+qMz25PV6FUaQjzUqvntwqTuQ3i8sZkG6kHWG39QlXK9LI60+sYLtgqiUX9jgb6xiKyR4DaFvDPbdDxkRQlJFVbqveVsJtIw8cTOb5LQ2vE/vU6uJEr0WZ3rzeprut33TK8Jde9XyOV9lROHjSDCzafPXSrOSGjCxutEe9NCtdenLneHQlt7LfKi/0PZMo8MnKDi97fhzsKOzyTCrr/c6rOoYqO4p2mo1VbUBmf5GPqg4HP4sb5Y4X+kX4+Kx0CX4mN/ISYZbP7SCgbFr8A3vPq7Jr40y128SOxGfX0qvsaFO5ZGf6npW91sLgBmVbRilgi1XlOMW5plFA8s/gKkuTchyYjEdMT65tvgZp0Ym0yaqgWV6ALW4vL2a1wximcnsYRbhq+3AvL7CVDyu2Lc1hBNtqlUc+yRSmJbgzuizuHEawhU9WbhlG3g/rHb6/9Vu/1aqx69909bocW//OW614bZNsmXWZk4ueUK9M8Ta1I/j27AjuwrTEjpRLFldZWylvy4xz5EZoW3ytfNvm7v3lSHjncG3d79kRG23lhm49jNigtiWLm9lRyJyzT2lWGJEBo8zuK4wi3V5eenUt4mflgteTi6cdy9o55QO/LC/kymdmJ3h7TW55VjfcmuoSqri1F6a2iqPnPve5J9tdNsNR5mw//OEPH485cLTpa4IrnHhnxIV17jvIuW7tiXPlbOiyl73s+Oditze/+c0n047w2/qkK+xb+5Vn9tvrYyoeO9JeZ31B5GMTOyJXvE3tqJdmVdd6dXidMQVsM33XwSiwOu6f6jhqbbA3pghMemXas89eX8D2e+1RL03xIj+ho8/KjrKw03jL990hEHXPZ1VuUqh4vX6t119q03tjCuWeje3pIs2d2pF4yLhiv/rLC1M8s/5X/WWgsN92xK57drTJuKs3Nj3dC5sxOsLmqGe068Sfk5/xtyU3S2svnvUw2gv5O5Gxn9hZJbZF+yd+4ifGwfleNm4GAVbFbF+1+rUtevKTnzy+QsY5VbSf+O1Fnip9b3jDG57Mz/Q9x9M0dZKbUJVmyMLvhal41fOQe1Cf+63XfqfXw9Wuk3POOWd0mjneL3rRi8bgVrJPnDgxDs7cSv7qV796fO58LOcLeeXJta51rfEyNme3Day8sko7wSm3Os559/vTn/70+Momq9xkkI9cxGbr+hOe8IST7ycdGcu/rSPADrM2vXpOocNku1sH6AASOAh89ztNZ+m3dYfMARTZoUuSE3sUJzc2tUMLDC5QXGg7COjHYzJnL1PYtLx7OmT9WS/8OrzU8V4n4hJmQWBTBKx6W6HyLsIXvvCFm4o5JZ4Kd+9733vcYo7hXKkKs9eVxtlnFz7Zgn1cyVlZq957jd1xxWvJ16kIXO961xvvWrDSNl3xqibDnN+ekpuikUmeD33oQ+Pt5l4x5tI0K9yOqzhOYiAYdzpwsu92t7udFONCt7jU7eTD5csZh4B3kk93SBxXANQVryY6U+m2t73teK/E/e53vzMVgq3lWxvrFaNH0fHeBBSTwCZ9P/7xj4+r7dku0U3kLnH+DQE7K6udNP8W6vh+Wxzv41u2hzpnbi+26uXv5S9/+a4adQ6ibajtezK9izo7W7opMHTmdP/SL/3SpiKORLzF4T4SxXTolZw63Zsoa8usV4qhOPLA4XaRYlBsSXv84x8fj5bPBYERAVtU7Upyt8hxJ8eCYgfWcc9rlj+7ZGxLthvGZMtCe4eAO1+8EvJMGhfIq/rE+V7ejrF3tkSSnW4m0dsjMXubyuGWtjjeh7t8jq12ZhW9x5cT6ybi3ax82876kIc8ZLyoaQqYxtPlTXvRYTzoQQ8at8Z4D/FCCwJHEYFtbMM6ijhsQ+cF222gunuZnG9l47JNg73jSt4koD89k8kbTLy+MF6BeSZjsVd5f/e73z2+ReJe97rXXok8EnLs1nJ3iPtK3ve+9x0JnY+Ckl6/awHLK37PZLrwNo4GgZ6jgtfjE9Xj93iNGjv6uS25O1LiiAY+KOxsj3Ne2oUpXlcV5zx3CqNXDjkzfu1rX/uUPzck3+52t+va4zppaSi8CmbTbWwHhW+Vt3X0WSdMJr+KVz3PZGTPdhs/k7nNZ9vQtyezx5NPOzU+9rGPbTPLZ7TsL3zhC+XlLHNlcyYA18MAr8fv4bNOPO23V9HZLnvcKI5YeZ+91/JltA5GWbzdPDuINL3azSraAx/4wPGYym70X+IOw3vf+97hYQ972OCiSxNYB0Wb2pJ4m8aVV3eLeC2mceVyf8DuS994384JF69ua7V7N+W9+xyuL+GbVmfmTrstLRyg7EyHhh6/OhjvJsuKRy3gZ6CTSXYVtycXj64Z6J45o+I9hC2tk5dKbg8j6Xzta18bb+mVRks9ffHovAn27ZnKabq9NHvYr4ORMNk5mB5GU7m2pD7qUY8ay//FL37xVO0D/26lGznT7b3Wbl5uaZqXluf3HPbCZOXt+UHYkYmQ6obHnn327EhexK3qt7j42Q3O69qRNFrqYS+sW7PbIwqer1OmVV56GKnb8bos6bTUw6iXlznspWv23kxzNUBvdVl+r4/A1a561eF1q4sdW/vdth0pS2m0tC07Ul/cUl+luUl/OYeRG/vhyoZb6tW1qBP6F+e83S1y9tlnj/Xgcpe7XCvqSP1WDhdccMHoFN3jHvcY8wSnnWIU7dFxsSNjS0fXXv/614+XNHLGL3OZy6T2eqQKfJ+U1fdb4XVJrTO4dhC4aEy9tpUfVWMV4+xN7YgdZnKjDld9be+29Ln+ssrLtD0yDtJnvuxlLxvxcI+I405ZPRvBWf6dgoAy0Paqj8Y9ji3YhQrjrLxFPgg7qvxS+szZkbxk9jm1I3KCVvbzTd+0Yp7Wa0cD3g4iRBRc5azO7/WcP/E/85nPjK+Y8X1KKpiKXQ34e3LxnPWrCtIFPW65zWhObpXPHkbS+Yu/+IvxEqCdpglbhVg5sj2MnGf2Op2MehiZzWRcm2APB3/xyqBp2tFQZ3YkXIu9Rk0ZOpNXleVU/ra/WymRNxe1oQ9+8IOD9wZn1OZlGqbHg5E6FWdVp/F8dwnF1a52tfbx+Lsnl94wrOwIv7Jtq3d2EWTEPpVnVj5siC1tYkfi6USziY05jHo49HjyV21B3U07ByO4Z42xNF0e5kxiRj198WCbdfpzGDmr5hVxBlFmnRfaOwRscbUjxqCipaNmR+qhvrhqjz760Y+efIVim9ee7Wpv2G3WF8xhZMLTxWGZ3ffqWjam4FQ41uRGfO1VVUfppE5lOJCLsjbQ855cPPGyvHjmtt91JgL1ty4P9IpH1MO+N6YQdzftUTXumhtTVO3uXF6UCcrsqI37tre9bVxd85YT2NJJeWfYKxfPszJlC8q8spVeedOJ7Vd2RPYmcvfKjug3JXre5CY3GY//tX1xb0xBxqbjo92MKexiMZmW0W76y6w+GYu94AUvGMf20stspdc27NaO4JSNraR52Owo6gTbtmPAxccnVm80QXN2tKm/1usL6KP+Z/jRSX9gh0NGe21Hq3bmm9Iz3goya5wohRfGlSkZRlDFZyAZrSM3i+dZGHRWEao403hVmNApkyvNKi8huydX3AyjntzQp5I7p4/4WV48r+J6jl9RL+5cvJbvjJrbzlXSg175douyihhOd5V/z9fBSF4r7Huye7zAPrOjFtupnIg3fTb9Lj/+Krm9vFTprovRVI/43tMXr0pT/Iib5SXkZ58RL+N5NpcmfjWgqmTuRu6cvjqdc889d7j5zW8+Tqp4b/ZCu0fgNa95zTiZzPnOSLnM2UoWz7OIu9d2FHUxkxtpVjr1nkfcqp2r6mDEq2Svo++6eXHjvj8k3UzX0MNuo2ynXPCrz57cHo88r8aLAWorvxcXr9dm9/LZpjP9TW5FUS6Z7NCnF7fiieuvkjsXL/i3vOUtB39BvVWtCFN9VtgKX+kasr761a8O3/7t3x4/1/7sye3pIwFvf7Aym1FP7hwvk7fOM3IrwqvSDV4VFw4VRdyqbZiL1/ItgDzjGc8oJ1La8NnvXrlVGISc3sWBm8rtxZOuCXsr1Bn19J3jZfLi2VyZRrj2c6688Tch+oib2VHwMrk9XnrGOxOyPFsQ2A8ErDKbubrnPe85Gvt+pNmmQQfvBfU+4IUWBI4LAjoON/2bVHrDG94w1rPjkrf9zodZ8Oc973njRKEza34vdLQQ6JWZgVbFt2JT8Qy2Kh508HoDwCpuT5+jhfrBaQvbWDFvtcBTrhmZtKzKRfger2cPdKni9uJJ0yRCz46MoTKasyP6SLsl2GTP23Bnwm8YVfjiVXZk1bUqb7j1ePhVmru1I3pVVKW5qR1V6Zxpz9MV7zMNhCW/hwuB888/f9y2eRAr3850W+k+77zzDhcoizYLAnuAgK1WLs155jOfOTz/+c8fO3MXr1WrkbtJkszjNlgzSLHd+lKXutR4rvbDH/7wOBO+Dfx2g/0Sd0FgQWBBYK8QePvb3z7c6EY3Slf99iqNRc6CwJmCwOJ4nyklfcTy+dSnPnVwaYzXWLzoRS9Kt53tdZasdF/84hcfHvGIR+y16EXegsChQcD589jNYTst57E6t2/G25bP7EwlJ9Rse3VXgLO5tlhmW0bN7tMju4PACpO/TG6sBGUXdAJYPBdPZRfIxapNds5rTi59nX+kr3sesjwdmgJeFFkQWBBYENhDBLJttnsofhG1IHBGIZA63r3Z+x4vkOuF6fEi/iaf25K7iS7rxDkIfas0q+fy0eOtw18HiyyMQfIrX/nK8Tbx/Vj59s5GF9M9/vGPz9TpPpvDqBv5AJjr6LtOmJ2oPicPvxem4lXPd6LbNsJuS69KruebrC47w3qd61ynvHSEY0125iDDjWOeObJ4vTNp6jeZmQNrGxsHOruQiFxOcOaU48EgbkX1e0pk4meTCML18tLjTdNov1fl1YY7Lr+r/FbP5bvHOy64rJuP3WBRxa2er6tTL1wlu3rek7Vt3pxOFb96vo6+4m4Sf5M46+hz3MLM4TTHz/DYJE4m5zA8Wycv64Rp87JJnFbGNn5XelXP19Fhk3HVnNyz3CTcUihZ8fAzHjk9nkGWwU8Wt5fmnFxxYzWjzYuZOsAZrGVnYnr64hlwZcD39I3BpLjZ+Ym5NGFkwNtSL01hxXP2p9K3wmhObk9fMqWbzYj25OL15AbvSU960nDXu951vBjKjZKBbYvNbn5b6XaTrFuJK/wif/tpRzBQlj07om9G4rK9Teoa28viSYdcfOXeEh7qxa14bEg+M35PLp6/LB5d8JRZVifYEoyyMu+lGXJ7aVYYHZQdafvm7CjDKHDYpLzhbvU5ZMAtyDPY99Ls4Vvxojwz5zr02KRtFTezE/lRpvDN+OL5q/Sd41V9QdhRr0x7aW7SF9B1zo6quiYuynTC6+FAV9hmbb94FUa9NOnSS1M+q3ZwN3LFVWaZ3S92pFQuLJcKox72eP4yGyOXTDZU1f9t2JF0j5odqWtTYpcmV2FbjSmibm7aHsFop31M6NMbk23LjtRfWLQUOmU2iIcynuf4FQ+ffWb83cgVt8JIuctnhq94PX3xen3BYbMj2Gb5jHLZtL+sMDorW61QCUTIVjl0SJS04pB1HgoxkykDKqe/jK8g/O1ULj2lWa2eMB5hpEn3KdEfoFma4igIqy6+txSNd7YqE42QNNvKGXIzDKRBH/Ez7OcwigayLRdp9jBSnrCpdBI3wygwIT+L28NoHexD5qtf/epxa+y5q1uZX/KSl0Sye/JppfvEiRMD51uHA0N/LcUzOrV2JGyF0Rz2PYzEDWwrO+rZp7iZHc3V4bCjFoPIS4XRnH3CKMq0lc3m2WHG95y9ZHVtHTuqMJKPaI/aOjOHUZWXOYzCjtSntkzDjjIMQm7VzvUwEtcfuW2ans+1c8JsYkfiwD7awyhz8uC3DTuCQ1U2PYx2a0eB737bUVamx9WOou7shx2p/9LL6uJhs6Oow5musOqNKQLTbdgRDDOd6Bv1ZZP2SJ6qvkB/Wo1Vop3LJuV6GG3aF9BTe9CzowojcbVjWV5ghycfvrckvcC3bY82beduetObjv0EuVlfEG38pnZE57DFaX7mxhTRf8NxSoHRJv1lDyNpsBXYZ7bN/iqMdmNH0q3saA6jqj+cw2hqRy2+PYzIjbrme0s9jA7KjgLbNp9zGG3aF5yVGXs4AxkPiEAPgFpQ/cbLAMfzPJNLJgPqyc3ikYkquRdyc740US9NvIwPcNTTqccnM8PIM7xM7hxGEXdULPlXYQT3ijeHUeCT6dvDKAw8wzZUn2L0tKc9bbjLXe4y3Oc+9xkvherFi/hzn5xtW22n798lN8tLyMpwmsMIn8xM5x5GkabPSifP6dRSNG5ZvDl96ekvkyudCqNemUaamT5kRt3P+D2MemmSiyqM8OQxKxc81ONlul4YK29vghefVfzqOQwr7HsYSS/KspLteYQJ/Xz27CjCVRiRR+4cP+TE57plGuGnnz2M2Bh+hkHYZ6WrNPAqfs+OQqepntPvmT7BDwzjd/ZZxa+ekyEfGb+HkXhhI1nckJthtJsxRehapVlhBPdoV+iWUU9mpNvG62G0WzuSVoafPMIw44V+eFE+8Sw+q7wE32eFRfVcnAp7GFW8iOezkk3fLK+9dk670atroU+WJl7w6TWldco0k0mGuJXc0DeLO5dm5DPDSLrSzHjrtq3iZ1TlZRo2yw9+9RyPrhl/HX0rnQKjTC47quLNpRm6ZnJ301/OYbSJvmFHma7S62GEj7J05zAST5ritrQORhG/jdt7jpfp6vmcvuJVccWPMvd9Spv2BcvrxKYoLt8PNQLOfF/iEpcYzl2tfO+Wfv7nf36cNbeVfaEFgQWBBYEFgQWBBYEFgQWBBYEFgQWBbSKwON7bRHeRvecIPP3pTx+3WVn5jtm8nSby5Cc/ebjIRS4yPOxhD9tp1CX8gsCCwILAgsCCwILAgsAZg4Ctw5uOt84YkJaMLgisicDieK8J1BLs8CBg5dvNxV41tlN68IMfPJ6bss18oQWBBYEFgQWBBYEFgQWBBYEagQsuuCC9lK6OsXAWBBYEKgT23fHO9vxXyi3PFwQqBGwVd8PjT//0T689E2tbuXMnD33oQyuxy/NvILDU092ZwoLf7vBbYi8ILAgsCOwlAgfVJh9UunuJXXZefC/lL7K2g8BxsL3tIHOwUs9y492UFFRsKXF7X3xvw2Q8cf3hZaTyOoyexY10Mh5ZITfChfz/f3tnjONE04RhB5sgOAAZmyCEhMgRIQSIiIRbcAQSJBLOwAVISUgIuQEXQFwBcYCfx/yPaDVV1bMztnf3o1vy9ky/VW9Vv13T4/V6bcZpfFgC3H3zQwX4h37/wb61qXjB8Osb43Blvm5SUU746BfxMj//Yb+fq+eZRpm2xKNl+TAXuDNe8zV+mzf68DhlHbGmvPXpw4cPuzdv3uxevHix+/jxY5vWX8fPnj3bPX36dPfu3bu/csW40gj8WHWEppn21BFYtm6uC/m1jXH8WNdsTbHPMOqoX0/sRxoRk5bxmq92e+P//6CGmGcf17ngc1FefI3ZxvKYNV2jkbx9rvCC0aI1Y9w6ynDz7TUyJn482gaGfaaReBRTXrTtm35rNILL/QietnkODnffnPtF1xseOJlnvzbEJFamEb7YRDEZ5xHdC/Ab1dGIt8/VXOgzjbbUEbxZHVUaMQ/0q+oo0kg/4kb6Mp5pBEY8/LyvMkbDh5ZptKWO0OEy6mhLfaJR31qN4FYT7Q5RR+jfNmJexTqiNtGI3NpGvujCeFSfahZh+PKIrmFjXPc6okaYIy3TqKqjSiN5oz2FeCPtyYd1jdYUbnh5tI1xeHlEa4otNhlGPPOOeDONtI144eOR1REY11mEVxpVczFmpBF+rCnckb5LeJln34gJZ6aRe3xUD+YbaQBGW3MvwLeqI3gjjfRbU0dnLhrkNM8V5/fo3z/7Qu99//b488lyka/2F8XMt40vVzuGXWvb2kQxtbVv7R2jH/lqq7/n9o7Tt2MRr7YVBkfL0/NGmGMVb4YZTw5zdJzzzDfD5LKX055xvk6EC/vt27f7x/3793efPn3a3b59e3fjxo29Kd8h/P37993z5893vMX81atX+wvIi1Q++jZWe6yNY/Qei9lH89TWXlv6livyday1018+e8fltZejxT3OsCiefPpGccUyXvAMM2bP63jlm2Fy2WPXNnNpY7Q4x9q04/LZRxhjFQ5vhOO3JqZckS+cNGy0+z3yJ8d+XHv7ijfDonjy9fE9b/uMF5sMM2Y/H8cr3wyTyx67tjnexmhxjqN8W7/eXozx9lg7x+g9FrNfE1OuyBde42lnLM/tHdfHPuMFzzA4wfp9u43VHsPVtowXmwyTz14+zh3LfDNe/ezltHec3mMx+yimtvba0rdjI9/WtuWo/PoYnssV+bY22hnPc3vHWx+OM94Kg9MHdjZj0V+Ut/WVr+0z3HFsjxmzjdPmFcXU1l57zvlMHK4/jiNfx8Ajf7j68X4sws1Bfs9b3zUxjRXxGqPCRjEr3wgzH3tzsDdehmMX8eofYXLZa2vvOL4ei9lflFce+pGvtsby3N5x+nasPW5tOM5i4uOj9ZHLvsccj3i1jbAzviewb76iEH1PHST8tdFfbnpf3v6bYdjyKkoUk1cUeGUlwvCrePn+Zb5Xz1fdsO9b9r2P+Gb5EhMNfBWm5aw00o6cePQNXubZP5HADm2ZR+Q30gi/aM3gZZ58p2H0HYz8Asu6RtpTWJVGcDOPyLfSaEkdZRoR8/z8fHfz5k0Od69fv969fPlyx1vJ+V+kO3fu7C+ib9++7Z48ebL7/Pnz7u7du3tbaixb70qjvfOvH1EdgVX1uaWO0HZtHVG3Ub68KsiaR2vGXKiRDKs0QltqNPOtNCJX8op8j1lHxI2umZFG1VwqjdCXFq0L4xUvGH7RPlddw/BeVh1l+ycaZfvcljqi/qiXqI4qjUb7HNrDGe3Z6FvVEflke0613pVGxKRVe0MWE1781tQR86xiZuu95RomHtpH+VYaje6Xlfbcn3jh9hh1lGnEelJf0X605H5ZrXd2rRGTVq1pxbvmOQXxLqOOeG6Ftsy1b2DkFO3LW+qIfSW7n7LPZfe8JfvRseoo2uceP368f26aaaSeh66j0b2gyofrO9Noy37EfQReHn2r6mjLcwriVHW09nkXGmXPKYiZ7UdL6jOqIzgrjcBpa+so2+dGdYRfdO2TS6XR2ucUZxD3DVGzJxhgo7bVf8Qf4Uvyivzm2PVUoF/ve/fu7d6/f79/8ebr16/7C/fhw4cnmVyfy0mCbgiyJF9ssj1gTeglMSverf4V9zGwU+d76njH0Oyqc6LxIa+Jqz7fQ+ZXaTdr9zBKVxofJsL1ZrmsOrusuNd7tQ6T/b+u/bHmfyzew6z6YVmOcc8Pf/E+bNqTbSpwOgV4BfTBgwfhq5Gny2JGmgpMBaYCU4GpwFRgKjAVmApMBaYCfxQ4+aea/wk9j6YC6xXgLR5R45U43pY321RgKjAVmApMBaYCU4GpwDYF+LeLf+mvnNvUmt5TgVqB+Yt3rc9Er6gC/P82/9cy21RgKjAVmApMBaYCU4GpwHEU+PLly/7f+I7DPlmnAv+WAmf9Xwfb97PzClf/KpfnEaZvhCErbwOmRXjFu3dK/NqY/VzwMybHEc54lE/FC4aPvbnDRatitry9X8sX5ao9vce/I/7+6XiPtTEjXjn097ztM8zxnteYcGjT82WYvpEfPujLA7yPy9iIt/fBvo0Z4dWa7gP++hHlK2/EKaafuctXxex99aEX4ziKaxzjYtc2x7UTk5fxNbzwyC2nveM9rzEzX3PUXz56feH0uMWtoch3KW/L18bkuJ8LY9WagtOifMifB1jP284t8/3N/HdO+kYaiclJ3zbPxVuMY8erfHus5dC/HfM4wxzvedUOf23kcswevG2tDj0vdqM6MnbGG3EuiWmOkT9YNM+K1zxHvuB9zBEvPrQoJ3WJMH2IZ4w90a8fnuPX56OfvTH0tc9iwpfxjnyzmKN83RuinJxfhLW84G1rMTla3JiMRTjjo5iZ38gXvPet8hXLeJ17lK8+xMtiRvnoZ28MztvWc7YYxxFunva9D+cRpg4RJz7uRxz3NuZf8fYYfKM6qfAqXzFi9rmS/5J8o3lWvC3Wz3UUUzzKdwuvvpEGxASPYpqPvXpx3rZonnBWvNWaGifjJTZzcV7m4rl+8ohXMfWNNBIzrnx9b9x2HF/z6LnlBY8w/SLeCjvjE+b6ZiJ8YmjUwCss4oQHPz7ZL/J1ghGmb4XxqXU8+san1SEAOfXCLeH10w973koj54Iv8+0b+Eij7K+5+GY6ZNo6z0wj8814q5i85Ztco/ls4cU34mQuXJzirG/fqnz16304B2MuWR1hs7aOsrfGE5MWaQ9G7Z66jrL1JM9Ko2ou+kbzBLM2ozXfwotvdg1TR+wJWU74VliUq/O8anXEPKs6yjRCA2qw0iHDrCPXD21sjGUaaZ/xgmcYeyC1FK3NFl58M42oI+8x9H2r8gWLcoUDjPmgU998goLvmvva2v2IWFXMTCPmsraOXM9sr880IiYtqxXwDGOe1m+v/RZefDON2ucqp64jckLHvlUagblvR36MVfquraOKt8qXXKt5ZnVEvIoXLLuGWcdj1VF2DVtHaH+IOoKPOdIyjdyPKn0zjeBeey8Y7UeZRs4nq0/wDIMTXbN9FyzzrXjBMo3Q/rrVUbbPMc9Mo8uqI+q6ul4OXUdnfD9f3xQs+rh8Cz3yg4ePXs8wcD4SP8K98CJsxItg5BrdmPFloaOvBXHxq5j4WQxw2SqNtIn0A6s04sJjHtFXXow0yrQlZqURNyQKL/vakCpfcqUoIw0rjbbWEfoQs19z5pHlM9IejeBFx6xFdTTiRb+1dUTtVnXEmmHTN+qIuo2+ImGk0Y8fP8L1JEalEXVEjUa1gG9VR/jSIt+qjpZcw5lGxKN+opgjjaq5VBoRk3boOqLmuaaya5haOEYdsTaRfszx58+feyyqz0qj0T5XaV/5VhptrSP0jbTfss+hEXtRdC9AX9qaOoI3u19WGhGPeVYxs2utuoZHGpEvNdbv9eRTaVTVAr5VHZGTcbFtW6XRkjrK7gXEOEYdVc8pnFe1N2TXd1VHo+cUozrKNNpSR6wb9RldT5VGW+4F6Os+qNb2I42q+gTLNIJ/Sx1F1/CtW7f2zzO4BqPnFM5pbR1lz7tGzymOUUeja5h9hXlGc93yvKtab/RFo+haHGlU8Y7qiHt3dF8baQRvVEfMo9IInBZpy3g1F/ajrI5G9wLus9E8jUk+0f1n7b0g/B9vRM1ahelT2VSY/mv6Y/GuyWWJz2Xkm8XMxplHhS3Bl2iR2VSxz8/Pwwuh8snibB2/jJhbcl6S7xKbi+Qw4gOvbDIsG79IbsewPVZeGW82foy5tZzRL9UtXuWVYdl4y3sZx2vyWuNzGXM7VMxsvtk4cSvsUHldF54tWmS+2fghNMm4s/FDxFzLMcopw7PxJXngu8Z/jc+SfNbaPHr0KHzBYi3fqfzW6LjG51TzuWicJXNZYtPHXePTcxzjPMsrG1+Sw+g5zhKO3ib8xbs3mudTgaumwJYL6arNZeYzFZgKTAWmAlOBqcBUYCowFZgK/LcVmL94/7fXd85uKjAVmApMBaYCU4GpwFRgKjAVmApMBS5Zgf8BuVZlX6pAlW4AAAAASUVORK5CYII=;" parent="1" vertex="1">
          <mxGeometry x="-570" y="350" width="1930" height="370.4" as="geometry" />
        </mxCell>
        <mxCell id="zDgk_tNfl1DSH7jhGKhS-40" value="" style="edgeStyle=orthogonalEdgeStyle;rounded=0;orthogonalLoop=1;jettySize=auto;html=1;" parent="1" source="zDgk_tNfl1DSH7jhGKhS-35" target="zDgk_tNfl1DSH7jhGKhS-17" edge="1">
          <mxGeometry relative="1" as="geometry" />
        </mxCell>
        <mxCell id="zDgk_tNfl1DSH7jhGKhS-35" value="广告请求" style="whiteSpace=wrap;html=1;fillColor=#f0a30a;fontColor=#000000;strokeColor=#BD7000;" parent="1" vertex="1">
          <mxGeometry x="420" y="10" width="120" height="60" as="geometry" />
        </mxCell>
        <mxCell id="-iAQdE9D-gK92adV4hQ8-2" value="" style="edgeStyle=orthogonalEdgeStyle;rounded=0;orthogonalLoop=1;jettySize=auto;html=1;" edge="1" parent="1" source="-iAQdE9D-gK92adV4hQ8-1" target="zDgk_tNfl1DSH7jhGKhS-21">
          <mxGeometry relative="1" as="geometry" />
        </mxCell>
        <mxCell id="-iAQdE9D-gK92adV4hQ8-1" value="双feed 广告位增加判断URL是否为空的判断" style="shape=document;whiteSpace=wrap;html=1;boundedLbl=1;fillColor=#fad7ac;strokeColor=#b46504;" vertex="1" parent="1">
          <mxGeometry x="850" width="120" height="80" as="geometry" />
        </mxCell>
        <mxCell id="-iAQdE9D-gK92adV4hQ8-4" value="广告视图" style="swimlane;whiteSpace=wrap;html=1;fillColor=#bac8d3;strokeColor=#23445d;" vertex="1" parent="1">
          <mxGeometry x="-50" y="80" width="140" height="180" as="geometry" />
        </mxCell>
        <mxCell id="-iAQdE9D-gK92adV4hQ8-6" value="纯图文视图" style="rounded=0;whiteSpace=wrap;html=1;fillColor=#e3c800;strokeColor=#B09500;fontColor=#000000;" vertex="1" parent="-iAQdE9D-gK92adV4hQ8-4">
          <mxGeometry x="20" y="30" width="110" height="40" as="geometry" />
        </mxCell>
        <mxCell id="-iAQdE9D-gK92adV4hQ8-7" value="视频视图" style="rounded=0;whiteSpace=wrap;html=1;fillColor=#e3c800;strokeColor=#B09500;fontColor=#000000;" vertex="1" parent="-iAQdE9D-gK92adV4hQ8-4">
          <mxGeometry x="20" y="80" width="110" height="40" as="geometry" />
        </mxCell>
        <mxCell id="-iAQdE9D-gK92adV4hQ8-8" value="视频转图文视图" style="rounded=0;whiteSpace=wrap;html=1;fillColor=#e3c800;strokeColor=#B09500;fontColor=#000000;" vertex="1" parent="-iAQdE9D-gK92adV4hQ8-4">
          <mxGeometry x="20" y="130" width="110" height="40" as="geometry" />
        </mxCell>
      </root>
    </mxGraphModel>
  </diagram>
</mxfile>
